<svg xmlns="http://www.w3.org/2000/svg" fill="none" viewBox="0 0 60 56">
  <defs/>
  <path fill="#9CF8B9" d="M1.242 56a1.242 1.242 0 100-2.485 1.242 1.242 0 000 2.485zM1.242 45.262a1.242 1.242 0 100-2.485 1.242 1.242 0 000 2.485zM1.242 34.523a1.242 1.242 0 100-2.485 1.242 1.242 0 000 2.485zM1.242 23.873a1.242 1.242 0 100-2.485 1.242 1.242 0 000 2.485zM1.242 13.135a1.242 1.242 0 100-2.485 1.242 1.242 0 000 2.485zM1.243 2.486a1.242 1.242 0 100-2.485 1.242 1.242 0 000 2.485zM58.752 56a1.243 1.243 0 100-2.486 1.243 1.243 0 000 2.485zM58.752 45.261a1.242 1.242 0 100-2.485 1.242 1.242 0 000 2.485zM58.752 34.522a1.242 1.242 0 100-2.485 1.242 1.242 0 000 2.485zM58.752 23.872a1.243 1.243 0 100-2.485 1.243 1.243 0 000 2.485zM58.752 13.134a1.243 1.243 0 100-2.485 1.243 1.243 0 000 2.485zM58.752 2.485a1.242 1.242 0 100-2.485 1.242 1.242 0 000 2.485zM47.305 56a1.242 1.242 0 100-2.486 1.242 1.242 0 000 2.485zM47.305 45.261a1.242 1.242 0 100-2.484 1.242 1.242 0 000 2.484zM47.305 34.522a1.242 1.242 0 100-2.485 1.242 1.242 0 000 2.485zM47.305 23.872a1.242 1.242 0 100-2.484 1.242 1.242 0 000 2.484zM47.305 13.134a1.242 1.242 0 100-2.484 1.242 1.242 0 000 2.484zM47.304 2.485a1.242 1.242 0 100-2.485 1.242 1.242 0 000 2.485zM35.768 56a1.242 1.242 0 100-2.486 1.242 1.242 0 000 2.485zM35.768 45.261a1.242 1.242 0 100-2.485 1.242 1.242 0 000 2.485zM35.768 34.522a1.242 1.242 0 100-2.485 1.242 1.242 0 000 2.485zM35.768 23.872a1.242 1.242 0 100-2.485 1.242 1.242 0 000 2.485zM35.768 13.134a1.242 1.242 0 100-2.485 1.242 1.242 0 000 2.485zM35.767 2.485a1.242 1.242 0 100-2.485 1.242 1.242 0 000 2.485zM24.23 56a1.243 1.243 0 100-2.486 1.243 1.243 0 000 2.485zM24.23 45.261a1.242 1.242 0 100-2.485 1.242 1.242 0 000 2.485zM24.23 34.522a1.242 1.242 0 100-2.485 1.242 1.242 0 000 2.485zM24.23 23.872a1.243 1.243 0 100-2.485 1.243 1.243 0 000 2.485zM24.23 13.134a1.243 1.243 0 100-2.485 1.243 1.243 0 000 2.485zM24.23 2.485a1.242 1.242 0 100-2.485 1.242 1.242 0 000 2.485zM12.694 56a1.243 1.243 0 100-2.486 1.243 1.243 0 000 2.485zM12.694 45.261a1.242 1.242 0 100-2.485 1.242 1.242 0 000 2.485zM12.694 34.522a1.242 1.242 0 100-2.485 1.242 1.242 0 000 2.485zM12.694 23.872a1.243 1.243 0 100-2.485 1.243 1.243 0 000 2.485zM12.694 13.134a1.243 1.243 0 100-2.485 1.243 1.243 0 000 2.485zM12.693 2.485a1.242 1.242 0 100-2.485 1.242 1.242 0 000 2.485z"/>
</svg>
