<svg width="54" height="16" viewBox="0 0 54 16" fill="none" xmlns="http://www.w3.org/2000/svg">
<path d="M10.5 5.33333C10.8978 5.33333 11.2794 5.49388 11.5607 5.77965C11.842 6.06542 12 6.453 12 6.85714V14.4762C12 14.8803 11.842 15.2679 11.5607 15.5537C11.2794 15.8395 10.8978 16 10.5 16H1.5C0.6675 16 0 15.3143 0 14.4762V6.85714C0 6.453 0.158035 6.06542 0.43934 5.77965C0.720644 5.49388 1.10218 5.33333 1.5 5.33333H8.25V3.80952C8.25 3.20331 8.01295 2.62193 7.59099 2.19328C7.16903 1.76463 6.59674 1.52381 6 1.52381C5.40326 1.52381 4.83097 1.76463 4.40901 2.19328C3.98705 2.62193 3.75 3.20331 3.75 3.80952H2.25C2.25 2.79918 2.64509 1.83021 3.34835 1.11578C4.05161 0.401359 5.00544 0 6 0C6.49246 0 6.98009 0.0985363 7.43506 0.289983C7.89003 0.481429 8.30343 0.762037 8.65165 1.11578C8.99987 1.46953 9.27609 1.88949 9.46455 2.35168C9.653 2.81387 9.75 3.30925 9.75 3.80952V5.33333H10.5ZM6 12.1905C6.39782 12.1905 6.77936 12.0299 7.06066 11.7442C7.34196 11.4584 7.5 11.0708 7.5 10.6667C7.5 10.2625 7.34196 9.87494 7.06066 9.58917C6.77936 9.3034 6.39782 9.14286 6 9.14286C5.60218 9.14286 5.22064 9.3034 4.93934 9.58917C4.65804 9.87494 4.5 10.2625 4.5 10.6667C4.5 11.0708 4.65804 11.4584 4.93934 11.7442C5.22064 12.0299 5.60218 12.1905 6 12.1905Z" fill="#8692A6"/>
<path d="M29.347 8.45C29.347 9.308 29.1563 10.0967 28.775 10.816C28.3937 11.5267 27.865 12.09 27.189 12.506C26.5217 12.922 25.7677 13.13 24.927 13.13C24.0863 13.13 23.328 12.922 22.652 12.506C21.9847 12.09 21.4603 11.5267 21.079 10.816C20.7063 10.0967 20.52 9.308 20.52 8.45C20.52 7.592 20.7063 6.80767 21.079 6.097C21.4603 5.37767 21.9847 4.81 22.652 4.394C23.328 3.978 24.0863 3.77 24.927 3.77C25.7677 3.77 26.5217 3.978 27.189 4.394C27.865 4.81 28.3937 5.37767 28.775 6.097C29.1563 6.80767 29.347 7.592 29.347 8.45ZM27.657 8.45C27.657 7.86933 27.54 7.345 27.306 6.877C27.072 6.40033 26.747 6.02333 26.331 5.746C25.915 5.46867 25.447 5.33 24.927 5.33C24.3983 5.33 23.926 5.46867 23.51 5.746C23.1027 6.01467 22.782 6.38733 22.548 6.864C22.3227 7.34067 22.21 7.86933 22.21 8.45C22.21 9.03067 22.3227 9.55933 22.548 10.036C22.782 10.5127 23.1027 10.8897 23.51 11.167C23.926 11.4357 24.3983 11.57 24.927 11.57C25.447 11.57 25.915 11.4313 26.331 11.154C26.747 10.8767 27.072 10.504 27.306 10.036C27.54 9.55933 27.657 9.03067 27.657 8.45ZM34.3103 5.915C34.9083 5.915 35.4499 6.071 35.9353 6.383C36.4206 6.68633 36.8019 7.111 37.0793 7.657C37.3653 8.203 37.5083 8.82267 37.5083 9.516C37.5083 10.2093 37.3696 10.8333 37.0923 11.388C36.8149 11.934 36.4336 12.363 35.9483 12.675C35.4716 12.9783 34.9429 13.13 34.3623 13.13C33.9463 13.13 33.5519 13.0477 33.1793 12.883C32.8153 12.7097 32.5119 12.5017 32.2693 12.259V14.807C32.2693 15.0323 32.1956 15.2187 32.0483 15.366C31.9009 15.522 31.7146 15.6 31.4893 15.6C31.2639 15.6 31.0776 15.5263 30.9303 15.379C30.7829 15.2317 30.7093 15.041 30.7093 14.807V6.838C30.7093 6.61267 30.7829 6.42633 30.9303 6.279C31.0776 6.123 31.2639 6.045 31.4893 6.045C31.7146 6.045 31.9009 6.123 32.0483 6.279C32.1956 6.42633 32.2693 6.61267 32.2693 6.838V6.89C32.4773 6.63 32.7676 6.40467 33.1403 6.214C33.5129 6.01467 33.9029 5.915 34.3103 5.915ZM34.1153 11.7C34.6699 11.7 35.1249 11.492 35.4803 11.076C35.8356 10.66 36.0133 10.14 36.0133 9.516C36.0133 8.892 35.8356 8.37633 35.4803 7.969C35.1336 7.553 34.6786 7.345 34.1153 7.345C33.5519 7.345 33.0926 7.553 32.7373 7.969C32.3819 8.37633 32.2043 8.892 32.2043 9.516C32.2043 10.14 32.3819 10.66 32.7373 11.076C33.0926 11.492 33.5519 11.7 34.1153 11.7ZM45.0489 9.36C45.0402 9.568 44.9579 9.737 44.8019 9.867C44.6459 9.997 44.4639 10.062 44.2559 10.062H39.9659C40.0699 10.5733 40.3082 10.9763 40.6809 11.271C41.0535 11.557 41.4739 11.7 41.9419 11.7C42.2972 11.7 42.5745 11.6697 42.7739 11.609C42.9732 11.5397 43.1292 11.4703 43.2419 11.401C43.3632 11.323 43.4455 11.271 43.4889 11.245C43.6449 11.167 43.7922 11.128 43.9309 11.128C44.1129 11.128 44.2689 11.193 44.3989 11.323C44.5289 11.453 44.5939 11.6047 44.5939 11.778C44.5939 12.012 44.4725 12.2243 44.2299 12.415C43.9872 12.6143 43.6622 12.7833 43.2549 12.922C42.8475 13.0607 42.4359 13.13 42.0199 13.13C41.2919 13.13 40.6549 12.9783 40.1089 12.675C39.5715 12.3717 39.1555 11.9557 38.8609 11.427C38.5662 10.8897 38.4189 10.2873 38.4189 9.62C38.4189 8.87467 38.5749 8.22033 38.8869 7.657C39.1989 7.09367 39.6105 6.66467 40.1219 6.37C40.6332 6.06667 41.1792 5.915 41.7599 5.915C42.3319 5.915 42.8692 6.071 43.3719 6.383C43.8832 6.695 44.2905 7.11533 44.5939 7.644C44.8972 8.17267 45.0489 8.74467 45.0489 9.36ZM41.7599 7.345C40.7545 7.345 40.1609 7.81733 39.9789 8.762H43.3849V8.671C43.3502 8.307 43.1725 7.995 42.8519 7.735C42.5312 7.475 42.1672 7.345 41.7599 7.345ZM50.0679 5.915C50.9519 5.915 51.5629 6.17933 51.9009 6.708C52.2389 7.228 52.4079 7.95167 52.4079 8.879V12.207C52.4079 12.4323 52.3342 12.623 52.1869 12.779C52.0395 12.9263 51.8532 13 51.6279 13C51.4025 13 51.2162 12.9263 51.0689 12.779C50.9215 12.623 50.8479 12.4323 50.8479 12.207V8.879C50.8479 8.40233 50.7482 8.02967 50.5489 7.761C50.3495 7.48367 50.0072 7.345 49.5219 7.345C49.0192 7.345 48.6249 7.49233 48.3389 7.787C48.0529 8.073 47.9099 8.437 47.9099 8.879V12.207C47.9099 12.4323 47.8362 12.623 47.6889 12.779C47.5415 12.9263 47.3552 13 47.1299 13C46.9045 13 46.7182 12.9263 46.5709 12.779C46.4235 12.623 46.3499 12.4323 46.3499 12.207V6.838C46.3499 6.61267 46.4235 6.42633 46.5709 6.279C46.7182 6.123 46.9045 6.045 47.1299 6.045C47.3552 6.045 47.5415 6.123 47.6889 6.279C47.8362 6.42633 47.9099 6.61267 47.9099 6.838V7.059C48.1439 6.747 48.4472 6.47833 48.8199 6.253C49.2012 6.02767 49.6172 5.915 50.0679 5.915Z" fill="#8692A6"/>
</svg>
