<svg xmlns="http://www.w3.org/2000/svg" fill="none" viewBox="0 0 142 30">
  <defs/>
  <path fill="#0BB0B1" d="M83.828 10.147c.84-.332 1.799-.499 2.882-.499v4.617c-.47-.054-.857-.08-1.164-.08-1.1 0-1.961.297-2.583.89-.622.594-.933 1.503-.933 2.726v6.724h-5.14V9.648h4.896v1.997c.524-.666 1.205-1.165 2.042-1.498z"/>
  <path fill="url(#paint0_linear)" d="M83.828 10.147c.84-.332 1.799-.499 2.882-.499v4.617c-.47-.054-.857-.08-1.164-.08-1.1 0-1.961.297-2.583.89-.622.594-.933 1.503-.933 2.726v6.724h-5.14V9.648h4.896v1.997c.524-.666 1.205-1.165 2.042-1.498z"/>
  <path fill="#fff" d="M83.828 10.147c.84-.332 1.799-.499 2.882-.499v4.617c-.47-.054-.857-.08-1.164-.08-1.1 0-1.961.297-2.583.89-.622.594-.933 1.503-.933 2.726v6.724h-5.14V9.648h4.896v1.997c.524-.666 1.205-1.165 2.042-1.498z"/>
  <path fill="#0BB0B1" d="M44.346 9.647h-7.642V4.85h20.372v4.797h-7.374v14.878h-5.356V9.647z"/>
  <path fill="url(#paint1_linear)" d="M44.346 9.647h-7.642V4.85h20.372v4.797h-7.374v14.878h-5.356V9.647z"/>
  <path fill="#fff" d="M44.346 9.647h-7.642V4.85h20.372v4.797h-7.374v14.878h-5.356V9.647z"/>
  <path fill="#0BB0B1" d="M68.293 11.672c-.974-1.35-2.507-2.025-4.598-2.025-1.299 0-2.499.292-3.597.877a6.702 6.702 0 00-2.625 2.483c-.65 1.072-.974 2.3-.974 3.686 0 1.404.325 2.641.974 3.712a6.691 6.691 0 002.625 2.483c1.1.586 2.298.877 3.597.877 1.911 0 3.363-.575 4.355-1.728v.486c0 1.17-.315 2.053-.946 2.646-.631.595-1.623.89-2.975.89-.883 0-1.781-.139-2.692-.418-.911-.28-1.663-.662-2.26-1.148l-1.865 3.59c.883.63 1.957 1.107 3.218 1.43 1.262.324 2.614.487 4.058.487 2.777 0 4.905-.68 6.384-2.038 1.479-1.36 2.218-3.397 2.218-6.116V9.64h-4.897v2.03zm-1.095 7.182c-.605.558-1.366.838-2.286.838-.92 0-1.687-.279-2.299-.838-.613-.558-.92-1.278-.92-2.16 0-.881.303-1.597.907-2.146.605-.55 1.375-.823 2.314-.823.937 0 1.704.275 2.298.822.596.55.894 1.266.894 2.147-.002.883-.304 1.602-.908 2.16z"/>
  <path fill="url(#paint2_linear)" d="M68.293 11.672c-.974-1.35-2.507-2.025-4.598-2.025-1.299 0-2.499.292-3.597.877a6.702 6.702 0 00-2.625 2.483c-.65 1.072-.974 2.3-.974 3.686 0 1.404.325 2.641.974 3.712a6.691 6.691 0 002.625 2.483c1.1.586 2.298.877 3.597.877 1.911 0 3.363-.575 4.355-1.728v.486c0 1.17-.315 2.053-.946 2.646-.631.595-1.623.89-2.975.89-.883 0-1.781-.139-2.692-.418-.911-.28-1.663-.662-2.26-1.148l-1.865 3.59c.883.63 1.957 1.107 3.218 1.43 1.262.324 2.614.487 4.058.487 2.777 0 4.905-.68 6.384-2.038 1.479-1.36 2.218-3.397 2.218-6.116V9.64h-4.897v2.03zm-1.095 7.182c-.605.558-1.366.838-2.286.838-.92 0-1.687-.279-2.299-.838-.613-.558-.92-1.278-.92-2.16 0-.881.303-1.597.907-2.146.605-.55 1.375-.823 2.314-.823.937 0 1.704.275 2.298.822.596.55.894 1.266.894 2.147-.002.883-.304 1.602-.908 2.16z"/>
  <path fill="#fff" d="M68.293 11.672c-.974-1.35-2.507-2.025-4.598-2.025-1.299 0-2.499.292-3.597.877a6.702 6.702 0 00-2.625 2.483c-.65 1.072-.974 2.3-.974 3.686 0 1.404.325 2.641.974 3.712a6.691 6.691 0 002.625 2.483c1.1.586 2.298.877 3.597.877 1.911 0 3.363-.575 4.355-1.728v.486c0 1.17-.315 2.053-.946 2.646-.631.595-1.623.89-2.975.89-.883 0-1.781-.139-2.692-.418-.911-.28-1.663-.662-2.26-1.148l-1.865 3.59c.883.63 1.957 1.107 3.218 1.43 1.262.324 2.614.487 4.058.487 2.777 0 4.905-.68 6.384-2.038 1.479-1.36 2.218-3.397 2.218-6.116V9.64h-4.897v2.03zm-1.095 7.182c-.605.558-1.366.838-2.286.838-.92 0-1.687-.279-2.299-.838-.613-.558-.92-1.278-.92-2.16 0-.881.303-1.597.907-2.146.605-.55 1.375-.823 2.314-.823.937 0 1.704.275 2.298.822.596.55.894 1.266.894 2.147-.002.883-.304 1.602-.908 2.16z"/>
  <path fill="#0BB0B1" d="M101.272 11.307c-1.28-1.107-3.138-1.66-5.572-1.66-1.172 0-2.34.148-3.503.445-1.163.297-2.15.716-2.962 1.256l1.731 3.484c.505-.396 1.118-.706 1.84-.932a7.132 7.132 0 012.137-.336c1.984 0 3.02.774 3.112 2.322H95.13c-2.218 0-3.86.382-4.923 1.148-1.063.766-1.596 1.84-1.596 3.227 0 .864.211 1.634.635 2.31.424.674 1.05 1.21 1.88 1.606.828.395 1.811.594 2.948.594 2.146 0 3.588-.71 4.327-2.133v1.89h4.789v-8.127c.001-2.29-.639-3.985-1.919-5.094zm-3.219 8.52c-.198.557-.523.98-.974 1.269-.45.288-.974.432-1.568.432-.594 0-1.065-.135-1.407-.406-.343-.27-.513-.63-.513-1.08 0-.99.748-1.485 2.246-1.485h2.218l-.002 1.27z"/>
  <path fill="url(#paint3_linear)" d="M101.272 11.307c-1.28-1.107-3.138-1.66-5.572-1.66-1.172 0-2.34.148-3.503.445-1.163.297-2.15.716-2.962 1.256l1.731 3.484c.505-.396 1.118-.706 1.84-.932a7.132 7.132 0 012.137-.336c1.984 0 3.02.774 3.112 2.322H95.13c-2.218 0-3.86.382-4.923 1.148-1.063.766-1.596 1.84-1.596 3.227 0 .864.211 1.634.635 2.31.424.674 1.05 1.21 1.88 1.606.828.395 1.811.594 2.948.594 2.146 0 3.588-.71 4.327-2.133v1.89h4.789v-8.127c.001-2.29-.639-3.985-1.919-5.094zm-3.219 8.52c-.198.557-.523.98-.974 1.269-.45.288-.974.432-1.568.432-.594 0-1.065-.135-1.407-.406-.343-.27-.513-.63-.513-1.08 0-.99.748-1.485 2.246-1.485h2.218l-.002 1.27z"/>
  <path fill="#fff" d="M101.272 11.307c-1.28-1.107-3.138-1.66-5.572-1.66-1.172 0-2.34.148-3.503.445-1.163.297-2.15.716-2.962 1.256l1.731 3.484c.505-.396 1.118-.706 1.84-.932a7.132 7.132 0 012.137-.336c1.984 0 3.02.774 3.112 2.322H95.13c-2.218 0-3.86.382-4.923 1.148-1.063.766-1.596 1.84-1.596 3.227 0 .864.211 1.634.635 2.31.424.674 1.05 1.21 1.88 1.606.828.395 1.811.594 2.948.594 2.146 0 3.588-.71 4.327-2.133v1.89h4.789v-8.127c.001-2.29-.639-3.985-1.919-5.094zm-3.219 8.52c-.198.557-.523.98-.974 1.269-.45.288-.974.432-1.568.432-.594 0-1.065-.135-1.407-.406-.343-.27-.513-.63-.513-1.08 0-.99.748-1.485 2.246-1.485h2.218l-.002 1.27z"/>
  <path fill="#0BB0B1" d="M117.835 11.16c-.956-1.008-2.309-1.513-4.058-1.513-1.334 0-2.552.306-3.651.918-1.1.612-1.97 1.489-2.609 2.633-.641 1.143-.961 2.47-.961 3.982 0 1.513.32 2.844.961 3.996.639 1.153 1.509 2.039 2.609 2.66 1.1.62 2.317.93 3.651.93 1.912 0 3.345-.566 4.302-1.7v1.458h4.896V4.85h-5.14v6.31zm-.785 8.599c-.578.62-1.307.931-2.191.931-.903 0-1.642-.31-2.218-.931-.578-.621-.866-1.48-.866-2.579 0-1.08.289-1.925.866-2.537.576-.612 1.315-.918 2.218-.918.9 0 1.637.306 2.204.918.568.612.853 1.458.853 2.537 0 1.099-.288 1.958-.866 2.579z"/>
  <path fill="url(#paint4_linear)" d="M117.835 11.16c-.956-1.008-2.309-1.513-4.058-1.513-1.334 0-2.552.306-3.651.918-1.1.612-1.97 1.489-2.609 2.633-.641 1.143-.961 2.47-.961 3.982 0 1.513.32 2.844.961 3.996.639 1.153 1.509 2.039 2.609 2.66 1.1.62 2.317.93 3.651.93 1.912 0 3.345-.566 4.302-1.7v1.458h4.896V4.85h-5.14v6.31zm-.785 8.599c-.578.62-1.307.931-2.191.931-.903 0-1.642-.31-2.218-.931-.578-.621-.866-1.48-.866-2.579 0-1.08.289-1.925.866-2.537.576-.612 1.315-.918 2.218-.918.9 0 1.637.306 2.204.918.568.612.853 1.458.853 2.537 0 1.099-.288 1.958-.866 2.579z"/>
  <path fill="#fff" d="M117.835 11.16c-.956-1.008-2.309-1.513-4.058-1.513-1.334 0-2.552.306-3.651.918-1.1.612-1.97 1.489-2.609 2.633-.641 1.143-.961 2.47-.961 3.982 0 1.513.32 2.844.961 3.996.639 1.153 1.509 2.039 2.609 2.66 1.1.62 2.317.93 3.651.93 1.912 0 3.345-.566 4.302-1.7v1.458h4.896V4.85h-5.14v6.31zm-.785 8.599c-.578.62-1.307.931-2.191.931-.903 0-1.642-.31-2.218-.931-.578-.621-.866-1.48-.866-2.579 0-1.08.289-1.925.866-2.537.576-.612 1.315-.918 2.218-.918.9 0 1.637.306 2.204.918.568.612.853 1.458.853 2.537 0 1.099-.288 1.958-.866 2.579z"/>
  <path fill="#0BB0B1" d="M142 17.235c0-1.566-.348-2.92-1.042-4.064a6.885 6.885 0 00-2.826-2.62c-1.19-.603-2.516-.904-3.977-.904-1.533 0-2.912.323-4.139.972-1.226.649-2.187 1.543-2.881 2.687-.693 1.143-1.041 2.435-1.041 3.874 0 1.459.356 2.763 1.068 3.916.711 1.152 1.718 2.053 3.016 2.7 1.298.649 2.803.972 4.517.972 2.74 0 4.823-.792 6.249-2.376l-2.705-2.809c-.524.45-1.042.775-1.555.973-.514.197-1.122.297-1.827.297-.937 0-1.717-.202-2.339-.608-.622-.406-1.042-.985-1.259-1.741h10.657a63.35 63.35 0 00.084-1.27zm-10.82-1.431c.144-.775.482-1.385 1.013-1.836.533-.45 1.195-.675 1.988-.675.794 0 1.457.225 1.988.675.531.45.87 1.061 1.015 1.836h-6.004z"/>
  <path fill="url(#paint5_linear)" d="M142 17.235c0-1.566-.348-2.92-1.042-4.064a6.885 6.885 0 00-2.826-2.62c-1.19-.603-2.516-.904-3.977-.904-1.533 0-2.912.323-4.139.972-1.226.649-2.187 1.543-2.881 2.687-.693 1.143-1.041 2.435-1.041 3.874 0 1.459.356 2.763 1.068 3.916.711 1.152 1.718 2.053 3.016 2.7 1.298.649 2.803.972 4.517.972 2.74 0 4.823-.792 6.249-2.376l-2.705-2.809c-.524.45-1.042.775-1.555.973-.514.197-1.122.297-1.827.297-.937 0-1.717-.202-2.339-.608-.622-.406-1.042-.985-1.259-1.741h10.657a63.35 63.35 0 00.084-1.27zm-10.82-1.431c.144-.775.482-1.385 1.013-1.836.533-.45 1.195-.675 1.988-.675.794 0 1.457.225 1.988.675.531.45.87 1.061 1.015 1.836h-6.004z"/>
  <path fill="#fff" d="M142 17.235c0-1.566-.348-2.92-1.042-4.064a6.885 6.885 0 00-2.826-2.62c-1.19-.603-2.516-.904-3.977-.904-1.533 0-2.912.323-4.139.972-1.226.649-2.187 1.543-2.881 2.687-.693 1.143-1.041 2.435-1.041 3.874 0 1.459.356 2.763 1.068 3.916.711 1.152 1.718 2.053 3.016 2.7 1.298.649 2.803.972 4.517.972 2.74 0 4.823-.792 6.249-2.376l-2.705-2.809c-.524.45-1.042.775-1.555.973-.514.197-1.122.297-1.827.297-.937 0-1.717-.202-2.339-.608-.622-.406-1.042-.985-1.259-1.741h10.657a63.35 63.35 0 00.084-1.27zm-10.82-1.431c.144-.775.482-1.385 1.013-1.836.533-.45 1.195-.675 1.988-.675.794 0 1.457.225 1.988.675.531.45.87 1.061 1.015 1.836h-6.004z"/>
  <path fill="#0BB0B1" d="M16.328 0C7.311 0 0 7.298 0 16.299c0 5.738 2.97 10.783 7.46 13.686 1.7-3.15 5.032-5.29 8.868-5.29 3.837 0 7.17 2.14 8.87 5.29 4.488-2.905 7.46-7.95 7.46-13.686C32.657 7.298 25.347 0 16.327 0zM13.97 21.459c-3.54-1.02-6.13-4.273-6.13-8.134 0-.152.014-.3.023-.45h6.108v8.584h-.001zM9.576 8.216c1.55-2.04 3.99-3.366 6.752-3.366 2.763 0 5.204 1.326 6.753 3.366H9.576zm9.06 13.259v-8.601h6.16c.007.15.023.297.023.45 0 3.881-2.615 7.147-6.183 8.151z"/>
  <path fill="url(#paint6_linear)" d="M16.328 0C7.311 0 0 7.298 0 16.299c0 5.738 2.97 10.783 7.46 13.686 1.7-3.15 5.032-5.29 8.868-5.29 3.837 0 7.17 2.14 8.87 5.29 4.488-2.905 7.46-7.95 7.46-13.686C32.657 7.298 25.347 0 16.327 0zM13.97 21.459c-3.54-1.02-6.13-4.273-6.13-8.134 0-.152.014-.3.023-.45h6.108v8.584h-.001zM9.576 8.216c1.55-2.04 3.99-3.366 6.752-3.366 2.763 0 5.204 1.326 6.753 3.366H9.576zm9.06 13.259v-8.601h6.16c.007.15.023.297.023.45 0 3.881-2.615 7.147-6.183 8.151z"/>
  <path fill="#fff" d="M16.328 0C7.311 0 0 7.298 0 16.299c0 5.738 2.97 10.783 7.46 13.686 1.7-3.15 5.032-5.29 8.868-5.29 3.837 0 7.17 2.14 8.87 5.29 4.488-2.905 7.46-7.95 7.46-13.686C32.657 7.298 25.347 0 16.327 0zM13.97 21.459c-3.54-1.02-6.13-4.273-6.13-8.134 0-.152.014-.3.023-.45h6.108v8.584h-.001zM9.576 8.216c1.55-2.04 3.99-3.366 6.752-3.366 2.763 0 5.204 1.326 6.753 3.366H9.576zm9.06 13.259v-8.601h6.16c.007.15.023.297.023.45 0 3.881-2.615 7.147-6.183 8.151z"/>
  <defs>
    <linearGradient id="paint0_linear" x1="-67.45" x2="166.356" y1="26.351" y2="-11.563" gradientUnits="userSpaceOnUse">
      <stop offset=".104" stop-color="#9CF8B9" stop-opacity=".83"/>
      <stop offset="1" stop-color="#fff" stop-opacity="0"/>
    </linearGradient>
    <linearGradient id="paint1_linear" x1="-67.45" x2="166.356" y1="26.351" y2="-11.563" gradientUnits="userSpaceOnUse">
      <stop offset=".104" stop-color="#9CF8B9" stop-opacity=".83"/>
      <stop offset="1" stop-color="#fff" stop-opacity="0"/>
    </linearGradient>
    <linearGradient id="paint2_linear" x1="-67.45" x2="166.356" y1="26.351" y2="-11.563" gradientUnits="userSpaceOnUse">
      <stop offset=".104" stop-color="#9CF8B9" stop-opacity=".83"/>
      <stop offset="1" stop-color="#fff" stop-opacity="0"/>
    </linearGradient>
    <linearGradient id="paint3_linear" x1="-67.45" x2="166.356" y1="26.351" y2="-11.563" gradientUnits="userSpaceOnUse">
      <stop offset=".104" stop-color="#9CF8B9" stop-opacity=".83"/>
      <stop offset="1" stop-color="#fff" stop-opacity="0"/>
    </linearGradient>
    <linearGradient id="paint4_linear" x1="-67.45" x2="166.356" y1="26.351" y2="-11.563" gradientUnits="userSpaceOnUse">
      <stop offset=".104" stop-color="#9CF8B9" stop-opacity=".83"/>
      <stop offset="1" stop-color="#fff" stop-opacity="0"/>
    </linearGradient>
    <linearGradient id="paint5_linear" x1="-67.45" x2="166.356" y1="26.351" y2="-11.563" gradientUnits="userSpaceOnUse">
      <stop offset=".104" stop-color="#9CF8B9" stop-opacity=".83"/>
      <stop offset="1" stop-color="#fff" stop-opacity="0"/>
    </linearGradient>
    <linearGradient id="paint6_linear" x1="-67.45" x2="166.356" y1="26.351" y2="-11.563" gradientUnits="userSpaceOnUse">
      <stop offset=".104" stop-color="#9CF8B9" stop-opacity=".83"/>
      <stop offset="1" stop-color="#fff" stop-opacity="0"/>
    </linearGradient>
  </defs>
</svg>
