<?xml version="1.0" standalone="no"?>
<!DOCTYPE svg PUBLIC "-//W3C//DTD SVG 20010904//EN"
 "http://www.w3.org/TR/2001/REC-SVG-20010904/DTD/svg10.dtd">
<svg version="1.0" xmlns="http://www.w3.org/2000/svg"
 width="700.000000pt" height="700.000000pt" viewBox="0 0 700.000000 700.000000"
 preserveAspectRatio="xMidYMid meet">
<metadata>
Created by potrace 1.14, written by Peter Selinger 2001-2017
</metadata>
<g transform="translate(0.000000,700.000000) scale(0.100000,-0.100000)"
fill="#000000" stroke="none">
<path d="M3259 6726 c-2 -2 -42 -7 -89 -10 -47 -4 -110 -11 -140 -16 -30 -5
-75 -12 -100 -15 -25 -4 -97 -17 -160 -31 -1145 -245 -2092 -1050 -2525 -2144
-81 -206 -166 -504 -191 -667 -3 -21 -9 -65 -14 -98 -5 -33 -12 -82 -15 -110
-4 -27 -9 -61 -12 -75 -8 -37 -11 -650 -3 -655 4 -2 6 -25 5 -50 -1 -25 1 -45
5 -45 4 0 7 -24 6 -54 -1 -30 2 -52 6 -50 4 3 6 -9 4 -25 -2 -17 0 -31 4 -31
5 0 7 -13 6 -30 -1 -16 1 -30 4 -30 4 0 7 -13 8 -30 4 -60 6 -70 15 -70 5 0 3
-8 -4 -17 -12 -14 -12 -16 0 -8 11 6 13 2 9 -18 -3 -16 -1 -24 5 -20 6 4 8 -2
5 -15 -4 -12 -2 -20 2 -17 5 3 8 -7 6 -22 -1 -16 5 -37 13 -47 9 -11 11 -17 5
-13 -6 3 -11 0 -11 -8 0 -8 3 -14 6 -13 19 2 22 -4 10 -19 -10 -11 -10 -14 -2
-9 7 4 13 3 13 -3 0 -5 3 -17 7 -27 5 -13 3 -15 -8 -10 -9 5 -8 3 2 -6 19 -16
33 -61 16 -52 -7 3 -4 -1 5 -9 12 -9 14 -17 7 -24 -8 -8 -7 -13 2 -18 8 -6 10
-4 4 5 -5 9 -4 11 4 6 6 -4 10 -13 9 -19 -1 -7 3 -22 10 -34 8 -14 9 -24 2
-28 -5 -3 -10 -12 -10 -18 0 -9 2 -9 8 0 5 9 15 -4 29 -37 12 -28 18 -48 14
-46 -4 3 -7 -4 -7 -14 0 -13 4 -16 12 -9 8 6 13 3 17 -11 3 -13 1 -18 -6 -13
-7 3 -3 -4 8 -17 18 -21 18 -23 2 -17 -11 4 -16 3 -12 -3 3 -6 13 -10 20 -10
9 0 12 -6 8 -17 -4 -11 -3 -14 5 -9 7 4 12 2 12 -3 0 -6 -4 -11 -10 -11 -5 0
-10 -5 -10 -11 0 -6 6 -9 14 -6 18 7 30 -21 16 -38 -8 -10 -8 -15 1 -21 8 -5
9 -3 4 6 -5 8 -3 11 4 9 7 -3 24 -31 39 -64 14 -33 29 -62 33 -65 3 -3 12 -22
20 -42 7 -21 17 -38 22 -38 5 0 6 -12 3 -28 -4 -17 -3 -22 2 -14 9 13 30 -17
90 -128 7 -14 21 -34 30 -45 17 -19 17 -19 -12 -1 -16 10 -25 13 -22 7 4 -6
21 -18 37 -26 16 -9 27 -20 24 -25 -4 -6 -2 -10 3 -10 4 0 20 -17 34 -39 22
-33 23 -39 10 -48 -13 -8 -13 -11 -2 -18 9 -6 11 -4 5 4 -5 9 -2 12 10 9 10
-1 23 -12 29 -23 6 -11 15 -23 20 -27 6 -4 4 -14 -5 -25 -13 -16 -12 -17 3 -5
14 11 20 8 45 -25 15 -21 32 -40 36 -41 4 -2 2 -11 -5 -20 -11 -13 -11 -14 0
-8 8 5 22 -2 38 -19 15 -17 19 -25 10 -22 -9 4 -16 2 -16 -3 0 -6 8 -10 18
-10 11 0 35 -19 55 -42 19 -24 49 -58 66 -77 17 -19 28 -38 25 -42 -3 -5 2 -6
10 -3 9 3 16 1 16 -4 0 -6 -8 -13 -17 -15 -10 -2 -8 -3 5 -2 16 2 40 -15 81
-56 32 -32 56 -60 53 -63 -3 -4 2 -6 11 -6 15 0 21 -11 18 -32 0 -4 5 -5 12
-3 6 3 30 -13 52 -35 22 -21 46 -39 54 -40 7 0 11 -6 7 -15 -3 -9 3 -19 17
-26 19 -10 20 -10 12 2 -5 8 -3 7 7 -3 9 -10 21 -18 27 -18 7 0 14 -7 17 -15
3 -8 14 -17 24 -20 11 -3 18 -15 18 -31 0 -24 -1 -24 -19 -8 -15 14 -17 19 -7
26 9 5 10 8 1 8 -23 0 -22 -17 1 -39 23 -22 46 -15 31 9 -3 6 -1 10 4 10 6 0
11 -5 11 -11 0 -5 5 -7 10 -4 6 3 13 -1 16 -9 3 -9 13 -16 22 -16 8 0 13 -3 9
-6 -3 -3 13 -16 35 -28 23 -12 44 -28 46 -36 5 -13 3 -13 -11 -1 -10 7 -17 9
-17 3 0 -15 26 -22 38 -10 8 8 14 4 21 -15 6 -15 13 -27 17 -27 3 0 4 6 1 14
-4 10 1 13 19 11 19 -2 22 1 14 11 -8 9 -6 15 7 22 10 6 17 14 17 19 -3 14 14
51 26 58 6 4 16 18 21 32 8 22 11 24 27 12 15 -13 16 -12 3 4 -14 18 -12 21
24 63 6 7 35 46 65 87 30 41 58 75 62 74 3 -1 8 2 10 8 6 17 50 60 59 58 5 -2
8 0 7 5 -2 4 10 22 26 39 25 29 30 31 41 17 10 -14 13 -14 26 3 13 16 13 17
-3 4 -16 -12 -18 -11 -17 10 0 17 21 41 75 84 41 33 80 65 87 70 66 56 118 84
83 46 -20 -22 -3 -42 17 -22 9 9 7 10 -8 5 -19 -7 -19 -6 -4 12 9 10 19 27 23
38 5 15 9 16 21 6 17 -14 36 -5 29 14 -7 18 58 59 68 43 4 -7 8 -9 9 -4 1 4 3
12 4 17 1 6 3 13 4 18 1 4 6 0 11 -8 8 -13 10 -12 10 3 0 15 6 19 26 16 4 0
10 3 13 8 10 16 93 54 105 50 7 -3 23 1 37 9 13 7 20 13 16 14 -5 0 -17 -5
-28 -10 -11 -7 -19 -7 -19 -1 0 9 51 25 66 21 4 -1 10 3 14 10 4 6 13 12 21
13 8 2 20 6 27 11 7 4 19 2 27 -4 8 -7 15 -9 15 -4 0 4 7 -1 16 -12 14 -18 15
-18 4 4 -6 12 -15 20 -21 17 -5 -4 -9 -2 -9 3 0 5 17 14 38 21 20 7 44 14 52
17 8 3 4 -2 -10 -10 -14 -8 -19 -15 -12 -16 6 0 20 8 30 18 10 9 25 19 33 21
54 14 84 19 90 15 4 -2 9 0 11 5 3 9 58 22 103 25 16 1 19 -4 17 -24 -1 -19 0
-22 8 -10 5 8 7 22 5 31 -4 12 1 16 17 15 13 -1 29 3 37 8 12 9 13 7 7 -9 -16
-40 -17 -49 -4 -27 8 12 17 19 22 15 4 -4 4 0 0 10 -5 14 0 17 27 18 101 5
120 7 126 12 3 4 12 2 20 -4 7 -6 13 -7 13 -2 0 5 7 10 15 10 8 0 15 -7 15
-14 0 -8 -4 -12 -8 -9 -4 2 -14 0 -22 -5 -11 -7 -9 -8 9 -6 14 2 27 10 30 18
7 17 102 21 113 5 5 -8 8 -8 8 0 0 7 14 11 30 10 17 0 30 -6 30 -13 0 -21 18
-24 35 -6 14 14 18 14 26 2 5 -9 9 -10 9 -2 0 19 103 4 118 -18 7 -11 19 -19
25 -19 7 0 4 5 -5 11 -10 5 -18 15 -18 21 0 7 5 6 15 -2 8 -7 22 -10 30 -6 22
8 45 -3 38 -20 -3 -8 -9 -11 -14 -8 -5 3 -6 10 -3 16 4 7 2 8 -4 4 -12 -7 -5
-36 9 -36 4 0 13 9 20 21 8 15 16 19 32 14 12 -3 28 -7 35 -7 6 -1 12 -4 12
-7 0 -3 10 -7 23 -7 44 -3 62 -11 62 -27 0 -25 12 -30 36 -14 16 12 28 13 48
5 14 -5 34 -11 44 -13 43 -9 56 -17 50 -31 -3 -7 -1 -14 5 -14 6 0 12 5 14 10
2 7 15 6 38 -4 19 -8 38 -13 41 -13 4 1 16 -7 28 -17 12 -11 21 -16 21 -13 0
8 83 -34 91 -46 3 -5 10 -9 15 -9 35 -3 45 -12 40 -34 -7 -25 8 -42 20 -23 4
8 3 9 -4 5 -14 -9 -15 4 -2 24 7 11 10 11 10 2 0 -7 4 -11 9 -8 5 3 14 -1 21
-9 7 -8 16 -15 21 -15 9 0 87 -48 99 -60 3 -3 31 -23 63 -45 32 -21 76 -55 98
-75 21 -21 39 -35 39 -34 0 2 20 -15 45 -38 24 -23 42 -45 38 -51 -3 -5 0 -8
7 -5 7 2 34 -19 59 -47 25 -27 58 -62 73 -77 14 -14 23 -29 20 -33 -13 -13
-10 -33 5 -28 12 5 12 7 1 14 -10 7 -10 9 0 9 7 0 16 -8 19 -17 4 -10 16 -24
27 -32 19 -14 19 -15 0 -22 -18 -7 -18 -8 2 -8 12 -1 28 -9 35 -18 8 -9 9 -14
3 -10 -7 4 -14 0 -18 -8 -3 -8 0 -17 6 -21 7 -5 8 -2 3 5 -5 9 -2 12 11 9 11
-2 23 -13 29 -26 5 -12 13 -22 17 -22 5 0 8 -9 8 -21 0 -11 4 -18 8 -15 11 7
55 -71 47 -83 -3 -5 0 -13 6 -17 8 -4 9 -3 5 4 -4 7 -5 12 -2 12 2 0 14 -16
26 -35 12 -19 26 -33 31 -30 5 4 6 -2 2 -11 -4 -12 -3 -15 5 -10 7 4 12 14 12
22 0 8 5 14 11 14 5 0 7 -5 3 -12 -4 -7 -3 -8 4 -4 6 4 9 13 5 21 -4 12 10 21
20 13 1 -2 18 12 37 29 30 28 36 30 41 16 4 -14 7 -12 12 9 4 15 16 30 27 33
11 3 20 11 20 17 0 6 3 8 7 5 3 -4 13 3 21 15 15 20 16 20 30 2 13 -18 14 -18
7 4 -7 26 16 51 47 52 9 0 20 4 23 10 3 6 -1 7 -12 4 -15 -4 -14 -3 2 7 11 7
26 20 33 28 11 13 12 13 6 1 -3 -8 6 0 22 18 21 24 34 31 46 27 10 -4 15 -12
11 -18 -4 -6 -1 -7 7 -2 10 6 9 11 -4 20 -16 12 -15 15 7 39 22 24 24 24 43 8
10 -9 13 -10 6 -2 -15 17 -16 40 -2 40 5 0 9 -5 7 -11 -1 -6 5 -14 13 -16 9
-3 11 -1 5 4 -6 4 -10 14 -9 21 1 6 2 17 3 22 0 6 6 10 12 10 6 0 8 -9 3 -22
-3 -13 -3 -20 1 -15 5 4 9 16 10 27 1 19 99 130 115 130 5 0 12 5 16 12 5 7 2
9 -7 3 -8 -4 0 6 16 22 17 17 55 61 85 99 30 37 67 81 82 96 14 15 23 28 20
28 -4 0 1 5 11 11 9 6 15 14 13 18 -3 5 6 19 19 31 14 13 25 29 25 36 0 7 3
14 8 16 10 4 45 55 66 96 9 18 21 30 25 27 5 -2 12 7 16 22 8 34 43 83 58 83
7 0 3 -7 -7 -15 -11 -8 -15 -15 -9 -15 13 0 26 18 29 38 1 6 -2 10 -7 6 -5 -3
-9 -1 -9 4 0 6 7 13 16 16 9 4 14 9 11 13 -9 8 12 45 22 39 5 -3 8 2 8 12 -1
22 34 92 45 92 5 0 6 5 3 10 -3 5 -1 10 4 10 6 0 10 3 10 8 -3 20 2 32 15 32
8 0 18 4 21 10 3 5 0 7 -9 4 -12 -5 -11 2 5 35 13 27 24 39 32 35 9 -5 9 -4 0
6 -14 15 4 63 20 53 6 -4 8 0 5 9 -8 20 29 101 42 93 5 -3 10 -1 10 4 0 6 -4
11 -10 11 -18 0 -11 17 13 29 12 6 14 9 5 7 -14 -4 -15 -1 -6 25 5 16 14 27
18 24 4 -3 6 4 3 15 -3 12 0 20 6 20 7 0 10 4 7 9 -7 10 16 71 26 71 4 0 4 7
1 17 -5 12 -3 14 8 8 11 -6 11 -5 3 4 -13 14 -7 51 7 51 5 0 5 7 2 17 -4 10
-2 14 4 10 7 -5 9 1 5 15 -3 14 -1 19 6 14 7 -4 9 3 6 21 -4 19 0 31 12 40 11
8 13 13 5 13 -7 0 -9 5 -4 12 4 7 9 24 11 38 2 13 9 28 15 32 9 5 8 8 -3 8 -9
0 -11 3 -5 8 6 4 11 20 12 36 1 16 5 37 9 45 4 9 8 32 11 51 6 55 11 85 13 85
2 0 7 36 14 100 2 22 5 40 5 40 8 0 15 188 15 400 1 298 -8 424 -44 625 -6 30
-13 69 -16 85 -13 74 -69 290 -101 390 -67 211 -187 484 -291 664 -483 841
-1282 1446 -2206 1670 -161 40 -299 65 -411 76 -33 4 -71 9 -85 12 -29 6 -575
14 -581 9z m201 -1056 c0 -5 -7 -7 -15 -4 -8 4 -12 10 -9 15 6 11 24 2 24 -11z
m47 5 c15 15 33 12 33 -5 0 -5 -8 -7 -17 -4 -15 5 -16 4 -3 -5 11 -8 19 -6 30
10 9 11 19 17 23 13 4 -4 44 -9 89 -11 45 -2 85 -8 88 -14 4 -5 13 -7 21 -4
24 9 112 -12 121 -30 7 -12 13 -13 22 -6 17 14 73 3 80 -15 3 -8 11 -14 18
-14 9 0 9 3 -2 11 -12 8 -11 9 5 7 14 -3 19 -10 17 -23 -3 -20 -3 -20 12 0 14
19 15 19 22 2 4 -10 10 -14 13 -9 4 6 21 3 45 -9 22 -10 44 -19 49 -19 5 0 51
-20 103 -45 78 -38 97 -52 111 -80 9 -19 20 -35 25 -35 5 0 1 11 -8 25 -9 14
-14 28 -11 31 3 3 10 -4 16 -15 7 -12 17 -18 26 -15 8 4 18 -1 21 -10 3 -9 13
-16 21 -16 18 0 44 -25 36 -34 -4 -3 3 -6 15 -6 12 0 22 -4 22 -10 0 -5 6 -10
14 -10 8 0 17 -7 20 -16 3 -8 10 -12 16 -9 5 3 10 3 10 -2 0 -4 16 -19 36 -32
21 -15 33 -30 30 -38 -4 -8 -1 -11 5 -8 6 4 17 -1 24 -11 8 -11 15 -16 15 -11
0 4 12 -7 28 -24 15 -18 44 -48 65 -67 20 -19 37 -42 37 -49 0 -8 5 -11 10 -8
6 3 10 3 10 -2 0 -4 14 -23 31 -40 16 -18 26 -33 22 -33 -4 0 -1 -5 7 -10 13
-8 12 -10 -2 -10 -10 0 -18 6 -19 13 0 10 -2 10 -6 0 -4 -10 -294 -13 -1404
-13 -862 0 -1398 4 -1394 9 3 5 1 13 -5 16 -6 4 -9 1 -8 -6 2 -7 -6 -14 -17
-16 -16 -3 -17 -2 -5 6 8 6 11 11 7 11 -4 0 1 9 11 20 13 14 25 18 38 14 18
-6 18 -6 -1 10 -16 14 -17 17 -3 12 11 -3 15 -1 12 7 -5 15 41 59 52 49 3 -4
5 0 2 8 -6 18 82 102 100 95 7 -3 10 0 7 6 -4 5 5 21 19 34 14 13 26 21 26 18
0 -3 8 4 19 15 10 12 24 22 30 22 7 0 9 5 5 13 -4 6 -4 9 0 5 4 -3 17 3 28 14
11 11 26 17 35 14 11 -4 13 -2 9 9 -3 9 0 15 9 15 8 0 15 5 15 11 0 5 4 8 9 5
5 -4 11 -3 13 2 1 4 18 19 37 32 19 13 31 17 26 9 -5 -7 4 -2 20 14 15 15 33
27 40 27 17 0 37 -25 27 -35 -4 -5 -1 -5 6 -1 11 7 10 11 -2 25 -9 10 -13 21
-9 24 3 4 13 -2 20 -13 14 -20 39 -19 27 1 -3 5 -10 7 -15 4 -5 -4 -9 0 -9 7
0 17 87 61 92 47 2 -7 12 -6 28 1 23 9 23 10 3 6 -13 -2 -23 0 -23 5 0 8 22
13 43 10 4 0 7 4 7 10 0 5 4 8 9 4 5 -3 13 -1 16 5 5 8 11 7 21 -1 8 -6 17 -9
21 -5 3 3 1 6 -5 6 -7 0 -12 5 -12 11 0 5 4 8 9 4 5 -3 12 -1 16 5 9 15 37 12
30 -2 -4 -7 1 -4 9 6 9 11 16 16 16 12 0 -5 7 -3 15 4 8 7 15 9 15 4 0 -5 4
-4 8 2 10 15 104 35 99 20 -3 -6 -10 -10 -17 -8 -7 1 -18 -2 -25 -8 -7 -6 -21
-8 -31 -4 -18 5 -18 5 -1 -6 14 -9 21 -9 32 0 8 6 19 9 24 6 6 -4 18 5 27 19
l17 26 11 -22 c6 -13 21 -23 35 -24 22 -2 23 -1 6 11 -10 7 -22 11 -26 8 -5
-3 -9 2 -9 10 0 19 11 20 29 4 11 -10 13 -10 7 0 -4 6 -4 12 1 13 4 0 17 2 28
5 73 15 107 16 116 3 7 -11 9 -11 9 4 0 22 45 24 54 2 6 -17 26 -20 26 -4 0 5
-4 7 -10 4 -5 -3 -10 -1 -10 4 0 15 17 14 45 -5 22 -14 24 -14 36 8 11 20 14
20 17 6 3 -16 5 -16 19 -3z m-1777 -1734 c0 11 17 14 80 14 44 0 80 -1 80 -3
0 -2 -5 -13 -11 -24 -7 -12 -7 -18 -1 -14 6 3 12 1 14 -6 3 -7 7 -5 11 6 4 10
3 15 -3 11 -13 -8 -13 5 0 25 6 9 10 10 10 3 0 -8 9 -9 30 -3 33 10 35 8 19
-22 -7 -12 -7 -18 -1 -14 6 3 12 1 14 -6 3 -7 7 -5 11 6 4 10 3 15 -3 11 -13
-8 -13 5 0 25 6 9 10 10 10 3 0 -8 9 -9 30 -3 33 10 35 8 19 -22 -7 -12 -7
-18 -1 -14 6 3 12 1 14 -6 3 -7 7 -5 11 6 4 10 3 15 -3 11 -6 -3 -10 -3 -10 2
0 12 20 40 20 28 0 -6 19 -9 46 -6 37 2 45 0 40 -10 -4 -8 -1 -6 7 3 10 13 16
15 25 6 9 -9 12 -9 13 2 0 9 4 7 8 -5 9 -22 -9 -41 -21 -22 -4 6 -10 8 -15 4
-13 -14 20 -26 39 -16 13 7 17 17 13 32 -6 21 -6 22 9 3 12 -15 16 -16 16 -5
0 11 11 13 45 11 30 -3 43 -8 39 -16 -3 -6 0 -4 8 4 8 9 31 15 61 15 26 0 47
-1 47 -3 0 -2 -5 -13 -11 -24 -7 -12 -7 -18 -1 -14 6 3 12 1 14 -6 3 -7 7 -5
11 6 4 10 3 15 -3 11 -12 -7 -12 -3 -3 20 5 15 8 14 19 -6 7 -13 13 -18 14
-11 0 7 5 10 12 6 7 -4 8 -3 4 5 -4 6 -13 8 -19 5 -7 -4 -9 -3 -4 1 7 9 47 15
47 8 0 -3 -5 -14 -11 -25 -7 -12 -7 -18 -1 -14 6 3 12 1 14 -6 3 -7 7 -5 11 6
4 10 3 15 -3 11 -6 -3 -10 -3 -10 2 0 12 20 40 20 28 0 -6 19 -9 46 -6 37 2
45 0 40 -10 -4 -8 -1 -7 6 2 12 15 16 15 33 3 17 -13 21 -13 33 3 12 16 13 15
9 -12 -4 -26 -1 -31 17 -32 18 -2 19 -1 4 8 -9 5 -14 17 -12 27 4 14 13 17 47
14 23 -3 48 -9 55 -15 9 -7 11 -6 7 4 -4 10 3 14 25 14 16 0 30 -3 30 -7 0 -5
-5 -8 -11 -8 -5 0 -7 -5 -3 -11 4 -8 12 -3 20 12 7 13 13 19 14 12 0 -8 9 -9
30 -3 18 5 30 5 30 -1 0 -5 -4 -9 -10 -9 -5 0 -10 -4 -10 -10 0 -18 17 -10 28
13 9 19 11 13 12 -38 4 -174 2 -1787 -2 -1791 -9 -8 -179 56 -283 106 -416
202 -746 565 -908 1000 -42 113 -73 232 -93 353 -18 109 -25 333 -12 367 9 24
10 24 24 6 10 -14 14 -16 14 -5z m2321 -5 c1 5 5 -2 10 -16 7 -21 8 -20 4 10
-4 33 -4 34 10 16 13 -18 15 -18 15 -3 0 15 4 16 20 7 13 -7 20 -7 20 -1 0 6
7 8 15 5 14 -6 13 -8 -2 -20 -17 -13 -17 -14 1 -7 12 4 17 3 13 -4 -3 -5 -1
-10 6 -10 7 0 21 -4 32 -7 11 -4 8 0 -7 8 -30 18 -29 42 2 42 22 0 27 -12 8
-19 -7 -2 -6 -3 4 -2 9 2 18 -5 21 -14 2 -9 15 -17 28 -18 18 -2 20 0 9 7 -8
5 -18 6 -22 4 -4 -3 -8 -1 -8 5 0 5 -3 18 -6 28 -5 16 -4 16 10 -1 14 -18 16
-18 16 -3 0 15 4 16 20 7 11 -6 20 -7 20 -3 0 5 17 8 38 7 20 -1 45 -3 55 -3
10 -1 15 -5 12 -11 -3 -5 -1 -10 4 -10 6 0 11 7 11 15 0 13 4 14 20 5 11 -6
20 -7 20 -2 0 5 11 7 25 4 14 -2 22 -8 20 -13 -3 -4 -12 -6 -19 -3 -8 3 -17 1
-21 -5 -4 -7 0 -8 11 -4 13 5 15 3 10 -8 -4 -8 3 -3 16 11 23 25 29 26 126 21
13 0 20 -5 17 -11 -3 -5 -1 -10 4 -10 6 0 11 7 11 15 0 13 4 14 20 5 11 -6 20
-7 20 -2 0 12 69 7 82 -6 7 -7 16 -8 23 -2 6 5 39 10 73 12 52 3 61 1 57 -12
-2 -8 -1 -21 4 -28 7 -11 9 -10 14 3 4 9 3 13 -3 10 -13 -8 -13 5 0 25 5 8 10
10 10 5 0 -6 9 -11 20 -11 11 0 20 3 20 6 0 3 24 4 53 4 83 -3 81 -2 67 -19
-6 -8 -10 -20 -7 -27 4 -8 6 -7 6 5 1 9 6 17 11 17 6 0 10 6 10 13 0 16 103
15 123 -1 7 -7 17 -8 22 -4 4 4 5 -4 1 -18 -5 -19 -2 -16 13 10 l20 35 2 -40
c8 -162 -1 -290 -31 -437 -82 -402 -301 -764 -635 -1047 -71 -60 -258 -177
-355 -224 -105 -50 -267 -110 -284 -104 -6 2 -10 302 -10 919 -1 504 2 914 7
911 4 -2 7 1 7 8 0 7 8 5 20 -6 11 -10 20 -14 21 -9z m-419 -2548 c-7 -7 -12
-8 -12 -2 0 14 12 26 19 19 2 -3 -1 -11 -7 -17z m456 -70 c-2 -6 -10 -14 -16
-16 -7 -2 -10 2 -6 12 7 18 28 22 22 4z m-1753 -268 c3 -5 1 -10 -4 -10 -6 0
-11 5 -11 10 0 6 2 10 4 10 3 0 8 -4 11 -10z"/>
<path d="M3553 5652 c-9 -15 -7 -18 13 -18 19 0 21 3 11 16 -6 8 -12 16 -12
17 0 1 -6 -6 -12 -15z"/>
<path d="M3600 5659 c-12 -9 -12 -10 4 -5 13 4 17 2 13 -7 -3 -8 1 -14 8 -14
10 0 11 5 4 19 -11 21 -10 21 -29 7z"/>
<path d="M3296 5645 c-9 -26 -7 -32 5 -12 6 10 9 21 6 23 -2 3 -7 -2 -11 -11z"/>
<path d="M3653 5643 c0 -11 7 -20 14 -20 10 0 10 4 1 16 -7 9 -13 18 -15 20
-1 2 -1 -5 0 -16z"/>
<path d="M3699 5653 c0 -5 -2 -16 -4 -26 -2 -11 -1 -16 3 -13 8 8 14 46 7 46
-3 0 -5 -3 -6 -7z"/>
<path d="M3726 5645 c-3 -8 -1 -15 4 -15 6 0 10 7 10 15 0 8 -2 15 -4 15 -2 0
-6 -7 -10 -15z"/>
<path d="M3216 5642 c-2 -4 -1 -14 3 -21 6 -10 10 -9 14 3 6 16 -8 32 -17 18z"/>
<path d="M3336 5642 c-2 -4 0 -14 6 -22 8 -12 9 -11 4 4 -5 15 -2 18 19 14 13
-3 22 -1 19 3 -7 11 -41 12 -48 1z"/>
<path d="M3420 5639 c0 -5 5 -7 10 -4 6 3 10 8 10 11 0 2 -4 4 -10 4 -5 0 -10
-5 -10 -11z"/>
<path d="M3470 5639 c0 -5 5 -7 10 -4 6 3 10 8 10 11 0 2 -4 4 -10 4 -5 0 -10
-5 -10 -11z"/>
<path d="M3500 5646 c0 -2 7 -7 16 -10 8 -3 12 -2 9 4 -6 10 -25 14 -25 6z"/>
<path d="M3780 5638 c0 -4 4 -8 9 -8 6 0 12 4 15 8 3 5 -1 9 -9 9 -8 0 -15 -4
-15 -9z"/>
<path d="M3190 5631 c0 -6 4 -13 10 -16 6 -3 7 1 4 9 -7 18 -14 21 -14 7z"/>
<path d="M3815 5630 c-3 -5 9 -16 27 -25 29 -14 30 -14 14 0 -11 8 -24 15 -29
15 -4 0 -5 5 -2 10 3 6 4 10 1 10 -3 0 -7 -4 -11 -10z"/>
<path d="M3750 5620 c0 -5 5 -10 10 -10 6 0 10 5 10 10 0 6 -4 10 -10 10 -5 0
-10 -4 -10 -10z"/>
<path d="M3870 5625 c0 -5 5 -17 10 -25 5 -8 10 -10 10 -5 0 6 -5 17 -10 25
-5 8 -10 11 -10 5z"/>
<path d="M3110 5600 c0 -5 5 -10 10 -10 6 0 10 5 10 10 0 6 -4 10 -10 10 -5 0
-10 -4 -10 -10z"/>
<path d="M3957 5593 c5 -12 3 -14 -7 -8 -8 5 -11 4 -7 -3 8 -12 32 -10 44 3 4
4 2 5 -4 1 -8 -4 -13 -1 -13 8 0 9 -4 16 -10 16 -5 0 -6 -7 -3 -17z"/>
<path d="M3910 5590 c0 -5 5 -10 10 -10 6 0 10 5 10 10 0 6 -4 10 -10 10 -5 0
-10 -4 -10 -10z"/>
<path d="M2973 5572 c-3 -7 -3 -16 1 -19 3 -4 6 0 6 8 0 8 9 15 20 16 13 1 18
-2 14 -9 -4 -7 -2 -8 5 -4 6 4 9 11 6 16 -8 13 -47 7 -52 -8z"/>
<path d="M3055 5580 c-3 -6 1 -7 9 -4 18 7 21 14 7 14 -6 0 -13 -4 -16 -10z"/>
<path d="M4053 5562 c1 -12 6 -18 15 -15 7 3 10 9 5 12 -4 3 -11 10 -15 15 -4
4 -6 -1 -5 -12z"/>
<path d="M3990 5566 c0 -2 9 -6 20 -9 11 -3 18 -1 14 4 -5 9 -34 13 -34 5z"/>
<path d="M4102 5556 c7 -8 15 -12 17 -11 5 6 -10 25 -20 25 -5 0 -4 -6 3 -14z"/>
<path d="M2930 5550 c0 -5 5 -10 11 -10 5 0 7 5 4 10 -3 6 -8 10 -11 10 -2 0
-4 -4 -4 -10z"/>
<path d="M2854 5535 c-4 -8 -11 -12 -18 -8 -6 3 -7 2 -3 -2 14 -16 36 -14 30
3 -5 11 -3 13 7 7 9 -5 11 -4 6 3 -10 16 -15 15 -22 -3z"/>
<path d="M4090 5541 c0 -6 4 -13 10 -16 6 -3 7 1 4 9 -7 18 -14 21 -14 7z"/>
<path d="M4133 5531 c4 -28 12 -34 14 -11 1 11 -2 22 -8 25 -5 4 -8 -3 -6 -14z"/>
<path d="M4165 5530 c-3 -6 1 -7 9 -4 18 7 21 14 7 14 -6 0 -13 -4 -16 -10z"/>
<path d="M4180 5515 c0 -8 29 -12 39 -5 9 5 4 8 -13 8 -14 0 -26 -2 -26 -3z"/>
<path d="M2734 5495 c-3 -8 -10 -12 -15 -9 -5 3 -9 1 -9 -4 0 -11 30 -25 38
-17 3 3 0 5 -6 5 -6 0 -9 7 -6 15 5 11 11 12 25 4 10 -5 19 -7 19 -5 0 3 -9
10 -20 16 -16 9 -22 8 -26 -5z"/>
<path d="M2810 5499 c0 -5 5 -7 10 -4 6 3 10 8 10 11 0 2 -4 4 -10 4 -5 0 -10
-5 -10 -11z"/>
<path d="M4235 5499 c-4 -6 -5 -12 -2 -15 2 -3 7 2 10 11 7 17 1 20 -8 4z"/>
<path d="M4262 5491 c-11 -6 -10 -10 4 -15 9 -4 22 -2 28 4 8 8 6 9 -8 4 -13
-5 -17 -4 -12 4 8 14 6 15 -12 3z"/>
<path d="M4308 5463 c7 -3 16 -2 19 1 4 3 -2 6 -13 5 -11 0 -14 -3 -6 -6z"/>
<path d="M2620 5440 c0 -6 7 -10 15 -10 8 0 15 2 15 4 0 2 -7 6 -15 10 -8 3
-15 1 -15 -4z"/>
<path d="M4343 5439 c9 -6 14 -15 11 -21 -4 -7 -2 -8 5 -4 14 9 -3 36 -23 36
-6 0 -3 -5 7 -11z"/>
<path d="M2597 5415 c-4 -8 -3 -16 1 -19 4 -3 9 4 9 15 2 23 -3 25 -10 4z"/>
<path d="M2552 5391 c-10 -6 -9 -10 7 -14 12 -3 24 0 28 5 3 6 1 8 -5 4 -5 -3
-12 -2 -14 4 -2 5 -9 6 -16 1z"/>
<path d="M4430 5379 c0 -5 5 -7 10 -4 6 3 10 -1 10 -9 0 -9 5 -16 10 -16 7 0
7 6 0 20 -11 21 -30 27 -30 9z"/>
<path d="M2517 5365 c-4 -8 -3 -16 1 -19 4 -3 9 4 9 15 2 23 -3 25 -10 4z"/>
<path d="M4475 5370 c3 -5 8 -10 11 -10 2 0 4 5 4 10 0 6 -5 10 -11 10 -5 0
-7 -4 -4 -10z"/>
<path d="M2494 5342 c3 -5 0 -13 -6 -15 -9 -4 -10 -6 -1 -6 17 -1 25 16 12 25
-7 4 -9 3 -5 -4z"/>
<path d="M4484 5339 c-4 -7 -3 -9 4 -5 5 3 13 0 15 -6 4 -9 6 -10 6 -1 1 17
-16 25 -25 12z"/>
<path d="M4526 5325 c-3 -8 -1 -15 4 -15 6 0 10 7 10 15 0 8 -2 15 -4 15 -2 0
-6 -7 -10 -15z"/>
<path d="M2437 5323 c-11 -11 -8 -21 9 -27 13 -5 14 -4 6 7 -7 8 -9 17 -5 20
3 4 4 7 1 7 -2 0 -8 -3 -11 -7z"/>
<path d="M4550 5300 c0 -5 5 -10 10 -10 6 0 10 5 10 10 0 6 -4 10 -10 10 -5 0
-10 -4 -10 -10z"/>
<path d="M2396 5275 c-11 -8 -15 -15 -9 -15 7 0 15 5 18 10 4 6 11 8 16 5 5
-4 9 -1 9 4 0 15 -11 13 -34 -4z"/>
<path d="M4575 5281 c-3 -5 0 -13 6 -17 8 -5 9 -3 4 6 -6 10 -4 12 8 7 10 -3
17 -2 17 3 0 13 -27 13 -35 1z"/>
<path d="M4616 5261 c-3 -5 2 -15 12 -22 15 -13 16 -12 4 3 -10 13 -10 17 0
21 9 4 9 6 1 6 -6 1 -14 -3 -17 -8z"/>
<path d="M2357 5246 c-4 -10 -12 -14 -18 -10 -8 4 -9 3 -5 -4 4 -7 2 -12 -5
-12 -7 0 -9 -3 -6 -7 4 -3 16 2 28 13 12 10 24 18 28 17 3 -1 8 1 11 4 3 4 0
3 -7 0 -6 -4 -13 -2 -15 5 -3 7 -7 5 -11 -6z"/>
<path d="M4650 5235 c0 -8 2 -15 4 -15 2 0 6 7 10 15 3 8 1 15 -4 15 -6 0 -10
-7 -10 -15z"/>
<path d="M4660 5206 c0 -2 7 -6 15 -10 8 -3 15 -1 15 4 0 6 -7 10 -15 10 -8 0
-15 -2 -15 -4z"/>
<path d="M2277 5179 c7 -7 15 -10 18 -7 3 3 -2 9 -12 12 -14 6 -15 5 -6 -5z"/>
<path d="M4695 5181 c-3 -5 0 -13 6 -17 7 -4 9 -3 5 4 -3 6 2 13 11 15 16 4
16 5 1 6 -9 0 -19 -3 -23 -8z"/>
<path d="M2250 5166 c0 -2 7 -7 16 -10 8 -3 12 -2 9 4 -6 10 -25 14 -25 6z"/>
<path d="M4730 5160 c0 -5 5 -10 10 -10 6 0 10 5 10 10 0 6 -4 10 -10 10 -5 0
-10 -4 -10 -10z"/>
<path d="M2228 5139 c-20 -11 -24 -29 -7 -29 5 0 7 5 3 12 -5 8 -2 9 10 5 9
-4 15 -3 11 2 -3 5 1 12 7 14 7 3 9 6 3 6 -5 0 -18 -4 -27 -10z"/>
<path d="M4756 5125 c4 -8 8 -15 10 -15 2 0 4 7 4 15 0 8 -4 15 -10 15 -5 0
-7 -7 -4 -15z"/>
<path d="M2196 5085 c-3 -9 -11 -13 -17 -9 -8 5 -9 3 -4 -5 6 -10 11 -9 23 3
9 8 13 18 10 21 -3 3 -8 -1 -12 -10z"/>
<path d="M4800 5091 c0 -6 4 -13 10 -16 6 -3 7 1 4 9 -7 18 -14 21 -14 7z"/>
<path d="M4826 5063 c-6 -14 -5 -15 5 -6 7 7 10 15 7 18 -3 3 -9 -2 -12 -12z"/>
<path d="M2146 5062 c-3 -5 1 -9 9 -9 8 0 12 4 9 9 -3 4 -7 8 -9 8 -2 0 -6 -4
-9 -8z"/>
<path d="M4870 5024 c0 -13 18 -39 24 -34 2 3 -2 14 -10 24 -8 11 -14 16 -14
10z"/>
<path d="M1805 3939 c-4 -6 -5 -12 -2 -15 2 -3 7 2 10 11 7 17 1 20 -8 4z"/>
<path d="M2377 3943 c-4 -3 -7 -11 -7 -17 0 -6 5 -5 12 2 6 6 9 14 7 17 -3 3
-9 2 -12 -2z"/>
<path d="M1696 3925 c-3 -8 -1 -15 4 -15 6 0 10 7 10 15 0 8 -2 15 -4 15 -2 0
-6 -7 -10 -15z"/>
<path d="M2005 3930 c-3 -6 1 -7 9 -4 18 7 21 14 7 14 -6 0 -13 -4 -16 -10z"/>
<path d="M2133 3923 c0 -11 7 -20 14 -20 10 0 10 4 1 16 -7 9 -13 18 -15 20
-1 2 -1 -5 0 -16z"/>
<path d="M2613 3923 c0 -11 7 -20 14 -20 10 0 10 4 1 16 -7 9 -13 18 -15 20
-1 2 -1 -5 0 -16z"/>
<path d="M2788 3933 c6 -2 10 -9 7 -14 -4 -5 1 -6 10 -2 13 5 14 7 3 14 -7 5
-17 8 -23 8 -5 0 -4 -3 3 -6z"/>
<path d="M2853 3923 c0 -11 7 -20 14 -20 10 0 10 4 1 16 -7 9 -13 18 -15 20
-1 2 -1 -5 0 -16z"/>
<path d="M1736 3922 c-2 -4 0 -14 6 -22 8 -12 9 -11 4 3 -5 15 -2 17 17 12 17
-5 19 -4 7 4 -18 13 -27 14 -34 3z"/>
<path d="M1820 3922 c0 -6 9 -12 20 -15 11 -3 20 -3 20 -1 0 2 -9 8 -20 14
-11 6 -20 7 -20 2z"/>
<path d="M2268 3923 c7 -3 16 -2 19 1 4 3 -2 6 -13 5 -11 0 -14 -3 -6 -6z"/>
<path d="M2351 3914 c0 -11 3 -14 6 -6 3 7 2 16 -1 19 -3 4 -6 -2 -5 -13z"/>
<path d="M2650 3921 c0 -14 26 -20 41 -9 11 8 10 9 -3 4 -10 -3 -18 -1 -18 4
0 6 -4 10 -10 10 -5 0 -10 -4 -10 -9z"/>
<path d="M2748 3923 c7 -3 16 -2 19 1 4 3 -2 6 -13 5 -11 0 -14 -3 -6 -6z"/>
<path d="M2896 3915 c-3 -8 -1 -15 4 -15 6 0 10 7 10 15 0 8 -2 15 -4 15 -2 0
-6 -7 -10 -15z"/>
<path d="M2925 3921 c-6 -11 13 -26 22 -17 4 3 1 6 -6 6 -7 0 -9 5 -6 10 3 6
4 10 1 10 -3 0 -7 -4 -11 -9z"/>
<path d="M1916 3912 c-3 -5 1 -9 9 -9 8 0 12 4 9 9 -3 4 -7 8 -9 8 -2 0 -6 -4
-9 -8z"/>
<path d="M2236 3912 c-3 -4 4 -9 15 -9 23 -2 25 3 4 10 -8 4 -16 3 -19 -1z"/>
<path d="M2315 3910 c3 -5 8 -10 11 -10 2 0 4 5 4 10 0 6 -5 10 -11 10 -5 0
-7 -4 -4 -10z"/>
<path d="M2390 3912 c0 -5 7 -9 15 -9 8 0 12 4 9 9 -3 4 -9 8 -15 8 -5 0 -9
-4 -9 -8z"/>
<path d="M1996 3898 c3 -5 10 -6 15 -3 13 9 11 12 -6 12 -8 0 -12 -4 -9 -9z"/>
<path d="M2476 3898 c3 -5 10 -6 15 -3 13 9 11 12 -6 12 -8 0 -12 -4 -9 -9z"/>
<path d="M4539 3947 c-1 -1 -3 -12 -4 -23 -2 -21 16 -27 32 -10 4 4 2 6 -6 4
-7 -1 -16 3 -18 10 -4 9 1 10 22 2 14 -5 24 -6 21 -1 -5 7 -44 22 -47 18z"/>
<path d="M4709 3938 c-11 -8 -11 -9 3 -5 19 7 42 -15 30 -29 -4 -4 1 -2 11 5
18 14 24 26 7 16 -5 -3 -10 -2 -10 3 0 15 -25 21 -41 10z"/>
<path d="M4860 3940 c-9 -6 -10 -10 -3 -10 6 0 15 5 18 10 8 12 4 12 -15 0z"/>
<path d="M5076 3938 c3 -5 10 -6 15 -3 13 9 11 12 -6 12 -8 0 -12 -4 -9 -9z"/>
<path d="M5176 3938 c3 -5 11 -8 17 -7 27 3 37 -2 37 -18 0 -15 2 -16 10 -3 6
10 4 17 -6 23 -22 12 -65 16 -58 5z"/>
<path d="M4296 3931 c-3 -4 6 -6 19 -3 14 2 25 6 25 8 0 8 -39 4 -44 -5z"/>
<path d="M5013 3922 c0 -11 6 -19 12 -18 17 3 51 25 38 26 -6 0 -15 -5 -19
-12 -5 -8 -11 -6 -20 7 -12 16 -13 16 -11 -3z"/>
<path d="M4005 3920 c-3 -6 1 -7 9 -4 18 7 21 14 7 14 -6 0 -13 -4 -16 -10z"/>
<path d="M4358 3923 c7 -3 16 -2 19 1 4 3 -2 6 -13 5 -11 0 -14 -3 -6 -6z"/>
<path d="M4511 3914 c0 -11 3 -14 6 -6 3 7 2 16 -1 19 -3 4 -6 -2 -5 -13z"/>
<path d="M4610 3923 c5 -2 8 -9 4 -14 -3 -5 0 -9 6 -9 15 0 7 23 -8 26 -7 1
-8 0 -2 -3z"/>
<path d="M4668 3923 c7 -3 16 -2 19 1 4 3 -2 6 -13 5 -11 0 -14 -3 -6 -6z"/>
<path d="M4810 3921 c0 -7 -4 -9 -10 -6 -5 3 -10 1 -10 -4 0 -6 4 -11 9 -11
13 0 25 20 17 27 -3 4 -6 1 -6 -6z"/>
<path d="M4991 3914 c0 -11 3 -14 6 -6 3 7 2 16 -1 19 -3 4 -6 -2 -5 -13z"/>
<path d="M5148 3923 c7 -3 16 -2 19 1 4 3 -2 6 -13 5 -11 0 -14 -3 -6 -6z"/>
<path d="M4087 3909 c7 -7 15 -10 18 -7 3 3 -2 9 -12 12 -14 6 -15 5 -6 -5z"/>
<path d="M4400 3910 c8 -5 20 -10 25 -10 6 0 3 5 -5 10 -8 5 -19 10 -25 10 -5
0 -3 -5 5 -10z"/>
<path d="M4647 3909 c7 -7 15 -10 18 -7 3 3 -2 9 -12 12 -14 6 -15 5 -6 -5z"/>
<path d="M4715 3910 c3 -5 8 -10 11 -10 2 0 4 5 4 10 0 6 -5 10 -11 10 -5 0
-7 -4 -4 -10z"/>
<path d="M4868 3913 c6 -2 18 -2 25 0 6 3 1 5 -13 5 -14 0 -19 -2 -12 -5z"/>
<path d="M5127 3909 c7 -7 15 -10 18 -7 3 3 -2 9 -12 12 -14 6 -15 5 -6 -5z"/>
<path d="M5195 3910 c3 -5 8 -10 11 -10 2 0 4 5 4 10 0 6 -5 10 -11 10 -5 0
-7 -4 -4 -10z"/>
<path d="M4028 3903 c7 -3 16 -2 19 1 4 3 -2 6 -13 5 -11 0 -14 -3 -6 -6z"/>
<path d="M5068 3903 c7 -3 16 -2 19 1 4 3 -2 6 -13 5 -11 0 -14 -3 -6 -6z"/>
<path d="M320 1691 c0 -6 4 -13 10 -16 6 -3 7 1 4 9 -7 18 -14 21 -14 7z"/>
<path d="M340 1651 c0 -6 4 -13 10 -16 6 -3 7 1 4 9 -7 18 -14 21 -14 7z"/>
<path d="M6655 1649 c-4 -6 -5 -12 -2 -15 2 -3 7 2 10 11 7 17 1 20 -8 4z"/>
<path d="M350 1616 c0 -2 7 -9 15 -16 9 -7 15 -8 15 -2 0 5 -7 12 -15 16 -8 3
-15 4 -15 2z"/>
<path d="M380 1571 c0 -6 4 -13 10 -16 6 -3 7 1 4 9 -7 18 -14 21 -14 7z"/>
<path d="M6601 1553 c-10 -26 -10 -27 4 -9 8 11 15 23 15 28 0 15 -7 8 -19
-19z"/>
<path d="M477 1399 c7 -7 15 -10 18 -7 3 3 -2 9 -12 12 -14 6 -15 5 -6 -5z"/>
<path d="M3451 1394 c-1 -6 2 -13 5 -17 8 -8 34 3 34 15 0 6 -6 6 -14 -1 -11
-9 -15 -9 -19 1 -3 7 -6 8 -6 2z"/>
<path d="M3510 1390 c0 -5 5 -10 11 -10 5 0 7 5 4 10 -3 6 -8 10 -11 10 -2 0
-4 -4 -4 -10z"/>
<path d="M3580 1391 c0 -7 -4 -10 -8 -7 -4 2 -18 -3 -31 -13 -17 -13 -19 -18
-7 -18 8 0 18 7 20 14 3 8 10 12 15 8 11 -6 26 13 17 22 -3 4 -6 1 -6 -6z"/>
<path d="M3270 1380 c0 -5 5 -10 10 -10 6 0 10 5 10 10 0 6 -4 10 -10 10 -5 0
-10 -4 -10 -10z"/>
<path d="M3316 1378 c3 -4 0 -8 -5 -8 -6 0 -11 -4 -11 -8 0 -5 7 -9 15 -9 8 0
13 3 10 5 -3 3 2 10 11 16 13 10 13 12 -5 12 -11 0 -17 -4 -15 -8z"/>
<path d="M3698 1378 c5 -5 16 -8 23 -6 8 3 3 7 -10 11 -17 4 -21 3 -13 -5z"/>
<path d="M3228 1373 c6 -2 10 -9 7 -14 -4 -5 1 -6 10 -2 13 5 14 7 3 14 -7 5
-17 8 -23 8 -5 0 -4 -3 3 -6z"/>
<path d="M3742 1360 c0 -14 2 -19 5 -12 2 6 2 18 0 25 -3 6 -5 1 -5 -13z"/>
<path d="M3772 1360 c0 -14 2 -19 5 -12 2 6 2 18 0 25 -3 6 -5 1 -5 -13z"/>
<path d="M6486 1363 c-6 -14 -5 -15 5 -6 7 7 10 15 7 18 -3 3 -9 -2 -12 -12z"/>
<path d="M490 1360 c0 -5 5 -10 11 -10 5 0 7 5 4 10 -3 6 -8 10 -11 10 -2 0
-4 -4 -4 -10z"/>
<path d="M3146 1357 c3 -10 9 -15 12 -12 3 3 0 11 -7 18 -10 9 -11 8 -5 -6z"/>
<path d="M3346 1362 c-3 -5 1 -9 9 -9 8 0 15 4 15 9 0 4 -4 8 -9 8 -6 0 -12
-4 -15 -8z"/>
<path d="M3426 1362 c-2 -4 4 -8 14 -8 10 0 16 4 14 8 -3 4 -9 8 -14 8 -5 0
-11 -4 -14 -8z"/>
<path d="M3480 1360 c-12 -7 -10 -9 8 -7 12 0 22 5 22 9 0 11 -12 10 -30 -2z"/>
<path d="M3586 1362 c-2 -4 4 -8 14 -8 10 0 16 4 14 8 -3 4 -9 8 -14 8 -5 0
-11 -4 -14 -8z"/>
<path d="M3640 1360 c-12 -7 -10 -9 8 -7 12 0 22 5 22 9 0 11 -12 10 -30 -2z"/>
<path d="M3910 1350 c0 -5 7 -10 15 -10 9 0 12 -6 9 -15 -4 -8 -4 -15 -1 -15
16 0 13 31 -3 40 -14 7 -20 7 -20 0z"/>
<path d="M3054 1335 c-4 -9 -4 -19 0 -22 3 -4 6 1 6 11 0 14 4 15 20 6 11 -6
20 -8 20 -6 0 3 -9 10 -20 16 -16 9 -22 8 -26 -5z"/>
<path d="M3195 1340 c-3 -6 1 -7 9 -4 18 7 21 14 7 14 -6 0 -13 -4 -16 -10z"/>
<path d="M3708 1343 c7 -3 16 -2 19 1 4 3 -2 6 -13 5 -11 0 -14 -3 -6 -6z"/>
<path d="M3790 1340 c0 -5 5 -10 11 -10 5 0 7 5 4 10 -3 6 -8 10 -11 10 -2 0
-4 -4 -4 -10z"/>
<path d="M4006 1325 c10 -8 23 -15 28 -15 6 0 1 7 -10 15 -10 8 -23 15 -28 15
-6 0 -1 -7 10 -15z"/>
<path d="M3003 1323 c4 -3 1 -13 -6 -22 -11 -14 -10 -14 6 -2 20 15 22 31 5
31 -6 0 -8 -3 -5 -7z"/>
<path d="M3955 1320 c-3 -6 1 -7 9 -4 18 7 21 14 7 14 -6 0 -13 -4 -16 -10z"/>
<path d="M2975 1309 c-4 -6 -5 -12 -2 -15 2 -3 7 2 10 11 7 17 1 20 -8 4z"/>
<path d="M3980 1308 c-12 -8 -12 -9 2 -5 9 3 19 1 22 -6 3 -9 5 -9 5 0 1 18
-13 23 -29 11z"/>
<path d="M2890 1300 c0 -5 5 -10 11 -10 5 0 7 5 4 10 -3 6 -8 10 -11 10 -2 0
-4 -4 -4 -10z"/>
<path d="M6437 1295 c-4 -8 -3 -16 1 -19 4 -3 9 4 9 15 2 23 -3 25 -10 4z"/>
<path d="M2861 1281 c-10 -6 -9 -10 3 -14 8 -3 18 -2 21 3 8 13 -9 20 -24 11z"/>
<path d="M4188 1278 c5 -5 16 -8 23 -6 8 3 3 7 -10 11 -17 4 -21 3 -13 -5z"/>
<path d="M4156 1265 c10 -8 24 -14 29 -14 6 0 1 6 -9 14 -11 8 -24 15 -30 15
-5 0 -1 -7 10 -15z"/>
<path d="M560 1250 c6 -11 13 -20 16 -20 2 0 0 9 -6 20 -6 11 -13 20 -16 20
-2 0 0 -9 6 -20z"/>
<path d="M2814 1259 c-3 -6 -3 -13 0 -16 3 -4 6 -1 6 5 0 6 7 9 15 6 8 -4 15
-4 15 -1 0 11 -30 16 -36 6z"/>
<path d="M6420 1260 c0 -5 5 -10 11 -10 5 0 7 5 4 10 -3 6 -8 10 -11 10 -2 0
-4 -4 -4 -10z"/>
<path d="M2695 1240 c-8 -13 14 -42 26 -34 5 3 7 10 3 15 -3 5 -10 6 -16 3 -7
-5 -9 -1 -5 9 7 19 2 23 -8 7z"/>
<path d="M2730 1239 c0 -5 5 -7 10 -4 6 3 10 1 10 -4 0 -6 5 -11 11 -11 8 0 8
5 -1 15 -14 17 -30 20 -30 4z"/>
<path d="M4205 1240 c3 -5 11 -10 16 -10 6 0 7 5 4 10 -3 6 -11 10 -16 10 -6
0 -7 -4 -4 -10z"/>
<path d="M4250 1240 c-8 -5 -10 -10 -5 -10 6 0 17 5 25 10 8 5 11 10 5 10 -5
0 -17 -5 -25 -10z"/>
<path d="M590 1225 c0 -5 5 -17 10 -25 5 -8 10 -10 10 -5 0 6 -5 17 -10 25 -5
8 -10 11 -10 5z"/>
<path d="M4270 1220 c0 -5 5 -10 10 -10 6 0 10 5 10 10 0 6 -4 10 -10 10 -5 0
-10 -4 -10 -10z"/>
<path d="M4330 1221 c-8 -6 -18 -7 -24 -4 -5 3 -6 1 -2 -5 5 -9 13 -9 27 -2
10 6 19 13 19 15 0 7 -3 6 -20 -4z"/>
<path d="M6398 1223 c7 -3 16 -2 19 1 4 3 -2 6 -13 5 -11 0 -14 -3 -6 -6z"/>
<path d="M2656 1205 c-3 -8 -1 -15 4 -15 6 0 10 7 10 15 0 8 -2 15 -4 15 -2 0
-6 -7 -10 -15z"/>
<path d="M4341 1200 c-9 -5 -4 -7 13 -7 29 0 32 2 13 10 -8 3 -20 2 -26 -3z"/>
<path d="M2615 1181 c-3 -5 0 -13 6 -17 7 -4 9 -3 5 4 -3 5 0 13 6 15 9 4 10
6 1 6 -6 1 -14 -3 -18 -8z"/>
<path d="M4385 1179 c-4 -6 -4 -13 -1 -16 3 -4 6 -1 6 6 0 7 5 9 10 6 6 -3 10
-1 10 4 0 14 -17 14 -25 0z"/>
<path d="M4422 1167 c-8 -10 -6 -13 8 -14 11 -1 22 2 25 8 4 5 -2 6 -11 2 -12
-4 -15 -3 -10 5 10 16 1 15 -12 -1z"/>
<path d="M6361 1164 c0 -11 3 -14 6 -6 3 7 2 16 -1 19 -3 4 -6 -2 -5 -13z"/>
<path d="M2550 1161 c0 -6 4 -12 8 -15 5 -3 9 1 9 9 0 8 -4 15 -9 15 -4 0 -8
-4 -8 -9z"/>
<path d="M2580 1159 c0 -5 5 -7 10 -4 6 3 10 8 10 11 0 2 -4 4 -10 4 -5 0 -10
-5 -10 -11z"/>
<path d="M635 1150 c-3 -6 1 -7 9 -4 18 7 21 14 7 14 -6 0 -13 -4 -16 -10z"/>
<path d="M2534 1142 c3 -5 0 -13 -6 -15 -9 -4 -10 -6 -1 -6 17 -1 25 16 12 25
-7 4 -9 3 -5 -4z"/>
<path d="M4455 1140 c-7 -12 19 -24 37 -17 7 3 3 6 -10 6 -13 1 -20 5 -17 11
3 6 4 10 1 10 -3 0 -8 -5 -11 -10z"/>
<path d="M6336 1142 c-3 -5 1 -9 9 -9 8 0 12 4 9 9 -3 4 -7 8 -9 8 -2 0 -6 -4
-9 -8z"/>
<path d="M2474 1129 c3 -15 36 -21 36 -7 0 6 -6 8 -14 5 -8 -3 -17 -2 -20 4
-2 5 -3 4 -2 -2z"/>
<path d="M650 1120 c0 -5 5 -10 11 -10 5 0 7 5 4 10 -3 6 -8 10 -11 10 -2 0
-4 -4 -4 -10z"/>
<path d="M6315 1110 c3 -5 8 -10 11 -10 2 0 4 5 4 10 0 6 -5 10 -11 10 -5 0
-7 -4 -4 -10z"/>
<path d="M2455 1099 c-4 -6 -4 -13 -1 -16 3 -4 6 -1 6 6 0 7 5 9 12 5 7 -4 8
-3 4 4 -9 15 -13 15 -21 1z"/>
<path d="M690 1080 c0 -5 5 -10 10 -10 6 0 10 5 10 10 0 6 -4 10 -10 10 -5 0
-10 -4 -10 -10z"/>
<path d="M2385 1080 c3 -4 14 -10 25 -13 11 -3 18 -2 15 3 -3 4 -14 10 -25 13
-11 3 -18 2 -15 -3z"/>
<path d="M4570 1080 c0 -5 5 -10 10 -10 6 0 10 5 10 10 0 6 -4 10 -10 10 -5 0
-10 -4 -10 -10z"/>
<path d="M6301 1067 c-13 -21 -12 -21 5 -5 10 10 16 20 13 22 -3 3 -11 -5 -18
-17z"/>
<path d="M2362 1063 c11 -3 15 -11 12 -21 -5 -14 -4 -14 4 -2 13 18 6 30 -16
29 -16 -1 -16 -2 0 -6z"/>
<path d="M4616 1061 c-3 -4 3 -16 14 -26 11 -10 20 -15 20 -10 0 4 -8 14 -17
22 -17 14 -17 14 0 9 9 -3 17 -1 17 4 0 12 -27 13 -34 1z"/>
<path d="M710 1050 c0 -5 5 -10 10 -10 6 0 10 5 10 10 0 6 -4 10 -10 10 -5 0
-10 -4 -10 -10z"/>
<path d="M6271 1044 c0 -11 3 -14 6 -6 3 7 2 16 -1 19 -3 4 -6 -2 -5 -13z"/>
<path d="M730 1019 c0 -5 5 -7 10 -4 6 3 10 8 10 11 0 2 -4 4 -10 4 -5 0 -10
-5 -10 -11z"/>
<path d="M6250 1020 c0 -5 5 -10 11 -10 5 0 7 5 4 10 -3 6 -8 10 -11 10 -2 0
-4 -4 -4 -10z"/>
<path d="M4695 1009 c-4 -6 -4 -13 -1 -16 3 -4 6 -1 6 5 0 7 5 12 11 12 5 0 7
-5 3 -12 -4 -7 -3 -8 5 -4 12 8 6 26 -9 26 -5 0 -12 -5 -15 -11z"/>
<path d="M2300 999 c0 -5 5 -7 10 -4 6 3 10 8 10 11 0 2 -4 4 -10 4 -5 0 -10
-5 -10 -11z"/>
<path d="M4730 984 c-8 -8 -9 -14 -4 -13 20 4 35 -2 29 -11 -4 -6 1 -7 11 -3
14 5 14 7 -5 18 -12 6 -18 14 -15 18 4 4 5 7 2 7 -3 0 -11 -7 -18 -16z"/>
<path d="M6230 990 c-13 -8 -12 -10 3 -10 9 0 17 5 17 10 0 12 -1 12 -20 0z"/>
<path d="M757 979 c7 -7 15 -10 18 -7 3 3 -2 9 -12 12 -14 6 -15 5 -6 -5z"/>
<path d="M2216 962 c-2 -4 0 -14 6 -22 8 -12 9 -11 4 4 -5 13 -2 17 9 12 8 -3
15 -1 15 4 0 12 -27 13 -34 2z"/>
<path d="M6210 955 c0 -8 2 -15 4 -15 2 0 6 7 10 15 3 8 1 15 -4 15 -6 0 -10
-7 -10 -15z"/>
<path d="M4796 945 c7 -18 6 -19 -12 -5 -18 14 -18 14 -5 -3 10 -12 17 -15 25
-7 7 7 6 14 -3 23 -10 10 -11 8 -5 -8z"/>
<path d="M2180 930 c-8 -5 -11 -12 -8 -16 4 -3 14 1 23 10 18 17 9 21 -15 6z"/>
<path d="M4825 920 c3 -5 11 -10 16 -10 6 0 7 5 4 10 -3 6 -11 10 -16 10 -6 0
-7 -4 -4 -10z"/>
<path d="M6160 916 c0 -8 4 -17 8 -20 4 -2 8 4 8 15 0 10 -4 19 -8 19 -4 0 -8
-6 -8 -14z"/>
<path d="M830 899 c0 -5 5 -7 10 -4 6 3 10 8 10 11 0 2 -4 4 -10 4 -5 0 -10
-5 -10 -11z"/>
<path d="M2120 891 c-7 -14 -7 -21 0 -21 5 0 10 7 10 16 0 13 3 14 14 5 11 -9
16 -9 22 1 4 7 4 10 -1 6 -4 -4 -14 -3 -21 3 -9 8 -15 5 -24 -10z"/>
<path d="M4851 896 c-9 -11 -9 -16 0 -22 7 -4 9 -3 5 4 -3 5 0 12 6 15 7 2 10
7 7 11 -3 4 -12 0 -18 -8z"/>
<path d="M850 886 c0 -2 7 -7 16 -10 8 -3 12 -2 9 4 -6 10 -25 14 -25 6z"/>
<path d="M4870 870 c0 -6 7 -10 15 -10 8 0 15 2 15 4 0 2 -7 6 -15 10 -8 3
-15 1 -15 -4z"/>
<path d="M850 860 c0 -5 5 -10 11 -10 5 0 7 5 4 10 -3 6 -8 10 -11 10 -2 0 -4
-4 -4 -10z"/>
<path d="M2094 862 c3 -6 -3 -12 -14 -14 -12 -2 -20 -7 -20 -13 1 -5 -7 -13
-17 -17 -13 -5 -11 -7 9 -5 15 2 31 7 35 12 4 4 3 5 -4 1 -6 -3 -14 -2 -18 4
-3 5 3 10 14 10 24 0 36 16 20 26 -7 4 -9 3 -5 -4z"/>
<path d="M4910 851 c0 -7 -5 -9 -12 -5 -7 5 -8 3 -3 -5 5 -9 10 -10 18 -2 6 6
8 14 4 18 -4 3 -7 1 -7 -6z"/>
<path d="M6100 856 c0 -2 7 -7 16 -10 8 -3 12 -2 9 4 -6 10 -25 14 -25 6z"/>
<path d="M4946 825 c4 -8 11 -15 16 -15 6 0 5 6 -2 15 -7 8 -14 15 -16 15 -2
0 -1 -7 2 -15z"/>
<path d="M908 823 c7 -3 16 -2 19 1 4 3 -2 6 -13 5 -11 0 -14 -3 -6 -6z"/>
<path d="M6095 820 c-3 -6 1 -7 9 -4 18 7 21 14 7 14 -6 0 -13 -4 -16 -10z"/>
<path d="M931 794 c0 -11 3 -14 6 -6 3 7 2 16 -1 19 -3 4 -6 -2 -5 -13z"/>
<path d="M6054 799 c-12 -20 12 -31 27 -12 13 17 13 17 -5 3 -18 -14 -19 -13
-13 3 7 19 2 23 -9 6z"/>
<path d="M4955 780 c-3 -5 -1 -10 4 -10 6 0 11 5 11 10 0 6 -2 10 -4 10 -3 0
-8 -4 -11 -10z"/>
<path d="M5000 765 c0 -8 4 -15 10 -15 5 0 7 7 4 15 -4 8 -8 15 -10 15 -2 0
-4 -7 -4 -15z"/>
<path d="M1977 740 c-10 -16 -16 -30 -14 -30 2 0 13 14 25 30 13 17 19 30 14
30 -4 0 -16 -13 -25 -30z"/>
<path d="M6014 759 c-3 -6 -2 -15 4 -21 6 -6 12 -6 17 3 6 8 4 10 -5 4 -10 -6
-12 -4 -7 8 7 19 2 23 -9 6z"/>
<path d="M970 739 c0 -5 5 -7 10 -4 6 3 10 8 10 11 0 2 -4 4 -10 4 -5 0 -10
-5 -10 -11z"/>
<path d="M5030 742 c0 -23 2 -27 11 -24 5 1 9 -3 9 -10 0 -6 3 -9 6 -5 3 3 -1
16 -10 29 -9 12 -16 17 -16 10z"/>
<path d="M995 730 c-4 -7 -2 -17 4 -23 9 -9 11 -7 6 8 -7 20 -6 20 9 1 9 -11
16 -15 16 -9 0 18 -27 36 -35 23z"/>
<path d="M5990 719 c0 -5 5 -7 10 -4 6 3 10 8 10 11 0 2 -4 4 -10 4 -5 0 -10
-5 -10 -11z"/>
<path d="M1935 700 c3 -5 8 -10 11 -10 2 0 4 5 4 10 0 6 -5 10 -11 10 -5 0 -7
-4 -4 -10z"/>
<path d="M5970 700 c0 -5 5 -10 11 -10 5 0 7 5 4 10 -3 6 -8 10 -11 10 -2 0
-4 -4 -4 -10z"/>
<path d="M1035 680 c3 -5 11 -10 16 -10 6 0 7 5 4 10 -3 6 -11 10 -16 10 -6 0
-7 -4 -4 -10z"/>
<path d="M1917 683 c-10 -9 -9 -23 1 -23 5 0 9 7 9 15 0 17 -1 18 -10 8z"/>
<path d="M5068 683 c6 -2 9 -10 6 -15 -4 -7 -2 -8 5 -4 13 9 5 26 -12 25 -9 0
-8 -2 1 -6z"/>
<path d="M1066 655 c-3 -8 0 -17 6 -21 6 -4 8 -3 4 4 -3 5 -1 12 6 14 8 3 9 6
1 11 -6 4 -13 0 -17 -8z"/>
<path d="M5094 659 c-3 -6 -1 -16 5 -22 9 -9 10 -7 5 8 -7 18 -6 19 12 5 18
-14 18 -14 5 3 -16 20 -18 20 -27 6z"/>
<path d="M1875 640 c-13 -6 -15 -9 -5 -9 8 0 22 4 30 9 18 12 2 12 -25 0z"/>
<path d="M1090 626 c0 -2 7 -9 15 -16 13 -11 14 -10 9 4 -5 14 -24 23 -24 12z"/>
<path d="M1851 608 c-1 -10 -5 -18 -11 -18 -5 0 -10 -5 -10 -12 0 -8 6 -7 16
4 9 9 14 22 11 30 -4 9 -6 7 -6 -4z"/>
<path d="M1120 586 c0 -2 7 -7 16 -10 8 -3 12 -2 9 4 -6 10 -25 14 -25 6z"/>
<path d="M5156 577 c3 -10 9 -15 12 -12 3 3 0 11 -7 18 -10 9 -11 8 -5 -6z"/>
<path d="M1157 566 c-4 -9 -3 -15 2 -11 5 3 11 0 13 -7 3 -7 7 -5 11 6 4 9 3
15 -2 11 -5 -3 -11 0 -13 7 -3 7 -7 5 -11 -6z"/>
<path d="M1190 542 c0 -7 7 -15 15 -18 8 -4 12 -10 9 -15 -3 -5 2 -6 12 -2 15
5 14 7 -2 16 -11 6 -22 15 -26 21 -5 7 -8 7 -8 -2z"/>
<path d="M1796 534 c-23 -23 -20 -30 4 -9 11 10 20 20 20 22 0 7 -9 2 -24 -13z"/>
<path d="M5791 527 c-13 -21 -12 -21 5 -5 10 10 16 20 13 22 -3 3 -11 -5 -18
-17z"/>
<path d="M5760 511 c0 -6 4 -13 10 -16 6 -3 7 1 4 9 -7 18 -14 21 -14 7z"/>
<path d="M1236 487 c3 -10 9 -15 12 -12 3 3 0 11 -7 18 -10 9 -11 8 -5 -6z"/>
<path d="M1750 480 c-8 -5 -10 -10 -5 -10 6 0 17 5 25 10 8 5 11 10 5 10 -5 0
-17 -5 -25 -10z"/>
<path d="M5237 469 c7 -7 15 -10 18 -7 3 3 -2 9 -12 12 -14 6 -15 5 -6 -5z"/>
<path d="M5708 473 c7 -3 16 -2 19 1 4 3 -2 6 -13 5 -11 0 -14 -3 -6 -6z"/>
<path d="M1304 456 c10 -8 15 -20 10 -27 -4 -8 -3 -10 4 -5 18 11 14 24 -10
36 -22 10 -22 10 -4 -4z"/>
<path d="M1730 449 c0 -5 5 -7 10 -4 6 3 10 8 10 11 0 2 -4 4 -10 4 -5 0 -10
-5 -10 -11z"/>
<path d="M5691 444 c0 -11 3 -14 6 -6 3 7 2 16 -1 19 -3 4 -6 -2 -5 -13z"/>
<path d="M1697 401 c-4 -17 -3 -21 5 -13 5 5 8 16 6 23 -3 8 -7 3 -11 -10z"/>
<path d="M5286 398 c3 -5 10 -6 15 -3 13 9 11 12 -6 12 -8 0 -12 -4 -9 -9z"/>
<path d="M5650 399 c0 -5 5 -7 10 -4 6 3 10 8 10 11 0 2 -4 4 -10 4 -5 0 -10
-5 -10 -11z"/>
<path d="M5305 379 c-5 -8 -4 -10 3 -5 8 5 12 -1 13 -16 1 -18 2 -19 6 -4 6
23 -12 43 -22 25z"/>
<path d="M1410 369 c0 -5 -6 -7 -12 -3 -7 4 -9 3 -5 -1 13 -15 36 -14 30 1 -6
17 -13 18 -13 3z"/>
<path d="M1670 370 c0 -5 5 -10 11 -10 5 0 7 5 4 10 -3 6 -8 10 -11 10 -2 0
-4 -4 -4 -10z"/>
<path d="M5580 371 c0 -6 4 -13 10 -16 6 -3 7 1 4 9 -7 18 -14 21 -14 7z"/>
<path d="M1420 336 c0 -2 7 -6 15 -10 8 -3 15 -1 15 4 0 6 -7 10 -15 10 -8 0
-15 -2 -15 -4z"/>
<path d="M5516 331 c-3 -5 2 -15 12 -22 15 -13 16 -12 4 3 -10 13 -10 17 0 21
9 4 9 6 1 6 -6 1 -14 -3 -17 -8z"/>
<path d="M1486 317 c3 -10 9 -15 12 -12 3 3 0 11 -7 18 -10 9 -11 8 -5 -6z"/>
<path d="M1650 319 c0 -5 5 -7 10 -4 6 3 10 8 10 11 0 2 -4 4 -10 4 -5 0 -10
-5 -10 -11z"/>
<path d="M5348 303 c7 -3 16 -2 19 1 4 3 -2 6 -13 5 -11 0 -14 -3 -6 -6z"/>
<path d="M5490 288 c-10 -21 -10 -21 3 -6 8 10 18 14 22 10 5 -4 5 -1 1 6 -10
17 -14 15 -26 -10z"/>
<path d="M5365 280 c3 -5 11 -10 16 -10 6 0 7 5 4 10 -3 6 -11 10 -16 10 -6 0
-7 -4 -4 -10z"/>
<path d="M1540 270 c-9 -6 -10 -10 -3 -10 6 0 15 5 18 10 8 12 4 12 -15 0z"/>
<path d="M1607 259 c7 -7 15 -10 18 -7 3 3 -2 9 -12 12 -14 6 -15 5 -6 -5z"/>
<path d="M5446 255 c-11 -8 -15 -15 -9 -15 6 0 16 7 23 15 16 19 11 19 -14 0z"/>
<path d="M1550 246 c0 -2 7 -7 16 -10 8 -3 12 -2 9 4 -6 10 -25 14 -25 6z"/>
<path d="M1590 229 c0 -5 5 -7 10 -4 6 3 10 8 10 11 0 2 -4 4 -10 4 -5 0 -10
-5 -10 -11z"/>
<path d="M5398 233 c7 -3 16 -2 19 1 4 3 -2 6 -13 5 -11 0 -14 -3 -6 -6z"/>
</g>
</svg>
