<svg xmlns="http://www.w3.org/2000/svg" version="1.0" viewBox="0 0 700 700">
  <path d="M320.5 45.1c-71.3 7.3-136.7 38.2-186.9 88.5-47.2 47.1-76.2 105-86.9 173.4-1.8 11.5-2.1 17.9-2.1 43s.3 31.5 2.1 43c6.1 38.5 18 74.2 34.9 104.4 50.6 90.7 139.7 148.6 242.5 157.7 18.1 1.6 52.4.6 69.4-2 71.6-10.8 134.5-44.1 182.3-96.4 41.7-45.5 67.5-100.1 77.5-163.7 1.8-11.5 2.1-17.9 2.1-43s-.3-31.5-2.1-43c-6.1-38.5-18-74.2-34.9-104.4-47.6-85.2-127.9-140.9-224.9-155.8-15-2.3-57.7-3.3-73-1.7zm53 12.9c102.1 8.7 191.4 68.5 237.5 159 28.9 56.9 38.4 118.9 27.9 182C618.6 521.1 521.6 618.2 399 638.9c-42.3 7.2-87.8 4.7-129.3-7-83.2-23.5-153.6-84.9-188.2-164.4-20.7-47.4-28.2-97.3-22.4-149.5 9.5-86 56.5-163.3 128.9-211.7C241.9 70.2 309.4 52.6 373.5 58z"/>
  <path d="M196.5 180.8a45.9 45.9 0 0 0-18.9 12.1c-11.6 12.5-14.4 30.8-7.1 46.9 3.5 7.5 12.5 16.6 20.4 20.5l6.6 3.2 50.8.3 50.7.3v102.6l2.3 2.1c1.8 1.7 3.6 2.2 7.8 2.2 11.6 0 21.1 4 28.3 12 6.2 6.9 8.1 12.1 8.1 22.5 0 7.9-.3 9.7-2.8 14.4-1.5 3-4.1 6.9-5.7 8.8-5.7 6.4-5 12.4 1.7 14.2 2.1.6 7.5 1.1 12.1 1.1 12 0 12.4-.5 11.5-15.8-.7-14.1.7-19.6 6.7-26.5 6.6-7.4 16.1-10.3 27.8-8.3l4.2.8V264h44.8c41.8 0 45.3-.1 50.5-1.9a43.82 43.82 0 0 0 27.2-28c1.3-4 1.6-7.6 1.3-14.6-.3-8.2-.8-10.1-4.1-16.7-4.5-9.2-11.2-15.7-20.5-20.1l-6.7-3.2-146-.2c-136.5-.2-146.3-.1-151 1.5z"/>
  <path d="M304 386.2a17.71 17.71 0 0 0-9.6 19.3c.8 4.3 5.9 10.3 10.3 12.1 12.6 5.3 26.4-5.7 23.9-19-1.4-7.5-9.7-14.6-17.1-14.6-1.7 0-5.1 1-7.5 2.2zm78.3 28.4c-2.1 1-4 3.2-5.4 6.1-1.9 3.9-2 5-1 8.3 3.9 13.2 21.3 13.2 25.2 0 1-3.3.9-4.4-1-8.3-3.4-7.1-10.7-9.6-17.8-6.1zm-83.1 39c-8.6 4.3-13.4 12.4-13.3 22.5 0 6.8 1.7 11.2 6.1 16.3 5.1 5.8 10.3 8 18.5 8 5.2 0 8-.5 11-2.1 11.2-6 16.5-17.9 13.1-29.5-4.4-15-21.3-22.2-35.4-15.2zm80.2-.6c-10.3 2.4-16.2 14.4-12 24.3 1.8 4.4 7.8 9.5 12.1 10.3 10.9 2 21.5-6.3 21.5-16.8 0-8.9-4.8-15.5-12.8-17.8-4.1-1.1-4.4-1.1-8.8 0zm-29.5 38c-6.8 1.9-9.9 5.9-9.9 13.1 0 15 22.2 16.7 25.5 1.9 1.9-8.7-7-17.3-15.6-15zm34.5 19.4c-6.7 3-9.7 10.2-6.7 16.3 2.5 5 6.3 7.6 11.2 7.6 15.4 0 16.8-22.1 1.5-24.8-1.6-.3-4.3.1-6 .9zm-47.5 24.9a19.87 19.87 0 0 0-10.3 17.1c.1 23 32.5 27 38.4 4.7 4.2-16-13.3-29.6-28.1-21.8z"/>
</svg>
