<svg xmlns="http://www.w3.org/2000/svg" fill="none" viewBox="0 0 24 20">
  <path fill="#1B1E27" stroke="#FAFAFA" stroke-width=".5" d="M16.8 2.2v-.8c0-.62.52-1.15 1.19-1.15.67 0 1.21.53 1.21 1.15v14.41l.42-.4 2.08-2a1.25 1.25 0 0 1 1.7 0 1.1 1.1 0 0 1 0 1.61l-4.55 4.4c-.47.44-1.23.44-1.7 0l-4.55-4.37a1.13 1.13 0 0 1 0-1.63 1.25 1.25 0 0 1 1.7 0l2.08 1.99.42.4V2.2Z"/>
  <mask id="a" fill="#fff">
    <path d="M7.45 18.6V4.76l2.08 1.99a1.5 1.5 0 0 0 2.05 0c.56-.54.56-1.43 0-1.97L7.03.41A1.54 1.54 0 0 0 4.95.4L.42 4.79a1.38 1.38 0 0 0 0 2 1.5 1.5 0 0 0 2.06 0l2.07-2V18.6c0 .77.66 1.4 1.46 1.4.78-.02 1.44-.63 1.44-1.4Z"/>
  </mask>
  <path fill="#1B1E27" d="M7.45 18.6V4.76l2.08 1.99a1.5 1.5 0 0 0 2.05 0c.56-.54.56-1.43 0-1.97L7.03.41A1.54 1.54 0 0 0 4.95.4L.42 4.79a1.38 1.38 0 0 0 0 2 1.5 1.5 0 0 0 2.06 0l2.07-2V18.6c0 .77.66 1.4 1.46 1.4.78-.02 1.44-.63 1.44-1.4Z"/>
  <path fill="#FAFAFA" d="m7.45 4.76.35-.36-.85-.82v1.18h.5Zm2.08 1.99.34-.36-.34.36Zm2.05-1.97-.35.36.35-.36ZM7.03.41l.34-.36-.34.36ZM4.95.4 4.61.05l.34.36ZM.42 4.78l.35.36-.35-.36Zm0 2-.36.34h.01v.01l.35-.36Zm2.06 0-.35-.37.35.36Zm2.07-2h.5V3.6l-.85.82.35.36ZM6.01 20v.5h.02L6 20Zm1.94-1.4V4.76h-1V18.6h1ZM7.1 5.12 9.18 7.1l.7-.72-2.08-2-.7.73ZM9.18 7.1a2 2 0 0 0 2.74 0l-.7-.72a1 1 0 0 1-1.35 0l-.7.72Zm2.74 0c.77-.74.77-1.95 0-2.7l-.7.73c.37.35.37.9 0 1.25l.7.72Zm0-2.7L7.37.06l-.7.72 4.56 4.37.7-.72ZM7.37.06A1.95 1.95 0 0 0 6-.5v1c.28 0 .5.1.69.27l.7-.72ZM6-.5a2 2 0 0 0-1.4.55l.69.72a1 1 0 0 1 .7-.27v-1ZM4.6.05.08 4.42l.7.72L5.3.77 4.6.05ZM.08 4.42c-.39.37-.58.86-.58 1.36h1c0-.24.09-.47.27-.64l-.7-.72ZM-.5 5.78c0 .5.2.96.56 1.34l.72-.7a.92.92 0 0 1-.28-.64h-1Zm.58 1.35a2 2 0 0 0 2.74 0l-.7-.72a1 1 0 0 1-1.35 0l-.7.72Zm2.74 0 2.08-2-.7-.71-2.07 2 .7.71Zm1.23-2.35V18.6h1V4.78h-1Zm0 13.82c0 1.06.9 1.9 1.96 1.9v-1c-.54 0-.96-.43-.96-.9h-1Zm1.98 1.9a1.95 1.95 0 0 0 1.92-1.9h-1c0 .46-.41.88-.95.9l.03 1Zm.92-1.9h1-1Z" mask="url(#a)"/>
</svg>
