<svg xmlns="http://www.w3.org/2000/svg" fill="none" viewBox="0 0 178 48">
  <path fill="#D2D4D4" d="M11.54 12.9c-1.94 0-3.47.7-4.59 2.07-1.11 1.38-1.67 3.28-1.67 5.7 0 2.55.54 4.47 1.6 5.77 1.08 1.3 2.63 1.95 4.66 1.95.88 0 1.73-.08 2.55-.25.82-.18 1.68-.4 2.56-.68v2.9c-1.62.62-3.46.92-5.52.92-3.03 0-5.36-.91-6.98-2.74-1.62-1.84-2.44-4.47-2.44-7.9 0-2.14.4-4.03 1.18-5.64a8.48 8.48 0 0 1 3.43-3.71A10.3 10.3 0 0 1 11.57 10a13 13 0 0 1 5.86 1.33l-1.22 2.82c-.7-.33-1.44-.62-2.22-.86a7.78 7.78 0 0 0-2.45-.39Zm9.57-2.6h6.15c2.85 0 4.9.41 6.17 1.24 1.28.83 1.91 2.15 1.91 3.94 0 1.2-.3 2.21-.93 3.02-.62.8-1.52 1.3-2.7 1.51v.14c1.46.28 2.53.82 3.2 1.63.7.8 1.04 1.9 1.04 3.27 0 1.86-.65 3.32-1.95 4.38-1.3 1.05-3.1 1.57-5.41 1.57H21.1V10.3Zm3.39 8.55h3.25c1.42 0 2.45-.22 3.1-.66.66-.46.98-1.22.98-2.3 0-.97-.35-1.67-1.06-2.1-.7-.44-1.81-.66-3.34-.66H24.5v5.72Zm0 2.75v6.55h3.6c1.41 0 2.48-.27 3.2-.8.72-.55 1.08-1.41 1.08-2.58 0-1.08-.36-1.87-1.1-2.4-.74-.51-1.86-.77-3.36-.77H24.5Zm32.6-1.15c0 3.42-.95 6.03-2.85 7.85-1.9 1.8-4.63 2.7-8.2 2.7h-5.8V10.3h6.4c3.3 0 5.87.89 7.7 2.66s2.74 4.27 2.74 7.5Zm-3.57.11c0-4.95-2.32-7.43-6.96-7.43h-2.93v15.02h2.4c5 0 7.49-2.53 7.49-7.59Zm16.83-7.66c-1.94 0-3.47.7-4.59 2.07-1.11 1.38-1.67 3.28-1.67 5.7 0 2.55.54 4.47 1.6 5.77 1.08 1.3 2.63 1.95 4.66 1.95.88 0 1.73-.08 2.55-.25.82-.18 1.68-.4 2.56-.68v2.9c-1.62.62-3.46.92-5.52.92-3.03 0-5.36-.91-6.98-2.74-1.62-1.84-2.44-4.47-2.44-7.9 0-2.14.4-4.03 1.18-5.64a8.48 8.48 0 0 1 3.43-3.71A10.32 10.32 0 0 1 70.39 10a13 13 0 0 1 5.86 1.33l-1.22 2.82c-.7-.33-1.43-.62-2.22-.86a7.78 7.78 0 0 0-2.45-.39Zm30.81 3.66c0 2.16-.7 3.82-2.12 4.97-1.42 1.15-3.43 1.72-6.05 1.72h-2.15V31h-3.38V10.3h5.96c2.59 0 4.52.53 5.8 1.58 1.3 1.06 1.94 2.62 1.94 4.68ZM90.85 20.4h1.8c1.74 0 3.01-.3 3.82-.9.81-.61 1.22-1.56 1.22-2.84 0-1.19-.36-2.08-1.09-2.66-.73-.59-1.86-.88-3.4-.88h-2.35v7.28ZM105.31 31V10.3h3.38V31h-3.38Zm8.86 0V10.3h3.39v17.8h8.76V31h-12.15Zm34.1-10.38c0 3.37-.84 5.99-2.53 7.86-1.68 1.87-4.07 2.8-7.16 2.8-3.12 0-5.52-.92-7.2-2.77-1.67-1.86-2.5-4.5-2.5-7.92 0-3.41.83-6.04 2.51-7.87 1.7-1.83 4.1-2.75 7.22-2.75 3.08 0 5.46.93 7.14 2.8 1.68 1.85 2.52 4.47 2.52 7.85Zm-15.8 0c0 2.55.51 4.48 1.54 5.8 1.03 1.32 2.56 1.97 4.58 1.97 2 0 3.52-.65 4.54-1.95 1.03-1.3 1.54-3.24 1.54-5.82 0-2.54-.5-4.46-1.52-5.78-1.02-1.3-2.53-1.96-4.54-1.96-2.03 0-3.56.65-4.6 1.96-1.03 1.32-1.54 3.24-1.54 5.78ZM159.87 31h-3.39V13.2h-6.08v-2.9h15.56v2.9h-6.1V31ZM8.06 39.44c0 .8-.27 1.4-.82 1.83-.54.43-1.31.64-2.32.64h-.93V45h-.91v-7.85h2.04c1.96 0 2.94.76 2.94 2.29Zm-4.07 1.69h.82c.81 0 1.4-.13 1.76-.4.36-.26.54-.67.54-1.25 0-.52-.17-.9-.5-1.16-.35-.26-.88-.38-1.6-.38H4v3.19Zm14.4.92c0 .96-.24 1.71-.72 2.25s-1.15.8-2 .8a2.45 2.45 0 0 1-2.35-1.43 3.7 3.7 0 0 1-.33-1.62c0-.96.24-1.7.72-2.24.48-.54 1.14-.8 2-.8.82 0 1.47.27 1.95.82.5.55.73 1.29.73 2.22Zm-4.48 0c0 .75.15 1.33.45 1.72.3.4.74.6 1.33.6.58 0 1.02-.2 1.32-.6.3-.39.46-.96.46-1.72 0-.75-.15-1.31-.46-1.7-.3-.4-.74-.59-1.33-.59-.59 0-1.03.2-1.32.58-.3.38-.45.95-.45 1.71ZM28.5 45l-1.08-3.45c-.07-.21-.2-.7-.38-1.44H27c-.15.62-.27 1.1-.38 1.45L25.52 45h-1.03l-1.6-5.89h.93l.86 3.38c.2.78.32 1.3.34 1.56h.05a12.13 12.13 0 0 1 .42-1.56l1.08-3.38h.96l1.05 3.38c.2.62.34 1.13.41 1.55h.05c.01-.13.05-.32.1-.6l1.13-4.33h.93L29.57 45H28.5Zm9.98.1a2.7 2.7 0 0 1-2.06-.79 3.08 3.08 0 0 1-.75-2.2c0-.95.23-1.7.7-2.27.46-.55 1.1-.83 1.88-.83.74 0 1.32.24 1.75.73.43.48.65 1.12.65 1.91v.57H36.6c.02.69.2 1.21.52 1.57.33.36.8.54 1.4.54.64 0 1.26-.13 1.88-.4v.8a4.56 4.56 0 0 1-1.9.38Zm-.24-5.35c-.47 0-.85.16-1.13.46-.28.31-.45.74-.5 1.28h3.08c0-.56-.13-.99-.38-1.29-.25-.3-.6-.45-1.07-.45Zm10.36-.74c.26 0 .5.02.7.06l-.12.83a3.04 3.04 0 0 0-.65-.08c-.47 0-.88.19-1.22.58-.34.38-.5.87-.5 1.44V45h-.9v-5.89h.74l.1 1.1h.04c.22-.39.48-.68.8-.9.3-.2.64-.3 1-.3Zm8.03 6.1a2.7 2.7 0 0 1-2.06-.8 3.08 3.08 0 0 1-.76-2.2c0-.95.24-1.7.7-2.27.47-.55 1.1-.83 1.89-.83.73 0 1.32.24 1.75.73.43.48.64 1.12.64 1.91v.57h-4.05c.02.69.19 1.21.52 1.57.33.36.8.54 1.4.54.63 0 1.26-.13 1.88-.4v.8a4.56 4.56 0 0 1-1.91.38Zm-.24-5.36c-.48 0-.85.16-1.14.46-.28.31-.44.74-.5 1.28h3.09c0-.56-.13-.99-.38-1.29-.25-.3-.6-.45-1.07-.45Zm11.67 4.46h-.04c-.42.6-1.03.9-1.85.9a2.2 2.2 0 0 1-1.8-.8 3.49 3.49 0 0 1-.64-2.24c0-.97.22-1.72.64-2.26.43-.54 1.03-.8 1.8-.8.8 0 1.41.29 1.84.87h.07l-.04-.43-.02-.41v-2.4h.89V45h-.73l-.12-.79Zm-1.78.15c.61 0 1.05-.16 1.32-.5.28-.33.42-.86.42-1.6v-.19c0-.83-.14-1.43-.42-1.78-.28-.36-.72-.54-1.33-.54-.52 0-.92.2-1.2.61a3 3 0 0 0-.42 1.72c0 .76.14 1.32.42 1.7.27.39.68.58 1.21.58Zm17.6-5.34c.77 0 1.37.26 1.8.8.43.52.64 1.26.64 2.23a3.5 3.5 0 0 1-.65 2.26c-.43.53-1.02.8-1.79.8a2.6 2.6 0 0 1-1.05-.21 2 2 0 0 1-.8-.66h-.06l-.19.76h-.64v-8.36h.9v2.03c0 .46-.02.87-.05 1.23h.04c.42-.59 1.03-.88 1.85-.88Zm-.13.74c-.6 0-1.05.18-1.31.53-.27.35-.4.93-.4 1.76s.13 1.42.4 1.78c.28.35.72.53 1.33.53.55 0 .96-.2 1.23-.6.27-.4.4-.97.4-1.72 0-.77-.13-1.34-.4-1.71-.27-.38-.69-.57-1.25-.57Zm6.94-.65h.96l1.29 3.36c.28.77.46 1.32.52 1.66h.05c.04-.18.14-.5.29-.93.15-.45.63-1.8 1.46-4.09h.95l-2.53 6.7a3.3 3.3 0 0 1-.88 1.41c-.33.28-.74.42-1.23.42-.27 0-.54-.03-.8-.09v-.71c.2.04.42.06.66.06.61 0 1.05-.34 1.3-1.03l.34-.84-2.38-5.92ZM110.07 45h-.91v-7.04h-2.5v-.81h5.9v.8h-2.5V45Zm12.1-5.89v.57l-1.1.13a1.85 1.85 0 0 1 .4 1.17c0 .58-.2 1.04-.6 1.38-.4.35-.93.52-1.62.52a2.7 2.7 0 0 1-.5-.04c-.37.2-.56.45-.56.75 0 .16.06.28.2.36.13.08.36.12.68.12h1.04c.64 0 1.13.13 1.47.4.34.27.51.66.51 1.17 0 .65-.26 1.15-.78 1.49-.53.34-1.29.51-2.3.51-.76 0-1.36-.14-1.77-.43a1.37 1.37 0 0 1-.63-1.21c0-.36.12-.67.35-.93.23-.26.55-.44.96-.53a.95.95 0 0 1-.38-.32.85.85 0 0 1-.15-.5c0-.21.06-.4.17-.56.12-.16.3-.32.55-.47a1.6 1.6 0 0 1-.75-.64 1.9 1.9 0 0 1-.28-1.03c0-.64.19-1.14.58-1.49.38-.35.93-.52 1.64-.52a3 3 0 0 1 .83.1h2.04Zm-4.7 6.88c0 .32.14.56.4.72.27.17.66.25 1.16.25.75 0 1.3-.11 1.66-.34.36-.22.54-.52.54-.9 0-.32-.1-.55-.3-.67-.19-.12-.56-.18-1.1-.18h-1.07c-.4 0-.72.1-.95.29-.23.19-.34.47-.34.83Zm.49-5c0 .42.11.73.35.94.23.21.55.32.97.32.87 0 1.3-.42 1.3-1.27 0-.88-.44-1.32-1.32-1.32-.42 0-.74.1-.97.33-.22.23-.33.56-.33 1Zm11.84-1.98c.26 0 .5.02.7.06l-.12.83a3.05 3.05 0 0 0-.64-.08c-.48 0-.89.19-1.23.58-.33.38-.5.87-.5 1.44V45h-.9v-5.89h.74l.1 1.1h.05c.21-.39.48-.68.79-.9.3-.2.64-.3 1.01-.3Zm9.16 5.99-.17-.84h-.04c-.3.37-.6.62-.89.75-.29.13-.65.2-1.09.2-.58 0-1.04-.15-1.37-.45-.33-.3-.5-.73-.5-1.29 0-1.19.96-1.8 2.86-1.87l1-.03v-.36c0-.47-.1-.8-.3-1.02-.2-.23-.52-.34-.96-.34-.49 0-1.04.15-1.66.45l-.27-.68a4.2 4.2 0 0 1 1.99-.5c.7 0 1.22.15 1.56.46.34.32.5.81.5 1.5V45h-.66Zm-2-.63c.55 0 .98-.15 1.3-.45.31-.3.48-.74.48-1.28v-.54l-.9.04c-.7.03-1.22.14-1.53.34a1 1 0 0 0-.47.9c0 .33.1.57.29.74.2.17.47.25.82.25Zm12.25-.16h-.04c-.41.6-1.03.9-1.85.9a2.2 2.2 0 0 1-1.8-.8 3.49 3.49 0 0 1-.64-2.24c0-.97.22-1.72.65-2.26.43-.54 1.02-.8 1.79-.8.8 0 1.41.29 1.84.87h.07l-.04-.43-.02-.41v-2.4h.89V45h-.73l-.12-.79Zm-1.78.15c.61 0 1.05-.16 1.32-.5.28-.33.42-.86.42-1.6v-.19c0-.83-.14-1.43-.42-1.78-.28-.36-.72-.54-1.33-.54-.52 0-.92.2-1.2.61a3 3 0 0 0-.41 1.72c0 .76.13 1.32.4 1.7.28.39.69.58 1.22.58Zm10.75.75a2.7 2.7 0 0 1-2.06-.8 3.09 3.09 0 0 1-.75-2.2c0-.95.23-1.7.7-2.27.46-.55 1.1-.83 1.88-.83.74 0 1.32.24 1.75.73.43.48.65 1.12.65 1.91v.57h-4.06c.02.69.2 1.21.52 1.57.34.36.8.54 1.4.54.64 0 1.26-.13 1.88-.4v.8a4.56 4.56 0 0 1-1.9.38Zm-.24-5.36c-.47 0-.85.16-1.13.46-.28.31-.45.74-.5 1.28h3.08c0-.56-.13-.99-.38-1.29-.25-.3-.6-.45-1.07-.45Z"/>
</svg>
