<svg xmlns="http://www.w3.org/2000/svg" fill="none" viewBox="0 0 25 20">
  <path fill="#fff" d="m23.853 9.64-6.125-6.126a.522.522 0 0 0-.718 0l-1.328 1.328a.508.508 0 0 0 0 .718l4.438 4.438-4.438 4.439a.508.508 0 0 0 0 .718l1.328 1.328a.508.508 0 0 0 .718 0l6.125-6.125a.508.508 0 0 0 0-.719ZM8.32 14.436 3.882 9.998 8.32 5.56a.508.508 0 0 0 0-.718L6.992 3.514a.508.508 0 0 0-.718 0L.15 9.64a.508.508 0 0 0 0 .718l6.125 6.125a.508.508 0 0 0 .718 0l1.328-1.328a.507.507 0 0 0 0-.718Zm7.163-12.982a.508.508 0 0 0-.302-.244L14.104.892a.508.508 0 0 0-.63.343L8.476 18.16a.508.508 0 0 0 .343.63l1.076.319a.508.508 0 0 0 .631-.344L15.524 1.84a.507.507 0 0 0-.041-.386Z"/>
</svg>
