<svg xmlns="http://www.w3.org/2000/svg" fill="none" viewBox="0 0 30 18">
  <rect width="30" height="18" fill="#fff" fill-opacity=".2" rx="6"/>
  <path fill="#fff" d="M8.656 6.728c.128.07.192.176.192.32a.413.413 0 0 1-.096.264.312.312 0 0 1-.264.128.45.45 0 0 1-.216-.056 2.145 2.145 0 0 0-1.072-.28c-.4 0-.755.088-1.064.264a1.841 1.841 0 0 0-.712.744c-.17.315-.256.677-.256 1.088 0 .443.088.824.264 1.144.176.32.419.565.728.736.31.165.656.248 1.04.248.395 0 .752-.096 1.072-.288a.459.459 0 0 1 .208-.048c.117 0 .21.045.28.136.064.08.096.165.096.256a.338.338 0 0 1-.056.184.35.35 0 0 1-.136.128c-.208.117-.443.21-.704.28a3.037 3.037 0 0 1-2.192-.24 2.637 2.637 0 0 1-1.04-1c-.256-.437-.384-.95-.384-1.536 0-.539.123-1.024.368-1.456.25-.437.592-.779 1.024-1.024.437-.25.925-.376 1.464-.376.517 0 1.003.128 1.456.384ZM14.854 9.2c0 .539-.118 1.027-.352 1.464-.23.437-.55.784-.96 1.04-.411.25-.875.376-1.392.376-.518 0-.982-.125-1.392-.376a2.713 2.713 0 0 1-.968-1.04A3.104 3.104 0 0 1 9.446 9.2c0-.539.114-1.027.344-1.464.234-.437.557-.781.968-1.032.41-.256.874-.384 1.392-.384.517 0 .98.128 1.392.384.41.25.73.595.96 1.032.234.437.352.925.352 1.464Zm-.824 0c0-.4-.08-.76-.24-1.08a1.829 1.829 0 0 0-.672-.76 1.717 1.717 0 0 0-.968-.28c-.363 0-.688.09-.976.272a1.848 1.848 0 0 0-.664.76 2.4 2.4 0 0 0-.24 1.088c0 .4.08.763.24 1.088.16.32.38.573.664.76.288.181.613.272.976.272.362 0 .685-.09.968-.272.288-.187.512-.44.672-.76.16-.325.24-.688.24-1.088Zm4.181-2.8c.502 0 .931.125 1.288.376.358.25.627.59.808 1.016.182.421.272.89.272 1.408 0 .523-.09.997-.272 1.424-.181.421-.45.757-.808 1.008-.357.245-.786.368-1.288.368h-1.968a.37.37 0 0 1-.272-.112.37.37 0 0 1-.112-.272V6.784a.37.37 0 0 1 .112-.272.37.37 0 0 1 .272-.112h1.968Zm-.08 4.864c.544 0 .952-.192 1.224-.576.272-.39.408-.885.408-1.488 0-.597-.138-1.09-.416-1.48-.272-.39-.677-.584-1.216-.584h-1.48v4.128h1.48Zm6.63 0c.113 0 .203.037.273.112a.361.361 0 0 1 .112.264.344.344 0 0 1-.112.264.385.385 0 0 1-.272.096h-2.784a.37.37 0 0 1-.272-.112.37.37 0 0 1-.112-.272V6.784a.37.37 0 0 1 .112-.272.37.37 0 0 1 .272-.112h2.784a.368.368 0 0 1 .384.376.344.344 0 0 1-.112.264.385.385 0 0 1-.272.096h-2.376v1.632h2.016a.37.37 0 0 1 .384.368.33.33 0 0 1-.112.264.385.385 0 0 1-.272.096h-2.016v1.768h2.376Z"/>
</svg>
