<svg width="20" height="21" viewBox="0 0 20 21" fill="none" xmlns="http://www.w3.org/2000/svg">
<path d="M15 11.8789H11V15.8789H9V11.8789H5V9.87891H9V5.87891H11V9.87891H15V11.8789ZM10 0.878906C8.68678 0.878906 7.38642 1.13756 6.17317 1.64011C4.95991 2.14266 3.85752 2.87925 2.92893 3.80784C1.05357 5.6832 0 8.22674 0 10.8789C0 13.5311 1.05357 16.0746 2.92893 17.95C3.85752 18.8786 4.95991 19.6152 6.17317 20.1177C7.38642 20.6202 8.68678 20.8789 10 20.8789C12.6522 20.8789 15.1957 19.8253 17.0711 17.95C18.9464 16.0746 20 13.5311 20 10.8789C20 9.56569 19.7413 8.26533 19.2388 7.05207C18.7362 5.83882 17.9997 4.73642 17.0711 3.80784C16.1425 2.87925 15.0401 2.14266 13.8268 1.64011C12.6136 1.13756 11.3132 0.878906 10 0.878906Z" fill="white"/>
</svg>
