<svg width="16" height="16" viewBox="0 0 16 16" fill="none" xmlns="http://www.w3.org/2000/svg">
<path d="M9.7244 6.17736C11.1644 7.61896 11.1644 9.97736 9.7244 11.419L6.3852 14.7598C4.9436 16.2014 2.5852 16.2014 1.1436 14.7598L1.0812 14.6974C-0.3604 13.2558 -0.3604 10.8974 1.0812 9.45576L3.4188 7.12136C3.406 7.80776 3.5324 8.49896 3.7932 9.14696L2.2828 10.6558C1.5004 11.4366 1.5004 12.7102 2.2828 13.4942L2.3452 13.5566C3.1276 14.339 4.4012 14.339 5.1836 13.5566L8.5244 10.2174C9.3068 9.43496 9.3068 8.15976 8.5244 7.37896L8.4604 7.31816C8.3388 7.19656 8.2044 7.09416 8.0604 7.01096L9.2828 5.78856C9.414 5.88776 9.542 5.99656 9.662 6.11656L9.7244 6.17736ZM14.5996 1.30376L14.5372 1.24136C13.0956 -0.200244 10.7372 -0.200244 9.2956 1.24136L5.9548 4.58216C4.5132 6.02376 4.5132 8.38216 5.9548 9.82376L6.0172 9.88456C6.1372 10.003 6.2668 10.1118 6.3964 10.2126L7.6188 8.99016C7.4764 8.90536 7.342 8.80456 7.2188 8.68296L7.1564 8.62216C6.374 7.83976 6.374 6.56456 7.1564 5.78216L10.4972 2.44296C11.278 1.66056 12.55 1.66056 13.334 2.44296L13.3964 2.50536C14.1788 3.28776 14.1788 4.56296 13.3964 5.34376L11.8876 6.85416C12.15 7.50216 12.2732 8.19176 12.262 8.87976L14.598 6.54376C16.0396 5.10216 16.0396 2.74376 14.5996 1.30376Z" fill="#242730"/>
</svg>
