<svg width="40" height="40" viewBox="0 0 40 40" fill="none" xmlns="http://www.w3.org/2000/svg">
<circle cx="20" cy="20" r="20" fill="white"/>
<path d="M31 22.2642V30H26.2646V22.7359C26.2646 20.9434 25.574 19.717 23.8969 19.717C22.6144 19.717 21.8251 20.566 21.5291 21.3208C21.4305 21.6038 21.3318 21.9811 21.3318 22.4528V30H16.5964C16.5964 30 16.6951 17.7359 16.5964 16.5094H21.3318V18.3962C21.9238 17.4528 23.1076 16.1321 25.574 16.1321C28.6323 16.1321 31 18.1132 31 22.2642ZM11.6637 10C10.0852 10 9 11.0377 9 12.3585C9 13.6792 9.98655 14.717 11.565 14.717C13.2422 14.717 14.2287 13.6792 14.2287 12.3585C14.3274 10.9434 13.3408 10 11.6637 10ZM9.29596 30H14.0314V16.5094H9.29596V30Z" fill="#302F2C"/>
</svg>
