<svg width="41" height="18" viewBox="0 0 41 18" fill="none" xmlns="http://www.w3.org/2000/svg">
<rect width="41" height="18" rx="6" fill="white" fill-opacity="0.2"/>
<path d="M9.528 6.392C9.63467 6.39733 9.72533 6.43733 9.8 6.512C9.87467 6.58133 9.912 6.66933 9.912 6.776V11.616C9.912 11.7227 9.87467 11.8133 9.8 11.888C9.73067 11.9627 9.63733 12 9.52 12C9.40267 12 9.30667 11.9653 9.232 11.896C9.15733 11.8213 9.12 11.728 9.12 11.616V7.912L7.568 10.264C7.53067 10.312 7.48267 10.352 7.424 10.384C7.37067 10.416 7.31467 10.4293 7.256 10.424C7.20267 10.4293 7.14667 10.416 7.088 10.384C7.03467 10.352 6.98933 10.312 6.952 10.264L5.392 7.84V11.616C5.392 11.728 5.35733 11.8213 5.288 11.896C5.224 11.9653 5.136 12 5.024 12C4.91733 12 4.82933 11.9653 4.76 11.896C4.696 11.8213 4.664 11.728 4.664 11.616V6.776C4.664 6.67467 4.70133 6.58667 4.776 6.512C4.85067 6.432 4.944 6.392 5.056 6.392C5.12 6.392 5.18133 6.408 5.24 6.44C5.304 6.472 5.35467 6.51467 5.392 6.568L7.288 9.44L9.208 6.568C9.29333 6.45067 9.4 6.392 9.528 6.392ZM15.5461 11.504C15.5621 11.552 15.5701 11.6027 15.5701 11.656C15.5701 11.7627 15.5328 11.8507 15.4581 11.92C15.3888 11.9893 15.3061 12.024 15.2101 12.024C15.1355 12.024 15.0661 12.0027 15.0021 11.96C14.9435 11.912 14.8955 11.848 14.8581 11.768L14.3621 10.592H11.8901L11.4021 11.776C11.3755 11.856 11.3301 11.9173 11.2661 11.96C11.2075 12.0027 11.1408 12.024 11.0661 12.024C10.9541 12.024 10.8688 11.9947 10.8101 11.936C10.7515 11.8773 10.7221 11.7973 10.7221 11.696C10.7221 11.6747 10.7275 11.632 10.7381 11.568L12.7781 6.624C12.8155 6.53867 12.8661 6.47467 12.9301 6.432C12.9995 6.384 13.0768 6.36533 13.1621 6.376C13.2421 6.376 13.3141 6.39733 13.3781 6.44C13.4421 6.48267 13.4875 6.544 13.5141 6.624L15.5461 11.504ZM12.1941 9.864H14.0581L13.1221 7.624L12.1941 9.864ZM20.5589 6.4C20.6603 6.4 20.7429 6.43467 20.8069 6.504C20.8709 6.568 20.9029 6.65067 20.9029 6.752V11.608C20.9029 11.72 20.8656 11.8133 20.7909 11.888C20.7216 11.9627 20.6309 12 20.5189 12C20.4603 12 20.4016 11.992 20.3429 11.976C20.2896 11.9547 20.2469 11.9253 20.2149 11.888L17.0709 7.792V11.648C17.0709 11.7493 17.0363 11.8347 16.9669 11.904C16.9029 11.968 16.8203 12 16.7189 12C16.6176 12 16.5349 11.968 16.4709 11.904C16.4069 11.8347 16.3749 11.7493 16.3749 11.648V6.784C16.3749 6.672 16.4096 6.58133 16.4789 6.512C16.5536 6.43733 16.6443 6.4 16.7509 6.4C16.8149 6.4 16.8763 6.41333 16.9349 6.44C16.9936 6.46133 17.0389 6.49333 17.0709 6.536L20.2069 10.64V6.752C20.2069 6.65067 20.2389 6.568 20.3029 6.504C20.3723 6.43467 20.4576 6.4 20.5589 6.4ZM26.5383 11.504C26.5543 11.552 26.5623 11.6027 26.5623 11.656C26.5623 11.7627 26.525 11.8507 26.4503 11.92C26.381 11.9893 26.2983 12.024 26.2023 12.024C26.1276 12.024 26.0583 12.0027 25.9943 11.96C25.9356 11.912 25.8876 11.848 25.8503 11.768L25.3543 10.592H22.8823L22.3943 11.776C22.3676 11.856 22.3223 11.9173 22.2583 11.96C22.1996 12.0027 22.133 12.024 22.0583 12.024C21.9463 12.024 21.861 11.9947 21.8023 11.936C21.7436 11.8773 21.7143 11.7973 21.7143 11.696C21.7143 11.6747 21.7196 11.632 21.7303 11.568L23.7703 6.624C23.8076 6.53867 23.8583 6.47467 23.9223 6.432C23.9916 6.384 24.069 6.36533 24.1543 6.376C24.2343 6.376 24.3063 6.39733 24.3703 6.44C24.4343 6.48267 24.4796 6.544 24.5063 6.624L26.5383 11.504ZM23.1863 9.864H25.0503L24.1143 7.624L23.1863 9.864ZM31.4401 9.056C31.5467 9.056 31.6347 9.09333 31.7041 9.168C31.7787 9.24267 31.8161 9.33333 31.8161 9.44V11.24C31.8161 11.384 31.7521 11.496 31.6241 11.576C31.3787 11.736 31.1094 11.8613 30.8161 11.952C30.5227 12.0373 30.2214 12.08 29.9121 12.08C29.3787 12.08 28.8881 11.952 28.4401 11.696C27.9974 11.44 27.6481 11.0933 27.3921 10.656C27.1361 10.2133 27.0081 9.728 27.0081 9.2C27.0081 8.672 27.1361 8.18933 27.3921 7.752C27.6481 7.30933 27.9974 6.96 28.4401 6.704C28.8881 6.448 29.3787 6.32 29.9121 6.32C30.1787 6.32 30.4347 6.34933 30.6801 6.408C30.9307 6.46667 31.1547 6.55467 31.3521 6.672C31.4161 6.70933 31.4641 6.75467 31.4961 6.808C31.5281 6.86133 31.5441 6.92 31.5441 6.984C31.5441 7.09067 31.5067 7.184 31.4321 7.264C31.3627 7.33867 31.2774 7.376 31.1761 7.376C31.0961 7.376 31.0267 7.35733 30.9681 7.32C30.6214 7.16 30.2694 7.08 29.9121 7.08C29.5281 7.08 29.1761 7.17333 28.8561 7.36C28.5414 7.54667 28.2907 7.80267 28.1041 8.128C27.9227 8.45333 27.8321 8.81067 27.8321 9.2C27.8321 9.58933 27.9227 9.94667 28.1041 10.272C28.2907 10.592 28.5414 10.848 28.8561 11.04C29.1761 11.2267 29.5281 11.32 29.9121 11.32C30.0934 11.32 30.2827 11.2987 30.4801 11.256C30.6827 11.2133 30.8561 11.1573 31.0001 11.088V9.816H30.0321C29.9254 9.816 29.8347 9.78133 29.7601 9.712C29.6854 9.63733 29.6481 9.54667 29.6481 9.44C29.6481 9.328 29.6854 9.23733 29.7601 9.168C29.8347 9.09333 29.9254 9.056 30.0321 9.056H31.4401ZM36.0586 11.264C36.1706 11.264 36.2612 11.3013 36.3306 11.376C36.4052 11.4507 36.4426 11.5387 36.4426 11.64C36.4426 11.7467 36.4052 11.8347 36.3306 11.904C36.2612 11.968 36.1706 12 36.0586 12H33.2746C33.1679 12 33.0772 11.9627 33.0026 11.888C32.9279 11.8133 32.8906 11.7227 32.8906 11.616V6.784C32.8906 6.67733 32.9279 6.58667 33.0026 6.512C33.0772 6.43733 33.1679 6.4 33.2746 6.4H36.0586C36.1706 6.4 36.2612 6.43467 36.3306 6.504C36.4052 6.57333 36.4426 6.664 36.4426 6.776C36.4426 6.88267 36.4052 6.97067 36.3306 7.04C36.2612 7.104 36.1706 7.136 36.0586 7.136H33.6826V8.768H35.6986C35.8106 8.768 35.9012 8.80267 35.9706 8.872C36.0452 8.94133 36.0826 9.02933 36.0826 9.136C36.0826 9.248 36.0452 9.336 35.9706 9.4C35.9012 9.464 35.8106 9.496 35.6986 9.496H33.6826V11.264H36.0586Z" fill="white"/>
</svg>
