<svg xmlns="http://www.w3.org/2000/svg" fill="none" viewBox="0 0 60 60">
  <defs/>
  <rect width="58" height="58" x="1" y="1" fill="#0BB0B1" stroke="#0BB0B1" stroke-width="2" rx="29"/>
  <g fill="#fff" clip-path="url(#clip0)">
    <path d="M29.974 16.154c-4.406 0-7.99 3.584-7.99 7.99a7.986 7.986 0 003.47 6.583 13.766 13.766 0 00-5.252 3.293 13.73 13.73 0 00-4.048 9.772h2.16c0-6.43 5.23-11.66 11.66-11.66 4.405 0 7.989-3.584 7.989-7.989 0-4.405-3.584-7.99-7.99-7.99zm0 13.82a5.837 5.837 0 01-5.83-5.83 5.837 5.837 0 015.83-5.83 5.837 5.837 0 015.83 5.83 5.837 5.837 0 01-5.83 5.83zM39.313 37.304v-4.535h-2.16v4.535H32.62v2.159h4.535v4.534h2.159v-4.534h4.534v-2.16h-4.534z"/>
  </g>
  <defs>
    <clipPath id="clip0">
      <path fill="#fff" d="M0 0h27.692v27.692H0z" transform="translate(16.154 16.154)"/>
    </clipPath>
  </defs>
</svg>
