<svg xmlns="http://www.w3.org/2000/svg" fill="none" viewBox="0 0 16 16">
  <defs/>
  <path fill="#8692A6" d="M8 0C3.589 0 0 3.589 0 8c0 4.412 3.589 8 8 8 4.412 0 8-3.588 8-8 0-4.411-3.588-8-8-8zm-.333 13.333a1.001 1.001 0 010-2 1.001 1.001 0 010 2zm1-4.066v1.066c0 .185-.15.334-.334.334H7a.333.333 0 01-.333-.334V8.667c0-.735.598-1.334 1.333-1.334S9.333 6.735 9.333 6 8.735 4.667 8 4.667 6.667 5.265 6.667 6v.333c0 .185-.15.334-.334.334H5a.333.333 0 01-.333-.334V6A3.337 3.337 0 018 2.667 3.337 3.337 0 0111.333 6a3.33 3.33 0 01-2.666 3.267z"/>
</svg>
