<svg xmlns="http://www.w3.org/2000/svg" fill="none" viewBox="0 0 31 18">
  <rect width="31" height="18" fill="#ADACAC" fill-opacity=".2" rx="6"/>
  <path fill="#000" d="M6.36 12.08a3.06 3.06 0 0 1-1.032-.16 2.695 2.695 0 0 1-.856-.536.425.425 0 0 1-.168-.328c0-.096.037-.181.112-.256a.35.35 0 0 1 .496-.032c.213.197.432.344.656.44.23.09.488.136.776.136.336 0 .619-.077.848-.232.235-.155.352-.35.352-.584a.738.738 0 0 0-.352-.64c-.224-.155-.568-.283-1.032-.384-.55-.112-.973-.296-1.272-.552-.293-.256-.44-.61-.44-1.064 0-.315.083-.59.248-.824a1.58 1.58 0 0 1 .688-.552c.293-.128.624-.192.992-.192.33 0 .643.053.936.16.293.107.53.248.712.424.123.107.184.221.184.344a.352.352 0 0 1-.112.256.336.336 0 0 1-.256.112.267.267 0 0 1-.184-.064A1.658 1.658 0 0 0 7.08 7.2a1.93 1.93 0 0 0-.704-.144c-.357 0-.643.075-.856.224a.668.668 0 0 0-.312.576c0 .261.104.461.312.6.213.139.528.256.944.352.416.09.755.197 1.016.32.267.123.472.293.616.512.144.219.216.504.216.856 0 .31-.088.584-.264.824-.17.24-.405.427-.704.56-.299.133-.627.2-.984.2Zm8.048-2.88a3.04 3.04 0 0 1-.352 1.464c-.23.437-.55.784-.96 1.04a2.62 2.62 0 0 1-1.392.376c-.517 0-.981-.125-1.392-.376a2.713 2.713 0 0 1-.968-1.04A3.104 3.104 0 0 1 9 9.2c0-.539.115-1.027.344-1.464.235-.437.558-.781.968-1.032.41-.256.875-.384 1.392-.384.518 0 .982.128 1.392.384.41.25.73.595.96 1.032.235.437.352.925.352 1.464Zm-.824 0c0-.4-.08-.76-.24-1.08a1.829 1.829 0 0 0-.672-.76 1.717 1.717 0 0 0-.968-.28c-.362 0-.688.09-.976.272a1.848 1.848 0 0 0-.664.76 2.4 2.4 0 0 0-.24 1.088c0 .4.08.763.24 1.088.16.32.382.573.664.76.288.181.614.272.976.272.363 0 .686-.09.968-.272.288-.187.512-.44.672-.76.16-.325.24-.688.24-1.088Zm6.918 0a3.04 3.04 0 0 1-.352 1.464c-.23.437-.55.784-.96 1.04-.41.25-.875.376-1.392.376-.517 0-.981-.125-1.392-.376a2.714 2.714 0 0 1-.968-1.04 3.104 3.104 0 0 1-.344-1.464c0-.539.115-1.027.344-1.464.235-.437.557-.781.968-1.032.41-.256.875-.384 1.392-.384.517 0 .981.128 1.392.384.41.25.73.595.96 1.032.235.437.352.925.352 1.464Zm-.824 0c0-.4-.08-.76-.24-1.08a1.829 1.829 0 0 0-.672-.76 1.717 1.717 0 0 0-.968-.28c-.363 0-.688.09-.976.272a1.848 1.848 0 0 0-.664.76 2.4 2.4 0 0 0-.24 1.088c0 .4.08.763.24 1.088.16.32.381.573.664.76.288.181.613.272.976.272s.685-.09.968-.272c.288-.187.512-.44.672-.76.16-.325.24-.688.24-1.088Zm6.014-2.8c.101 0 .184.035.248.104a.336.336 0 0 1 .096.248v4.856a.38.38 0 0 1-.112.28.354.354 0 0 1-.272.112.666.666 0 0 1-.176-.024.322.322 0 0 1-.128-.088l-3.144-4.096v3.856a.348.348 0 0 1-.104.256.336.336 0 0 1-.248.096.335.335 0 0 1-.248-.096.363.363 0 0 1-.096-.256V6.784a.368.368 0 0 1 .376-.384.44.44 0 0 1 .184.04.288.288 0 0 1 .136.096l3.136 4.104V6.752c0-.101.032-.184.096-.248a.348.348 0 0 1 .256-.104Z"/>
</svg>
