<svg width="78" height="16" viewBox="0 0 78 16" fill="none" xmlns="http://www.w3.org/2000/svg">
<path d="M27.123 11.505C27.3483 11.505 27.5347 11.583 27.682 11.739C27.838 11.8863 27.916 12.0597 27.916 12.259C27.916 12.4757 27.838 12.6533 27.682 12.792C27.5347 12.9307 27.3483 13 27.123 13H22.768C22.5427 13 22.352 12.9263 22.196 12.779C22.0487 12.623 21.975 12.4323 21.975 12.207V4.693C21.975 4.46767 22.0487 4.28133 22.196 4.134C22.352 3.978 22.5427 3.9 22.768 3.9H27.123C27.3483 3.9 27.5347 3.97367 27.682 4.121C27.838 4.25967 27.916 4.44167 27.916 4.667C27.916 4.88367 27.8423 5.06133 27.695 5.2C27.5477 5.33 27.357 5.395 27.123 5.395H23.6V7.605H26.538C26.7633 7.605 26.9497 7.67867 27.097 7.826C27.253 7.96467 27.331 8.14667 27.331 8.372C27.331 8.58867 27.2573 8.76633 27.11 8.905C26.9627 9.035 26.772 9.1 26.538 9.1H23.6V11.505H27.123ZM34.4065 11.765C34.5191 11.9037 34.5755 12.0597 34.5755 12.233C34.5755 12.4497 34.4931 12.636 34.3285 12.792C34.1638 12.948 33.9818 13.026 33.7825 13.026C33.5311 13.026 33.3188 12.9133 33.1455 12.688L31.5855 10.751L30.0645 12.688C29.9865 12.792 29.8911 12.8743 29.7785 12.935C29.6745 12.987 29.5618 13.013 29.4405 13.013C29.2585 13.013 29.0851 12.9437 28.9205 12.805C28.7558 12.6663 28.6735 12.506 28.6735 12.324C28.6735 12.1507 28.7385 11.986 28.8685 11.83L30.6755 9.62L28.8035 7.293C28.6908 7.15433 28.6345 6.99833 28.6345 6.825C28.6345 6.60833 28.7125 6.42633 28.8685 6.279C29.0331 6.123 29.2195 6.045 29.4275 6.045C29.6788 6.045 29.8911 6.15333 30.0645 6.37L31.6635 8.359L33.1455 6.396C33.3101 6.162 33.5181 6.045 33.7695 6.045C33.9775 6.045 34.1508 6.11867 34.2895 6.266C34.4368 6.40467 34.5105 6.565 34.5105 6.747C34.5105 6.93767 34.4498 7.10667 34.3285 7.254L32.5345 9.438L34.4065 11.765ZM41.8594 9.36C41.8507 9.568 41.7684 9.737 41.6124 9.867C41.4564 9.997 41.2744 10.062 41.0664 10.062H36.7764C36.8804 10.5733 37.1187 10.9763 37.4914 11.271C37.8641 11.557 38.2844 11.7 38.7524 11.7C39.1077 11.7 39.3851 11.6697 39.5844 11.609C39.7837 11.5397 39.9397 11.4703 40.0524 11.401C40.1737 11.323 40.2561 11.271 40.2994 11.245C40.4554 11.167 40.6027 11.128 40.7414 11.128C40.9234 11.128 41.0794 11.193 41.2094 11.323C41.3394 11.453 41.4044 11.6047 41.4044 11.778C41.4044 12.012 41.2831 12.2243 41.0404 12.415C40.7977 12.6143 40.4727 12.7833 40.0654 12.922C39.6581 13.0607 39.2464 13.13 38.8304 13.13C38.1024 13.13 37.4654 12.9783 36.9194 12.675C36.3821 12.3717 35.9661 11.9557 35.6714 11.427C35.3767 10.8897 35.2294 10.2873 35.2294 9.62C35.2294 8.87467 35.3854 8.22033 35.6974 7.657C36.0094 7.09367 36.4211 6.66467 36.9324 6.37C37.4437 6.06667 37.9897 5.915 38.5704 5.915C39.1424 5.915 39.6797 6.071 40.1824 6.383C40.6937 6.695 41.1011 7.11533 41.4044 7.644C41.7077 8.17267 41.8594 8.74467 41.8594 9.36ZM38.5704 7.345C37.5651 7.345 36.9714 7.81733 36.7894 8.762H40.1954V8.671C40.1607 8.307 39.9831 7.995 39.6624 7.735C39.3417 7.475 38.9777 7.345 38.5704 7.345ZM46.1894 5.915C46.9261 5.915 47.5198 6.032 47.9704 6.266C48.4211 6.49133 48.6464 6.79467 48.6464 7.176C48.6464 7.36667 48.5901 7.53567 48.4774 7.683C48.3648 7.82167 48.2174 7.891 48.0354 7.891C47.8968 7.891 47.7841 7.87367 47.6974 7.839C47.6108 7.79567 47.5241 7.74367 47.4374 7.683C47.3594 7.61367 47.2814 7.55733 47.2034 7.514C47.1168 7.47067 46.9868 7.43167 46.8134 7.397C46.6488 7.36233 46.5144 7.345 46.4104 7.345C45.7604 7.345 45.2491 7.54867 44.8764 7.956C44.5124 8.35467 44.3304 8.879 44.3304 9.529C44.3304 10.153 44.5168 10.673 44.8894 11.089C45.2621 11.4963 45.7388 11.7 46.3194 11.7C46.7441 11.7 47.0604 11.648 47.2684 11.544C47.3204 11.518 47.3898 11.4747 47.4764 11.414C47.5718 11.3447 47.6584 11.2927 47.7364 11.258C47.8144 11.2233 47.9098 11.206 48.0224 11.206C48.2391 11.206 48.4081 11.2753 48.5294 11.414C48.6594 11.5527 48.7244 11.7303 48.7244 11.947C48.7244 12.155 48.6031 12.35 48.3604 12.532C48.1178 12.714 47.7971 12.8613 47.3984 12.974C46.9998 13.078 46.5751 13.13 46.1244 13.13C45.4571 13.13 44.8678 12.974 44.3564 12.662C43.8538 12.35 43.4638 11.921 43.1864 11.375C42.9091 10.8203 42.7704 10.205 42.7704 9.529C42.7704 8.827 42.9134 8.203 43.1994 7.657C43.4941 7.111 43.9014 6.68633 44.4214 6.383C44.9414 6.071 45.5308 5.915 46.1894 5.915ZM55.0119 6.045C55.2372 6.045 55.4235 6.123 55.5709 6.279C55.7182 6.42633 55.7919 6.61267 55.7919 6.838V10.14C55.7919 11.076 55.5319 11.8083 55.0119 12.337C54.5005 12.8657 53.7682 13.13 52.8149 13.13C51.8615 13.13 51.1292 12.8657 50.6179 12.337C50.1065 11.8083 49.8509 11.076 49.8509 10.14V6.838C49.8509 6.61267 49.9245 6.42633 50.0719 6.279C50.2192 6.123 50.4055 6.045 50.6309 6.045C50.8562 6.045 51.0425 6.123 51.1899 6.279C51.3372 6.42633 51.4109 6.61267 51.4109 6.838V10.14C51.4109 10.6687 51.5279 11.063 51.7619 11.323C51.9959 11.5743 52.3469 11.7 52.8149 11.7C53.2915 11.7 53.6469 11.5743 53.8809 11.323C54.1149 11.063 54.2319 10.6687 54.2319 10.14V6.838C54.2319 6.61267 54.3055 6.42633 54.4529 6.279C54.6002 6.123 54.7865 6.045 55.0119 6.045ZM60.8347 11.531C60.9561 11.531 61.0644 11.5917 61.1597 11.713C61.2637 11.8257 61.3157 11.9773 61.3157 12.168C61.3157 12.402 61.1857 12.6013 60.9257 12.766C60.6744 12.922 60.3884 13 60.0677 13C59.5304 13 59.0754 12.8873 58.7027 12.662C58.3387 12.428 58.1567 11.9383 58.1567 11.193V7.605H57.5587C57.3507 7.605 57.1774 7.53567 57.0387 7.397C56.9001 7.25833 56.8307 7.085 56.8307 6.877C56.8307 6.67767 56.9001 6.513 57.0387 6.383C57.1774 6.24433 57.3507 6.175 57.5587 6.175H58.1567V5.343C58.1567 5.11767 58.2304 4.93133 58.3777 4.784C58.5337 4.628 58.7244 4.55 58.9497 4.55C59.1664 4.55 59.3484 4.628 59.4957 4.784C59.6431 4.93133 59.7167 5.11767 59.7167 5.343V6.175H60.6397C60.8477 6.175 61.0211 6.24433 61.1597 6.383C61.2984 6.52167 61.3677 6.695 61.3677 6.903C61.3677 7.10233 61.2984 7.27133 61.1597 7.41C61.0211 7.54 60.8477 7.605 60.6397 7.605H59.7167V11.128C59.7167 11.31 59.7644 11.4443 59.8597 11.531C59.9551 11.609 60.0851 11.648 60.2497 11.648C60.3191 11.648 60.4144 11.6307 60.5357 11.596C60.6397 11.5527 60.7394 11.531 60.8347 11.531ZM68.9766 9.36C68.9679 9.568 68.8856 9.737 68.7296 9.867C68.5736 9.997 68.3916 10.062 68.1836 10.062H63.8936C63.9976 10.5733 64.2359 10.9763 64.6086 11.271C64.9813 11.557 65.4016 11.7 65.8696 11.7C66.2249 11.7 66.5023 11.6697 66.7016 11.609C66.9009 11.5397 67.0569 11.4703 67.1696 11.401C67.2909 11.323 67.3733 11.271 67.4166 11.245C67.5726 11.167 67.7199 11.128 67.8586 11.128C68.0406 11.128 68.1966 11.193 68.3266 11.323C68.4566 11.453 68.5216 11.6047 68.5216 11.778C68.5216 12.012 68.4003 12.2243 68.1576 12.415C67.9149 12.6143 67.5899 12.7833 67.1826 12.922C66.7753 13.0607 66.3636 13.13 65.9476 13.13C65.2196 13.13 64.5826 12.9783 64.0366 12.675C63.4993 12.3717 63.0833 11.9557 62.7886 11.427C62.4939 10.8897 62.3466 10.2873 62.3466 9.62C62.3466 8.87467 62.5026 8.22033 62.8146 7.657C63.1266 7.09367 63.5383 6.66467 64.0496 6.37C64.5609 6.06667 65.1069 5.915 65.6876 5.915C66.2596 5.915 66.7969 6.071 67.2996 6.383C67.8109 6.695 68.2183 7.11533 68.5216 7.644C68.8249 8.17267 68.9766 8.74467 68.9766 9.36ZM65.6876 7.345C64.6823 7.345 64.0886 7.81733 63.9066 8.762H67.3126V8.671C67.2779 8.307 67.1003 7.995 66.7796 7.735C66.4589 7.475 66.0949 7.345 65.6876 7.345ZM75.9066 3.38C76.132 3.38 76.3183 3.45367 76.4656 3.601C76.613 3.74833 76.6866 3.939 76.6866 4.173V12.207C76.6866 12.4323 76.613 12.623 76.4656 12.779C76.3183 12.9263 76.132 13 75.9066 13C75.6813 13 75.495 12.9263 75.3476 12.779C75.209 12.6317 75.1353 12.4453 75.1266 12.22C74.91 12.4713 74.6153 12.688 74.2426 12.87C73.8786 13.0433 73.493 13.13 73.0856 13.13C72.4876 13.13 71.946 12.9783 71.4606 12.675C70.9753 12.363 70.5896 11.934 70.3036 11.388C70.0263 10.842 69.8876 10.2223 69.8876 9.529C69.8876 8.83567 70.0263 8.216 70.3036 7.67C70.581 7.11533 70.958 6.68633 71.4346 6.383C71.92 6.071 72.453 5.915 73.0336 5.915C73.4496 5.915 73.8396 5.993 74.2036 6.149C74.5676 6.29633 74.8753 6.487 75.1266 6.721V4.173C75.1266 3.94767 75.2003 3.76133 75.3476 3.614C75.495 3.458 75.6813 3.38 75.9066 3.38ZM73.2806 11.7C73.844 11.7 74.3033 11.4963 74.6586 11.089C75.014 10.673 75.1916 10.153 75.1916 9.529C75.1916 8.905 75.014 8.385 74.6586 7.969C74.3033 7.553 73.844 7.345 73.2806 7.345C72.726 7.345 72.271 7.553 71.9156 7.969C71.5603 8.385 71.3826 8.905 71.3826 9.529C71.3826 10.153 71.556 10.673 71.9026 11.089C72.258 11.4963 72.7173 11.7 73.2806 11.7Z" fill="#8692A6" fill-opacity="0.5"/>
<path d="M6 12.1905C6.39782 12.1905 6.77936 12.0299 7.06066 11.7442C7.34196 11.4584 7.5 11.0708 7.5 10.6667C7.5 9.82095 6.825 9.14286 6 9.14286C5.60218 9.14286 5.22064 9.3034 4.93934 9.58917C4.65804 9.87494 4.5 10.2625 4.5 10.6667C4.5 11.0708 4.65804 11.4584 4.93934 11.7442C5.22064 12.0299 5.60218 12.1905 6 12.1905ZM10.5 5.33333C10.8978 5.33333 11.2794 5.49388 11.5607 5.77965C11.842 6.06542 12 6.453 12 6.85714V14.4762C12 14.8803 11.842 15.2679 11.5607 15.5537C11.2794 15.8395 10.8978 16 10.5 16H1.5C1.10218 16 0.720644 15.8395 0.43934 15.5537C0.158035 15.2679 0 14.8803 0 14.4762V6.85714C0 6.01143 0.675 5.33333 1.5 5.33333H2.25V3.80952C2.25 2.79918 2.64509 1.83021 3.34835 1.11578C4.05161 0.401359 5.00544 0 6 0C6.49246 0 6.98009 0.0985363 7.43506 0.289983C7.89003 0.481429 8.30343 0.762037 8.65165 1.11578C8.99987 1.46953 9.27609 1.88949 9.46455 2.35168C9.653 2.81387 9.75 3.30925 9.75 3.80952V5.33333H10.5ZM6 1.52381C5.40326 1.52381 4.83097 1.76463 4.40901 2.19328C3.98705 2.62193 3.75 3.20331 3.75 3.80952V5.33333H8.25V3.80952C8.25 3.20331 8.01295 2.62193 7.59099 2.19328C7.16903 1.76463 6.59674 1.52381 6 1.52381Z" fill="#8692A6" fill-opacity="0.5"/>
</svg>
