<svg xmlns="http://www.w3.org/2000/svg" fill="none" viewBox="0 0 52 18">
  <rect width="52" height="18" fill="#fff" fill-opacity=".2" rx="6"/>
  <path fill="#fff" d="M8.3 6.4c.1 0 .2.03.27.1s.11.16.11.27c0 .11-.04.2-.11.26a.39.39 0 0 1-.27.1H6.87v4.49c0 .1-.04.2-.12.27a.39.39 0 0 1-.29.11.42.42 0 0 1-.3-.11.37.37 0 0 1-.1-.27v-4.5H4.64a.42.42 0 0 1-.28-.09.37.37 0 0 1-.1-.27c0-.1.03-.2.1-.26a.4.4 0 0 1 .28-.1H8.3Zm5.2 5.1c.02.05.03.1.03.16 0 .1-.04.2-.11.26a.34.34 0 0 1-.25.1.37.37 0 0 1-.2-.06.53.53 0 0 1-.15-.2l-.5-1.17H9.85l-.49 1.19a.34.34 0 0 1-.13.18.33.33 0 0 1-.2.06.4.4 0 0 1-.26-.08.32.32 0 0 1-.09-.24c0-.03 0-.07.02-.13l2.04-4.95a.43.43 0 0 1 .15-.19.32.32 0 0 1 .23-.05.4.4 0 0 1 .22.06c.06.04.1.1.14.18l2.03 4.88Zm-3.34-1.64h1.86l-.94-2.24-.92 2.24Zm8.43 1.5c.06.07.09.15.09.26 0 .11-.05.2-.14.28a.44.44 0 0 1-.3.12c-.1 0-.2-.05-.27-.15l-1.95-2.5-.9.85v1.39a.4.4 0 0 1-.1.28.39.39 0 0 1-.3.11.39.39 0 0 1-.28-.11.4.4 0 0 1-.1-.28V6.78c0-.1.03-.2.1-.27a.39.39 0 0 1 .3-.11c.11 0 .2.04.28.11.07.07.1.16.1.27v2.5l2.85-2.76c.1-.1.2-.14.3-.14.1 0 .18.04.25.12.07.08.1.17.1.26a.4.4 0 0 1-.1.25l-1.9 1.79 1.97 2.55Zm4.22-.1c.11 0 .2.04.27.12.08.07.11.16.11.26s-.03.2-.1.26a.39.39 0 0 1-.28.1h-2.79c-.1 0-.2-.04-.27-.11a.37.37 0 0 1-.1-.27V6.78c0-.1.03-.2.1-.27a.37.37 0 0 1 .27-.11h2.79a.37.37 0 0 1 .38.38c0 .1-.03.2-.1.26a.39.39 0 0 1-.28.1h-2.38v1.63h2.02c.11 0 .2.03.27.1.08.07.11.16.11.27 0 .1-.03.2-.1.26a.39.39 0 0 1-.28.1h-2.02v1.76h2.38Zm7.92.24.02.16c0 .1-.04.2-.11.26a.34.34 0 0 1-.25.1.37.37 0 0 1-.2-.06.53.53 0 0 1-.15-.2l-.5-1.17h-2.47l-.49 1.19a.34.34 0 0 1-.13.18.33.33 0 0 1-.2.06.38.38 0 0 1-.26-.08.32.32 0 0 1-.09-.24c0-.03 0-.07.02-.13l2.04-4.95a.43.43 0 0 1 .15-.19.32.32 0 0 1 .23-.05c.08 0 .15.02.22.06.06.04.1.1.13.18l2.04 4.88Zm-3.36-1.64h1.87l-.94-2.24-.93 2.24Zm10.38-3.48c.1 0 .2.03.28.1.09.08.13.18.13.3 0 .05 0 .1-.03.14l-1.65 4.84a.3.3 0 0 1-.14.18.47.47 0 0 1-.2.06.4.4 0 0 1-.22-.06.37.37 0 0 1-.15-.19l-1.25-2.92-1.24 2.92a.37.37 0 0 1-.15.19.42.42 0 0 1-.23.06.42.42 0 0 1-.2-.07.3.3 0 0 1-.13-.17L30.9 6.92a.43.43 0 0 1-.02-.14c0-.11.04-.2.12-.28.1-.08.2-.12.3-.12a.4.4 0 0 1 .22.07c.07.04.12.1.14.17l1.35 4.01 1.16-2.85a.38.38 0 0 1 .36-.24.38.38 0 0 1 .36.24l1.13 2.85 1.34-4a.3.3 0 0 1 .14-.19.45.45 0 0 1 .24-.06Zm5.37 5.12c.02.05.03.1.03.16 0 .1-.04.2-.11.26a.34.34 0 0 1-.25.1.37.37 0 0 1-.21-.06.53.53 0 0 1-.14-.2l-.5-1.17h-2.47l-.49 1.19a.34.34 0 0 1-.14.18.33.33 0 0 1-.2.06c-.1 0-.2-.03-.25-.08a.32.32 0 0 1-.09-.24c0-.03 0-.07.02-.13l2.04-4.95a.43.43 0 0 1 .15-.19.32.32 0 0 1 .23-.05c.08 0 .15.02.22.06.06.04.1.1.13.18l2.03 4.88Zm-3.35-1.64h1.87l-.94-2.24-.93 2.24Zm7.69-3.1c0 .08-.03.16-.07.24l-1.72 2.42v2.2c0 .1-.04.2-.12.27a.34.34 0 0 1-.25.11c-.1 0-.2-.04-.27-.11a.37.37 0 0 1-.12-.27V9.36l-1.7-2.31a.47.47 0 0 1-.12-.29c0-.1.04-.2.13-.27a.42.42 0 0 1 .28-.11c.12 0 .22.05.3.17l1.51 2.08 1.45-2.07c.09-.12.2-.18.32-.18.1 0 .2.03.27.1.07.08.1.17.1.28Z"/>
</svg>
