<svg width="142" height="30" viewBox="0 0 142 30" fill="none" xmlns="http://www.w3.org/2000/svg">
<path d="M83.8284 10.1474C84.6675 9.81502 85.6269 9.6481 86.7095 9.6481V14.2649C86.2401 14.2108 85.8528 14.1844 85.5462 14.1844C84.446 14.1844 83.5849 14.4817 82.9629 15.0747C82.3409 15.6692 82.0299 16.5785 82.0299 17.8012V24.5251H76.8898V9.6481H81.7864V11.6454C82.3101 10.9791 82.9908 10.4798 83.8284 10.1474Z" fill="#0BB0B1"/>
<path d="M83.8284 10.1474C84.6675 9.81502 85.6269 9.6481 86.7095 9.6481V14.2649C86.2401 14.2108 85.8528 14.1844 85.5462 14.1844C84.446 14.1844 83.5849 14.4817 82.9629 15.0747C82.3409 15.6692 82.0299 16.5785 82.0299 17.8012V24.5251H76.8898V9.6481H81.7864V11.6454C82.3101 10.9791 82.9908 10.4798 83.8284 10.1474Z" fill="url(#paint0_linear)"/>
<path d="M83.8284 10.1474C84.6675 9.81502 85.6269 9.6481 86.7095 9.6481V14.2649C86.2401 14.2108 85.8528 14.1844 85.5462 14.1844C84.446 14.1844 83.5849 14.4817 82.9629 15.0747C82.3409 15.6692 82.0299 16.5785 82.0299 17.8012V24.5251H76.8898V9.6481H81.7864V11.6454C82.3101 10.9791 82.9908 10.4798 83.8284 10.1474Z" fill="white"/>
<path d="M44.3457 9.64663H36.7044V4.84967H57.0758V9.64663H49.7015V24.5251H44.3457V9.64663Z" fill="#0BB0B1"/>
<path d="M44.3457 9.64663H36.7044V4.84967H57.0758V9.64663H49.7015V24.5251H44.3457V9.64663Z" fill="url(#paint1_linear)"/>
<path d="M44.3457 9.64663H36.7044V4.84967H57.0758V9.64663H49.7015V24.5251H44.3457V9.64663Z" fill="white"/>
<path d="M68.2935 11.6717C67.3194 10.3216 65.7865 9.64662 63.6946 9.64662C62.3964 9.64662 61.1964 9.93947 60.0977 10.5237C58.9975 11.1094 58.1232 11.9367 57.4733 13.0071C56.8235 14.079 56.4993 15.3075 56.4993 16.6927C56.4993 18.0969 56.8235 19.3342 57.4733 20.4046C58.1232 21.475 58.9975 22.3038 60.0977 22.888C61.1979 23.4737 62.3964 23.7651 63.6946 23.7651C65.606 23.7651 67.0583 23.1897 68.05 22.0373V22.5234C68.05 23.6934 67.7346 24.5763 67.1038 25.1694C66.473 25.7639 65.4813 26.0596 64.1288 26.0596C63.2457 26.0596 62.348 25.9205 61.437 25.6409C60.526 25.3612 59.7735 24.979 59.1779 24.4929L57.312 28.0833C58.1951 28.7129 59.2689 29.1903 60.5304 29.5139C61.792 29.8375 63.1445 30 64.588 30C67.3649 30 69.4934 29.3206 70.9721 27.9617C72.4508 26.6029 73.1901 24.5646 73.1901 21.8455V9.64076H68.2935V11.6717ZM67.1977 18.854C66.5933 19.4118 65.8319 19.6915 64.9122 19.6915C63.9924 19.6915 63.2252 19.4133 62.6135 18.854C62.0003 18.2961 61.6937 17.5757 61.6937 16.6942C61.6937 15.8127 61.9959 15.0966 62.6003 14.5475C63.2047 13.9984 63.9748 13.7246 64.9136 13.7246C65.851 13.7246 66.6182 13.9999 67.2123 14.5475C67.8079 15.0966 68.1057 15.8127 68.1057 16.6942C68.1042 17.5771 67.802 18.2961 67.1977 18.854Z" fill="#0BB0B1"/>
<path d="M68.2935 11.6717C67.3194 10.3216 65.7865 9.64662 63.6946 9.64662C62.3964 9.64662 61.1964 9.93947 60.0977 10.5237C58.9975 11.1094 58.1232 11.9367 57.4733 13.0071C56.8235 14.079 56.4993 15.3075 56.4993 16.6927C56.4993 18.0969 56.8235 19.3342 57.4733 20.4046C58.1232 21.475 58.9975 22.3038 60.0977 22.888C61.1979 23.4737 62.3964 23.7651 63.6946 23.7651C65.606 23.7651 67.0583 23.1897 68.05 22.0373V22.5234C68.05 23.6934 67.7346 24.5763 67.1038 25.1694C66.473 25.7639 65.4813 26.0596 64.1288 26.0596C63.2457 26.0596 62.348 25.9205 61.437 25.6409C60.526 25.3612 59.7735 24.979 59.1779 24.4929L57.312 28.0833C58.1951 28.7129 59.2689 29.1903 60.5304 29.5139C61.792 29.8375 63.1445 30 64.588 30C67.3649 30 69.4934 29.3206 70.9721 27.9617C72.4508 26.6029 73.1901 24.5646 73.1901 21.8455V9.64076H68.2935V11.6717ZM67.1977 18.854C66.5933 19.4118 65.8319 19.6915 64.9122 19.6915C63.9924 19.6915 63.2252 19.4133 62.6135 18.854C62.0003 18.2961 61.6937 17.5757 61.6937 16.6942C61.6937 15.8127 61.9959 15.0966 62.6003 14.5475C63.2047 13.9984 63.9748 13.7246 64.9136 13.7246C65.851 13.7246 66.6182 13.9999 67.2123 14.5475C67.8079 15.0966 68.1057 15.8127 68.1057 16.6942C68.1042 17.5771 67.802 18.2961 67.1977 18.854Z" fill="url(#paint2_linear)"/>
<path d="M68.2935 11.6717C67.3194 10.3216 65.7865 9.64662 63.6946 9.64662C62.3964 9.64662 61.1964 9.93947 60.0977 10.5237C58.9975 11.1094 58.1232 11.9367 57.4733 13.0071C56.8235 14.079 56.4993 15.3075 56.4993 16.6927C56.4993 18.0969 56.8235 19.3342 57.4733 20.4046C58.1232 21.475 58.9975 22.3038 60.0977 22.888C61.1979 23.4737 62.3964 23.7651 63.6946 23.7651C65.606 23.7651 67.0583 23.1897 68.05 22.0373V22.5234C68.05 23.6934 67.7346 24.5763 67.1038 25.1694C66.473 25.7639 65.4813 26.0596 64.1288 26.0596C63.2457 26.0596 62.348 25.9205 61.437 25.6409C60.526 25.3612 59.7735 24.979 59.1779 24.4929L57.312 28.0833C58.1951 28.7129 59.2689 29.1903 60.5304 29.5139C61.792 29.8375 63.1445 30 64.588 30C67.3649 30 69.4934 29.3206 70.9721 27.9617C72.4508 26.6029 73.1901 24.5646 73.1901 21.8455V9.64076H68.2935V11.6717ZM67.1977 18.854C66.5933 19.4118 65.8319 19.6915 64.9122 19.6915C63.9924 19.6915 63.2252 19.4133 62.6135 18.854C62.0003 18.2961 61.6937 17.5757 61.6937 16.6942C61.6937 15.8127 61.9959 15.0966 62.6003 14.5475C63.2047 13.9984 63.9748 13.7246 64.9136 13.7246C65.851 13.7246 66.6182 13.9999 67.2123 14.5475C67.8079 15.0966 68.1057 15.8127 68.1057 16.6942C68.1042 17.5771 67.802 18.2961 67.1977 18.854Z" fill="white"/>
<path d="M101.272 11.3071C99.9911 10.2001 98.134 9.64663 95.7003 9.64663C94.5283 9.64663 93.3606 9.79453 92.1973 10.0918C91.034 10.389 90.0468 10.8078 89.2355 11.3481L90.9665 14.8316C91.4711 14.4363 92.0843 14.1258 92.8061 13.9003C93.5278 13.6748 94.2393 13.5636 94.9434 13.5636C96.9267 13.5636 97.9638 14.3382 98.0548 15.8859H95.1312C92.9132 15.8859 91.2717 16.2681 90.2081 17.0339C89.1446 17.7997 88.6121 18.8745 88.6121 20.2611C88.6121 21.1251 88.8233 21.8953 89.2473 22.5703C89.6712 23.2453 90.2976 23.7813 91.1264 24.1766C91.9552 24.572 92.9381 24.7711 94.075 24.7711C96.2211 24.7711 97.6631 24.0609 98.4024 22.6377V24.528H103.191V16.4013C103.192 14.1112 102.552 12.4156 101.272 11.3071ZM98.0533 19.8263C97.8553 20.3841 97.5296 20.8073 97.0793 21.0958C96.6289 21.3842 96.1052 21.5277 95.5111 21.5277C94.917 21.5277 94.4461 21.393 94.1043 21.1221C93.761 20.8527 93.5909 20.4925 93.5909 20.0415C93.5909 19.0517 94.339 18.5567 95.8368 18.5567H98.0548L98.0533 19.8263Z" fill="#0BB0B1"/>
<path d="M101.272 11.3071C99.9911 10.2001 98.134 9.64663 95.7003 9.64663C94.5283 9.64663 93.3606 9.79453 92.1973 10.0918C91.034 10.389 90.0468 10.8078 89.2355 11.3481L90.9665 14.8316C91.4711 14.4363 92.0843 14.1258 92.8061 13.9003C93.5278 13.6748 94.2393 13.5636 94.9434 13.5636C96.9267 13.5636 97.9638 14.3382 98.0548 15.8859H95.1312C92.9132 15.8859 91.2717 16.2681 90.2081 17.0339C89.1446 17.7997 88.6121 18.8745 88.6121 20.2611C88.6121 21.1251 88.8233 21.8953 89.2473 22.5703C89.6712 23.2453 90.2976 23.7813 91.1264 24.1766C91.9552 24.572 92.9381 24.7711 94.075 24.7711C96.2211 24.7711 97.6631 24.0609 98.4024 22.6377V24.528H103.191V16.4013C103.192 14.1112 102.552 12.4156 101.272 11.3071ZM98.0533 19.8263C97.8553 20.3841 97.5296 20.8073 97.0793 21.0958C96.6289 21.3842 96.1052 21.5277 95.5111 21.5277C94.917 21.5277 94.4461 21.393 94.1043 21.1221C93.761 20.8527 93.5909 20.4925 93.5909 20.0415C93.5909 19.0517 94.339 18.5567 95.8368 18.5567H98.0548L98.0533 19.8263Z" fill="url(#paint3_linear)"/>
<path d="M101.272 11.3071C99.9911 10.2001 98.134 9.64663 95.7003 9.64663C94.5283 9.64663 93.3606 9.79453 92.1973 10.0918C91.034 10.389 90.0468 10.8078 89.2355 11.3481L90.9665 14.8316C91.4711 14.4363 92.0843 14.1258 92.8061 13.9003C93.5278 13.6748 94.2393 13.5636 94.9434 13.5636C96.9267 13.5636 97.9638 14.3382 98.0548 15.8859H95.1312C92.9132 15.8859 91.2717 16.2681 90.2081 17.0339C89.1446 17.7997 88.6121 18.8745 88.6121 20.2611C88.6121 21.1251 88.8233 21.8953 89.2473 22.5703C89.6712 23.2453 90.2976 23.7813 91.1264 24.1766C91.9552 24.572 92.9381 24.7711 94.075 24.7711C96.2211 24.7711 97.6631 24.0609 98.4024 22.6377V24.528H103.191V16.4013C103.192 14.1112 102.552 12.4156 101.272 11.3071ZM98.0533 19.8263C97.8553 20.3841 97.5296 20.8073 97.0793 21.0958C96.6289 21.3842 96.1052 21.5277 95.5111 21.5277C94.917 21.5277 94.4461 21.393 94.1043 21.1221C93.761 20.8527 93.5909 20.4925 93.5909 20.0415C93.5909 19.0517 94.339 18.5567 95.8368 18.5567H98.0548L98.0533 19.8263Z" fill="white"/>
<path d="M117.835 11.1592C116.879 10.1518 115.526 9.64663 113.777 9.64663C112.443 9.64663 111.225 9.95266 110.126 10.5647C109.026 11.1768 108.156 12.0539 107.517 13.1975C106.876 14.3411 106.556 15.6677 106.556 17.1803C106.556 18.6929 106.876 20.0239 107.517 21.1763C108.156 22.3287 109.026 23.2146 110.126 23.8354C111.226 24.4563 112.443 24.7667 113.777 24.7667C115.689 24.7667 117.122 24.2 118.079 23.0652V24.5236H122.975V4.84967H117.835V11.1592ZM117.05 19.7589C116.472 20.3797 115.743 20.6902 114.859 20.6902C113.956 20.6902 113.217 20.3797 112.641 19.7589C112.063 19.138 111.775 18.2785 111.775 17.1803C111.775 16.0997 112.064 15.2548 112.641 14.6427C113.217 14.0307 113.956 13.7246 114.859 13.7246C115.759 13.7246 116.496 14.0307 117.063 14.6427C117.631 15.2548 117.916 16.1011 117.916 17.1803C117.916 18.2785 117.628 19.138 117.05 19.7589Z" fill="#0BB0B1"/>
<path d="M117.835 11.1592C116.879 10.1518 115.526 9.64663 113.777 9.64663C112.443 9.64663 111.225 9.95266 110.126 10.5647C109.026 11.1768 108.156 12.0539 107.517 13.1975C106.876 14.3411 106.556 15.6677 106.556 17.1803C106.556 18.6929 106.876 20.0239 107.517 21.1763C108.156 22.3287 109.026 23.2146 110.126 23.8354C111.226 24.4563 112.443 24.7667 113.777 24.7667C115.689 24.7667 117.122 24.2 118.079 23.0652V24.5236H122.975V4.84967H117.835V11.1592ZM117.05 19.7589C116.472 20.3797 115.743 20.6902 114.859 20.6902C113.956 20.6902 113.217 20.3797 112.641 19.7589C112.063 19.138 111.775 18.2785 111.775 17.1803C111.775 16.0997 112.064 15.2548 112.641 14.6427C113.217 14.0307 113.956 13.7246 114.859 13.7246C115.759 13.7246 116.496 14.0307 117.063 14.6427C117.631 15.2548 117.916 16.1011 117.916 17.1803C117.916 18.2785 117.628 19.138 117.05 19.7589Z" fill="url(#paint4_linear)"/>
<path d="M117.835 11.1592C116.879 10.1518 115.526 9.64663 113.777 9.64663C112.443 9.64663 111.225 9.95266 110.126 10.5647C109.026 11.1768 108.156 12.0539 107.517 13.1975C106.876 14.3411 106.556 15.6677 106.556 17.1803C106.556 18.6929 106.876 20.0239 107.517 21.1763C108.156 22.3287 109.026 23.2146 110.126 23.8354C111.226 24.4563 112.443 24.7667 113.777 24.7667C115.689 24.7667 117.122 24.2 118.079 23.0652V24.5236H122.975V4.84967H117.835V11.1592ZM117.05 19.7589C116.472 20.3797 115.743 20.6902 114.859 20.6902C113.956 20.6902 113.217 20.3797 112.641 19.7589C112.063 19.138 111.775 18.2785 111.775 17.1803C111.775 16.0997 112.064 15.2548 112.641 14.6427C113.217 14.0307 113.956 13.7246 114.859 13.7246C115.759 13.7246 116.496 14.0307 117.063 14.6427C117.631 15.2548 117.916 16.1011 117.916 17.1803C117.916 18.2785 117.628 19.138 117.05 19.7589Z" fill="white"/>
<path d="M142 17.2345C142 15.6692 141.652 14.3147 140.958 13.1711C140.265 12.0275 139.321 11.1548 138.132 10.5516C136.942 9.94827 135.616 9.64663 134.155 9.64663C132.622 9.64663 131.243 9.97024 130.016 10.6189C128.79 11.2676 127.829 12.1623 127.135 13.3058C126.442 14.4494 126.094 15.7409 126.094 17.1803C126.094 18.6387 126.45 19.9434 127.162 21.0958C127.873 22.2482 128.88 23.1487 130.178 23.7959C131.476 24.4446 132.981 24.7682 134.695 24.7682C137.435 24.7682 139.518 23.976 140.944 22.3917L138.239 19.5832C137.715 20.0327 137.197 20.3578 136.684 20.5555C136.17 20.7531 135.562 20.8527 134.857 20.8527C133.92 20.8527 133.14 20.6506 132.518 20.245C131.896 19.8394 131.476 19.2596 131.259 18.504H141.916C141.974 17.6928 142 17.2711 142 17.2345ZM131.18 15.8039C131.324 15.0293 131.662 14.4187 132.193 13.9677C132.726 13.5182 133.388 13.2927 134.181 13.2927C134.975 13.2927 135.638 13.5182 136.169 13.9677C136.7 14.4172 137.039 15.0293 137.184 15.8039H131.18Z" fill="#0BB0B1"/>
<path d="M142 17.2345C142 15.6692 141.652 14.3147 140.958 13.1711C140.265 12.0275 139.321 11.1548 138.132 10.5516C136.942 9.94827 135.616 9.64663 134.155 9.64663C132.622 9.64663 131.243 9.97024 130.016 10.6189C128.79 11.2676 127.829 12.1623 127.135 13.3058C126.442 14.4494 126.094 15.7409 126.094 17.1803C126.094 18.6387 126.45 19.9434 127.162 21.0958C127.873 22.2482 128.88 23.1487 130.178 23.7959C131.476 24.4446 132.981 24.7682 134.695 24.7682C137.435 24.7682 139.518 23.976 140.944 22.3917L138.239 19.5832C137.715 20.0327 137.197 20.3578 136.684 20.5555C136.17 20.7531 135.562 20.8527 134.857 20.8527C133.92 20.8527 133.14 20.6506 132.518 20.245C131.896 19.8394 131.476 19.2596 131.259 18.504H141.916C141.974 17.6928 142 17.2711 142 17.2345ZM131.18 15.8039C131.324 15.0293 131.662 14.4187 132.193 13.9677C132.726 13.5182 133.388 13.2927 134.181 13.2927C134.975 13.2927 135.638 13.5182 136.169 13.9677C136.7 14.4172 137.039 15.0293 137.184 15.8039H131.18Z" fill="url(#paint5_linear)"/>
<path d="M142 17.2345C142 15.6692 141.652 14.3147 140.958 13.1711C140.265 12.0275 139.321 11.1548 138.132 10.5516C136.942 9.94827 135.616 9.64663 134.155 9.64663C132.622 9.64663 131.243 9.97024 130.016 10.6189C128.79 11.2676 127.829 12.1623 127.135 13.3058C126.442 14.4494 126.094 15.7409 126.094 17.1803C126.094 18.6387 126.45 19.9434 127.162 21.0958C127.873 22.2482 128.88 23.1487 130.178 23.7959C131.476 24.4446 132.981 24.7682 134.695 24.7682C137.435 24.7682 139.518 23.976 140.944 22.3917L138.239 19.5832C137.715 20.0327 137.197 20.3578 136.684 20.5555C136.17 20.7531 135.562 20.8527 134.857 20.8527C133.92 20.8527 133.14 20.6506 132.518 20.245C131.896 19.8394 131.476 19.2596 131.259 18.504H141.916C141.974 17.6928 142 17.2711 142 17.2345ZM131.18 15.8039C131.324 15.0293 131.662 14.4187 132.193 13.9677C132.726 13.5182 133.388 13.2927 134.181 13.2927C134.975 13.2927 135.638 13.5182 136.169 13.9677C136.7 14.4172 137.039 15.0293 137.184 15.8039H131.18Z" fill="white"/>
<path d="M16.3285 0C7.31124 0 0 7.29794 0 16.2988C0 22.0373 2.97056 27.0817 7.4594 29.9854C9.15959 26.8357 12.4925 24.695 16.3285 24.695C20.1646 24.695 23.4975 26.8357 25.1977 29.9854C29.6865 27.0803 32.6571 22.0358 32.6571 16.2988C32.6585 7.29794 25.3473 0 16.3285 0ZM13.9697 21.4589C10.43 20.4383 7.83934 17.1862 7.83934 13.3249C7.83934 13.1726 7.85401 13.0247 7.86281 12.8754H13.9712V21.4589H13.9697ZM9.5762 8.21604C11.1268 6.17631 13.5663 4.84967 16.3285 4.84967C19.0908 4.84967 21.5318 6.17631 23.0809 8.21604H9.5762ZM18.636 21.475V12.8739H24.7957C24.8031 13.0232 24.8192 13.1711 24.8192 13.3234C24.8192 17.2052 22.2036 20.4705 18.636 21.475Z" fill="#0BB0B1"/>
<path d="M16.3285 0C7.31124 0 0 7.29794 0 16.2988C0 22.0373 2.97056 27.0817 7.4594 29.9854C9.15959 26.8357 12.4925 24.695 16.3285 24.695C20.1646 24.695 23.4975 26.8357 25.1977 29.9854C29.6865 27.0803 32.6571 22.0358 32.6571 16.2988C32.6585 7.29794 25.3473 0 16.3285 0ZM13.9697 21.4589C10.43 20.4383 7.83934 17.1862 7.83934 13.3249C7.83934 13.1726 7.85401 13.0247 7.86281 12.8754H13.9712V21.4589H13.9697ZM9.5762 8.21604C11.1268 6.17631 13.5663 4.84967 16.3285 4.84967C19.0908 4.84967 21.5318 6.17631 23.0809 8.21604H9.5762ZM18.636 21.475V12.8739H24.7957C24.8031 13.0232 24.8192 13.1711 24.8192 13.3234C24.8192 17.2052 22.2036 20.4705 18.636 21.475Z" fill="url(#paint6_linear)"/>
<path d="M16.3285 0C7.31124 0 0 7.29794 0 16.2988C0 22.0373 2.97056 27.0817 7.4594 29.9854C9.15959 26.8357 12.4925 24.695 16.3285 24.695C20.1646 24.695 23.4975 26.8357 25.1977 29.9854C29.6865 27.0803 32.6571 22.0358 32.6571 16.2988C32.6585 7.29794 25.3473 0 16.3285 0ZM13.9697 21.4589C10.43 20.4383 7.83934 17.1862 7.83934 13.3249C7.83934 13.1726 7.85401 13.0247 7.86281 12.8754H13.9712V21.4589H13.9697ZM9.5762 8.21604C11.1268 6.17631 13.5663 4.84967 16.3285 4.84967C19.0908 4.84967 21.5318 6.17631 23.0809 8.21604H9.5762ZM18.636 21.475V12.8739H24.7957C24.8031 13.0232 24.8192 13.1711 24.8192 13.3234C24.8192 17.2052 22.2036 20.4705 18.636 21.475Z" fill="white"/>
<defs>
<linearGradient id="paint0_linear" x1="209.821" y1="-10" x2="181.928" y2="104.017" gradientUnits="userSpaceOnUse">
<stop stop-color="#C4FAC4"/>
<stop offset="1" stop-color="#C4FAC4" stop-opacity="0"/>
</linearGradient>
<linearGradient id="paint1_linear" x1="209.821" y1="-10" x2="181.928" y2="104.017" gradientUnits="userSpaceOnUse">
<stop stop-color="#C4FAC4"/>
<stop offset="1" stop-color="#C4FAC4" stop-opacity="0"/>
</linearGradient>
<linearGradient id="paint2_linear" x1="209.821" y1="-10" x2="181.928" y2="104.017" gradientUnits="userSpaceOnUse">
<stop stop-color="#C4FAC4"/>
<stop offset="1" stop-color="#C4FAC4" stop-opacity="0"/>
</linearGradient>
<linearGradient id="paint3_linear" x1="209.821" y1="-10" x2="181.928" y2="104.017" gradientUnits="userSpaceOnUse">
<stop stop-color="#C4FAC4"/>
<stop offset="1" stop-color="#C4FAC4" stop-opacity="0"/>
</linearGradient>
<linearGradient id="paint4_linear" x1="209.821" y1="-10" x2="181.928" y2="104.017" gradientUnits="userSpaceOnUse">
<stop stop-color="#C4FAC4"/>
<stop offset="1" stop-color="#C4FAC4" stop-opacity="0"/>
</linearGradient>
<linearGradient id="paint5_linear" x1="209.821" y1="-10" x2="181.928" y2="104.017" gradientUnits="userSpaceOnUse">
<stop stop-color="#C4FAC4"/>
<stop offset="1" stop-color="#C4FAC4" stop-opacity="0"/>
</linearGradient>
<linearGradient id="paint6_linear" x1="209.821" y1="-10" x2="181.928" y2="104.017" gradientUnits="userSpaceOnUse">
<stop stop-color="#C4FAC4"/>
<stop offset="1" stop-color="#C4FAC4" stop-opacity="0"/>
</linearGradient>
</defs>
</svg>
