<svg xmlns="http://www.w3.org/2000/svg" fill="none" viewBox="0 0 30 30">
  <rect width="28" height="28" x="1" y="1" fill="#0BB0B1" stroke="#0BB0B1" stroke-width="2" rx="5"/>
  <path fill="#fff" d="M15 7.5c-4.14 0-7.5 3.5-7.5 7.81a7.89 7.89 0 0 0 3.43 6.56A4.6 4.6 0 0 1 15 19.34a4.6 4.6 0 0 1 4.07 2.54 7.9 7.9 0 0 0 3.43-6.57C22.5 11 19.14 7.5 15 7.5Zm-1.08 10.29a4.04 4.04 0 0 1-2.82-3.9l.01-.22h2.8v4.12Zm-2.02-6.35A3.83 3.83 0 0 1 15 9.82c1.27 0 2.39.64 3.1 1.62h-6.2Zm4.16 6.36v-4.13h2.83l.01.22c0 1.86-1.2 3.42-2.84 3.9Z"/>
</svg>
