<svg width="30" height="30" viewBox="0 0 30 30" fill="none" xmlns="http://www.w3.org/2000/svg">
<rect x="0.5" y="0.5" width="29" height="29" rx="14.5" stroke="#A1E1A1"/>
<path d="M15.0001 2.14258C7.89984 2.14258 2.14294 7.87947 2.14294 14.955C2.14294 19.466 4.48197 23.4314 8.0165 25.714C9.35523 23.2381 11.9796 21.5552 15.0001 21.5552C18.0206 21.5552 20.6449 23.2381 21.9837 25.714C25.5182 23.4303 27.8572 19.4649 27.8572 14.955C27.8584 7.87947 22.1015 2.14258 15.0001 2.14258ZM13.1427 19.0114C10.3555 18.2091 8.31567 15.6526 8.31567 12.6172C8.31567 12.4975 8.32722 12.3813 8.33415 12.2639H13.1439V19.0114H13.1427ZM9.68328 8.60118C10.9042 6.99775 12.8251 5.95489 15.0001 5.95489C17.1751 5.95489 19.0971 6.99775 20.3169 8.60118H9.68328ZM16.817 19.024V12.2627H21.6672C21.673 12.3801 21.6857 12.4964 21.6857 12.6161C21.6857 15.6675 19.6262 18.2344 16.817 19.024Z" fill="#0BB0B1"/>
</svg>
