<svg xmlns="http://www.w3.org/2000/svg" fill="none" viewBox="0 0 700 183">
  <path fill="#fff" d="M299.11 55.92h-35.97v84.72h-19.31V55.92h-35.97V45.75h91.25v10.17Zm35.12 23.72c-6.4 0-11.45 2.03-15.18 6.1-3.65 3.98-5.47 10.08-5.47 18.3s1.82 14.37 5.47 18.43c3.73 3.98 8.79 5.97 15.18 5.97h16.65v-48.8h-16.65Zm35.3 59.64c0 4.25-.8 8.1-2.4 11.53-1.6 3.52-4 6.55-7.19 9.08-3.1 2.53-7.06 4.47-11.85 5.83-4.71 1.35-10.22 2.03-16.52 2.03-2.13 0-4.44-.18-6.93-.54a42.9 42.9 0 0 1-7.32-1.5 44.18 44.18 0 0 1-7.33-2.57 37.5 37.5 0 0 1-6.4-3.52l4.67-8.14a37.3 37.3 0 0 0 10.25 4.89 37.05 37.05 0 0 0 11.73 1.9c6.66 0 11.76-1.54 15.31-4.62 3.56-3.07 5.33-7.86 5.33-14.37v-1.35h-16.65a54.5 54.5 0 0 1-16.78-2.44 38.04 38.04 0 0 1-12.8-6.92 31.12 31.12 0 0 1-8.25-10.7 33.4 33.4 0 0 1-2.8-13.83c0-5.06.94-9.67 2.8-13.83a31.12 31.12 0 0 1 8.26-10.7 38.03 38.03 0 0 1 12.79-6.92 54.65 54.65 0 0 1 16.78-2.44h35.3v69.13Zm71.64-59.64h-15.99c-6.04 0-10.65 1.67-13.85 5.01-3.2 3.26-4.8 8.14-4.8 14.64v41.35H387.9V99.29c0-9.21 2.84-16.35 8.52-21.41 5.77-5.15 14.03-7.73 24.78-7.73h19.98v9.49Zm22.32 38.63c0 8.59 5.1 12.88 15.31 12.88h18.65V105.4h-18.64c-10.22 0-15.32 4.3-15.32 12.88Zm33.96-22.36c0-6.51-1.68-11.3-5.06-14.37-3.28-3.08-7.6-4.61-12.92-4.61-4 0-7.9.63-11.72 1.9a37.3 37.3 0 0 0-10.26 4.88l-4.66-8.14a36.5 36.5 0 0 1 6.4-3.52c2.4-1 4.83-1.81 7.32-2.44a56.28 56.28 0 0 1 7.33-1.63 48.5 48.5 0 0 1 6.92-.54c5.69 0 10.7.68 15.06 2.03a31.63 31.63 0 0 1 11.05 5.83 24.1 24.1 0 0 1 6.8 9.08 27 27 0 0 1 2.4 11.53v44.73h-37.3c-12.08 0-21-1.85-26.78-5.56-5.68-3.7-8.53-9.3-8.53-16.8s2.85-13.11 8.53-16.82c5.77-3.7 14.7-5.55 26.78-5.55h18.64Zm90.95 35.24V79.64h-16.65c-3.02 0-5.82.5-8.4 1.49-2.48.9-4.65 2.4-6.52 4.47a23.36 23.36 0 0 0-4.26 8c-.98 3.25-1.47 7.19-1.47 11.8 0 4.6.49 8.53 1.47 11.79a23.35 23.35 0 0 0 4.26 8 17.32 17.32 0 0 0 6.53 4.6c2.57.9 5.37 1.36 8.39 1.36h16.65Zm-16.65 9.49a54.5 54.5 0 0 1-16.78-2.44 36.76 36.76 0 0 1-12.8-7.05 31.75 31.75 0 0 1-8.25-11.12 36.72 36.72 0 0 1-2.8-14.64c0-5.42.93-10.3 2.8-14.64a31.75 31.75 0 0 1 8.26-11.11 36.74 36.74 0 0 1 12.79-7.05 54.65 54.65 0 0 1 16.78-2.44h16.65v-24.4h18.65v94.89h-35.3Zm94.28-6.78c4.35 0 8.4-.77 12.12-2.3a47.4 47.4 0 0 0 11.2-6.5l5.32 8.12a30.96 30.96 0 0 1-6 4.2 41.96 41.96 0 0 1-7.32 3.26 56.38 56.38 0 0 1-8.13 1.9c-2.84.54-5.68.81-8.52.81-6.3 0-12.08-.86-17.32-2.57a36.64 36.64 0 0 1-13.19-7.19 33.88 33.88 0 0 1-8.52-11.93c-1.96-4.7-2.93-10.12-2.93-16.27 0-6.05.93-11.43 2.8-16.13a33.31 33.31 0 0 1 7.99-11.93 33.76 33.76 0 0 1 12.25-7.32 45.36 45.36 0 0 1 15.59-2.57c5.33 0 10.35.81 15.05 2.44 4.7 1.63 8.8 4.02 12.26 7.18a33.68 33.68 0 0 1 8.26 11.25 35.52 35.52 0 0 1 3.06 15.05v9.49h-56.88c1.06 7.5 3.6 12.88 7.6 16.13 4.08 3.26 9.18 4.88 15.31 4.88Zm-4.66-57.61c-2.58 0-4.97.5-7.2 1.5a15.4 15.4 0 0 0-5.86 4.74 28.21 28.21 0 0 0-4 8.4 49.39 49.39 0 0 0-1.6 12.47h37.3c0-4.7-.52-8.76-1.59-12.2a24.68 24.68 0 0 0-4.26-8.4 14.74 14.74 0 0 0-6-4.88 15.32 15.32 0 0 0-6.8-1.63ZM51.18 66.23H76.5v28.44c0 1.86 1.94 3.15 3.8 3.15a10.12 10.12 0 0 1 8.55 15.53c-1.37 2.14-1.35 5.58 1.18 5.86a15.35 15.35 0 0 0 2.72.05c2.04-.14 2.76-2.55 2.5-4.58a8.22 8.22 0 0 1-.06-1.02v-1.36a8.17 8.17 0 0 1 10.96-7.68c.35.12.74-.11.74-.48v-37.9h25.33a12.65 12.65 0 1 0 0-25.27H91.96a15.4 15.4 0 0 0-.53 0H51.18a12.64 12.64 0 1 0 0 25.26Z"/>
  <path fill="#fff" d="M106.89 112.98a3.8 3.8 0 1 1-7.6 0 3.8 3.8 0 0 1 7.6 0Zm-5.24 19.28a5.29 5.29 0 1 1-.01-10.58 5.29 5.29 0 0 1 .01 10.58Zm1.58 13.74a3.7 3.7 0 1 1 0-7.41 3.7 3.7 0 0 1 0 7.4Zm-10.8-5.29a3.9 3.9 0 1 0 0-7.82 3.9 3.9 0 0 0 0 7.82ZM84.7 151.4a5.82 5.82 0 1 0 11.64-.02 5.82 5.82 0 0 0-11.63.02Zm-4.65-15.33a7.4 7.4 0 1 1-.01-14.81 7.4 7.4 0 0 1 .01 14.81Zm-4.82-28.14a5.06 5.06 0 1 1 10.13 0 5.06 5.06 0 0 1-10.13 0Z"/>
  <path fill="#fff" fill-rule="evenodd" d="M91.7 0C41.05 0 0 40.97 0 91.5S41.05 183 91.7 183c50.64 0 91.7-40.97 91.7-91.5S142.33 0 91.7 0ZM6.1 91.5c0-47.16 38.32-85.4 85.59-85.4 47.26 0 85.58 38.24 85.58 85.4 0 47.16-38.32 85.4-85.58 85.4-47.27 0-85.59-38.24-85.59-85.4Z" clip-rule="evenodd"/>
</svg>
