<svg width="24" height="24" viewBox="0 0 24 24" fill="none" xmlns="http://www.w3.org/2000/svg">
<path d="M12 0C13.5759 0 15.1363 0.310389 16.5922 0.913446C18.0481 1.5165 19.371 2.40042 20.4853 3.51472C21.5996 4.62902 22.4835 5.95189 23.0866 7.4078C23.6896 8.86371 24 10.4241 24 12C24 15.1826 22.7357 18.2348 20.4853 20.4853C18.2348 22.7357 15.1826 24 12 24C10.4241 24 8.86371 23.6896 7.4078 23.0866C5.95189 22.4835 4.62902 21.5996 3.51472 20.4853C1.26428 18.2348 0 15.1826 0 12C0 8.8174 1.26428 5.76516 3.51472 3.51472C5.76516 1.26428 8.8174 0 12 0ZM12 2.4C9.45392 2.4 7.01212 3.41143 5.21178 5.21178C3.41143 7.01212 2.4 9.45392 2.4 12C2.4 14.5461 3.41143 16.9879 5.21178 18.7882C7.01212 20.5886 9.45392 21.6 12 21.6C14.5461 21.6 16.9879 20.5886 18.7882 18.7882C20.5886 16.9879 21.6 14.5461 21.6 12C21.6 9.45392 20.5886 7.01212 18.7882 5.21178C16.9879 3.41143 14.5461 2.4 12 2.4ZM11.4 18C11.0686 18 10.8 17.7314 10.8 17.4C10.8 17.0686 10.5314 16.8 10.2 16.8H9.6C8.93726 16.8 8.4 16.2627 8.4 15.6C8.4 14.9373 8.93726 14.4 9.6 14.4H12.6C12.9314 14.4 13.2 14.1314 13.2 13.8C13.2 13.4686 12.9314 13.2 12.6 13.2H9.6C9.28174 13.2 8.97652 13.0736 8.75147 12.8485C8.52643 12.6235 8.4 12.3183 8.4 12V8.4C8.4 8.08174 8.52643 7.77652 8.75147 7.55147C8.97652 7.32643 9.28174 7.2 9.6 7.2H10.2C10.5314 7.2 10.8 6.93137 10.8 6.6C10.8 6.26863 11.0686 6 11.4 6H12.6C12.9314 6 13.2 6.26863 13.2 6.6C13.2 6.93137 13.4686 7.2 13.8 7.2H14.4C15.0627 7.2 15.6 7.73726 15.6 8.4C15.6 9.06274 15.0627 9.6 14.4 9.6H11.4C11.0686 9.6 10.8 9.86863 10.8 10.2C10.8 10.5314 11.0686 10.8 11.4 10.8H14.4C14.7183 10.8 15.0235 10.9264 15.2485 11.1515C15.4736 11.3765 15.6 11.6817 15.6 12V15.6C15.6 15.9183 15.4736 16.2235 15.2485 16.4485C15.0235 16.6736 14.7183 16.8 14.4 16.8H13.8C13.4686 16.8 13.2 17.0686 13.2 17.4C13.2 17.7314 12.9314 18 12.6 18H11.4Z" fill="white"/>
</svg>
