<svg width="34" height="18" viewBox="0 0 34 18" fill="none" xmlns="http://www.w3.org/2000/svg">
<rect width="34" height="18" rx="6" fill="white"/>
<path d="M8.296 6.4C8.408 6.4 8.49867 6.43467 8.568 6.504C8.64267 6.568 8.68 6.656 8.68 6.768C8.68 6.88 8.64267 6.968 8.568 7.032C8.49867 7.096 8.408 7.128 8.296 7.128H6.872V11.616C6.872 11.7227 6.832 11.8133 6.752 11.888C6.67733 11.9627 6.58133 12 6.464 12C6.34667 12 6.248 11.9627 6.168 11.888C6.09333 11.8133 6.056 11.7227 6.056 11.616V7.128H4.64C4.528 7.128 4.43467 7.096 4.36 7.032C4.29067 6.96267 4.256 6.872 4.256 6.76C4.256 6.65333 4.29067 6.568 4.36 6.504C4.43467 6.43467 4.528 6.4 4.64 6.4H8.296ZM13.8655 11.36C13.9188 11.3973 13.9615 11.4453 13.9935 11.504C14.0255 11.5573 14.0415 11.6133 14.0415 11.672C14.0415 11.784 14.0042 11.8667 13.9295 11.92C13.8602 11.9733 13.7748 12 13.6735 12C13.5722 12 13.4868 11.9787 13.4175 11.936C13.2575 11.8453 13.1268 11.6987 13.0255 11.496C12.9242 11.2933 12.8735 10.9947 12.8735 10.6C12.8735 10.3333 12.7935 10.136 12.6335 10.008C12.4735 9.88 12.2655 9.816 12.0095 9.816H10.3935V11.616C10.3935 11.728 10.3615 11.8213 10.2975 11.896C10.2335 11.9653 10.1508 12 10.0495 12C9.92683 12 9.82017 11.9627 9.7295 11.888C9.64417 11.8133 9.6015 11.7227 9.6015 11.616V6.784C9.6015 6.67733 9.63883 6.58667 9.7135 6.512C9.78817 6.43733 9.87883 6.4 9.9855 6.4H12.2335C12.5215 6.4 12.7855 6.472 13.0255 6.616C13.2655 6.75467 13.4575 6.94933 13.6015 7.2C13.7455 7.44533 13.8175 7.72267 13.8175 8.032C13.8175 8.33067 13.7375 8.61067 13.5775 8.872C13.4175 9.128 13.2122 9.32 12.9615 9.448C13.1588 9.54933 13.3135 9.69067 13.4255 9.872C13.5428 10.0533 13.6068 10.264 13.6175 10.504C13.6388 10.808 13.6628 11.016 13.6895 11.128C13.7162 11.2347 13.7748 11.312 13.8655 11.36ZM12.2175 9.152C12.3508 9.14133 12.4762 9.088 12.5935 8.992C12.7162 8.896 12.8148 8.768 12.8895 8.608C12.9642 8.44267 13.0015 8.25867 13.0015 8.056C13.0015 7.8 12.9215 7.584 12.7615 7.408C12.6068 7.22667 12.4175 7.136 12.1935 7.136H10.3935V9.152H12.2175ZM19.343 11.504C19.359 11.552 19.367 11.6027 19.367 11.656C19.367 11.7627 19.3297 11.8507 19.255 11.92C19.1857 11.9893 19.103 12.024 19.007 12.024C18.9323 12.024 18.863 12.0027 18.799 11.96C18.7403 11.912 18.6923 11.848 18.655 11.768L18.159 10.592H15.687L15.199 11.776C15.1723 11.856 15.127 11.9173 15.063 11.96C15.0043 12.0027 14.9377 12.024 14.863 12.024C14.751 12.024 14.6657 11.9947 14.607 11.936C14.5483 11.8773 14.519 11.7973 14.519 11.696C14.519 11.6747 14.5243 11.632 14.535 11.568L16.575 6.624C16.6123 6.53867 16.663 6.47467 16.727 6.432C16.7963 6.384 16.8737 6.36533 16.959 6.376C17.039 6.376 17.111 6.39733 17.175 6.44C17.239 6.48267 17.2843 6.544 17.311 6.624L19.343 11.504ZM15.991 9.864H17.855L16.919 7.624L15.991 9.864ZM22.5238 6.4C23.0251 6.4 23.4545 6.52533 23.8118 6.776C24.1691 7.02667 24.4385 7.36533 24.6198 7.792C24.8011 8.21333 24.8918 8.68267 24.8918 9.2C24.8918 9.72267 24.8011 10.1973 24.6198 10.624C24.4385 11.0453 24.1691 11.3813 23.8118 11.632C23.4545 11.8773 23.0251 12 22.5238 12H20.5558C20.4491 12 20.3585 11.9627 20.2838 11.888C20.2091 11.8133 20.1718 11.7227 20.1718 11.616V6.784C20.1718 6.67733 20.2091 6.58667 20.2838 6.512C20.3585 6.43733 20.4491 6.4 20.5558 6.4H22.5238ZM22.4438 11.264C22.9878 11.264 23.3958 11.072 23.6678 10.688C23.9398 10.2987 24.0758 9.80267 24.0758 9.2C24.0758 8.60267 23.9371 8.10933 23.6598 7.72C23.3878 7.33067 22.9825 7.136 22.4438 7.136H20.9638V11.264H22.4438ZM29.0742 11.264C29.1862 11.264 29.2769 11.3013 29.3462 11.376C29.4209 11.4507 29.4582 11.5387 29.4582 11.64C29.4582 11.7467 29.4209 11.8347 29.3462 11.904C29.2769 11.968 29.1862 12 29.0742 12H26.2902C26.1835 12 26.0929 11.9627 26.0182 11.888C25.9435 11.8133 25.9062 11.7227 25.9062 11.616V6.784C25.9062 6.67733 25.9435 6.58667 26.0182 6.512C26.0929 6.43733 26.1835 6.4 26.2902 6.4H29.0742C29.1862 6.4 29.2769 6.43467 29.3462 6.504C29.4209 6.57333 29.4582 6.664 29.4582 6.776C29.4582 6.88267 29.4209 6.97067 29.3462 7.04C29.2769 7.104 29.1862 7.136 29.0742 7.136H26.6982V8.768H28.7142C28.8262 8.768 28.9169 8.80267 28.9862 8.872C29.0609 8.94133 29.0982 9.02933 29.0982 9.136C29.0982 9.248 29.0609 9.336 28.9862 9.4C28.9169 9.464 28.8262 9.496 28.7142 9.496H26.6982V11.264H29.0742Z" fill="#242730"/>
</svg>
