<svg width="40" height="40" viewBox="0 0 40 40" fill="none" xmlns="http://www.w3.org/2000/svg">
<circle cx="20" cy="20" r="20" fill="white"/>
<path d="M31 13.1923C30.2143 13.5385 29.3163 13.7692 28.4184 13.8846C29.3163 13.3077 30.102 12.3846 30.4388 11.3462C29.5408 11.9231 28.6429 12.2692 27.5204 12.5C26.7347 11.5769 25.5 11 24.2653 11C21.7959 11 19.7755 13.0769 19.7755 15.6154C19.7755 15.9615 19.7755 16.3077 19.8878 16.6538C16.1837 16.4231 12.8163 14.5769 10.5714 11.8077C10.2347 12.5 10.0102 13.3077 10.0102 14.1154C10.0102 15.7308 10.7959 17.1154 12.0306 17.9231C11.2449 17.9231 10.5714 17.6923 10.0102 17.3462C10.0102 19.5385 11.5816 21.5 13.602 21.8461C13.2653 21.9615 12.8163 21.9615 12.3673 21.9615C12.0306 21.9615 11.8061 21.9615 11.4694 21.8461C12.0306 23.6923 13.7143 25.0769 15.7347 25.0769C14.1633 26.3461 12.2551 27.0384 10.1224 27.0384C9.78571 27.0384 9.44898 27.0385 9 26.9231C11.0204 28.1923 13.3775 29 15.9592 29C24.2653 29 28.7551 21.9615 28.7551 15.8461V15.2692C29.6531 14.9231 30.4388 14.1154 31 13.1923Z" fill="#302F2C"/>
</svg>
