<svg width="28" height="18" viewBox="0 0 28 18" fill="none" xmlns="http://www.w3.org/2000/svg">
<rect width="28" height="18" rx="6" fill="white" fill-opacity="0.2"/>
<path d="M8.736 6.392C8.84267 6.392 8.93333 6.42667 9.008 6.496C9.088 6.56533 9.128 6.65067 9.128 6.752C9.128 6.80533 9.11467 6.864 9.088 6.928L7.048 11.752C7.01067 11.832 6.95733 11.8933 6.888 11.936C6.81867 11.9787 6.74667 12 6.672 12C6.60267 11.9947 6.536 11.9733 6.472 11.936C6.41333 11.8933 6.36533 11.8347 6.328 11.76L4.288 6.928C4.26667 6.88533 4.256 6.82933 4.256 6.76C4.256 6.648 4.296 6.55733 4.376 6.488C4.456 6.41867 4.544 6.384 4.64 6.384C4.8 6.384 4.91733 6.46933 4.992 6.64L6.736 10.76L8.384 6.632C8.42133 6.55733 8.46933 6.49867 8.528 6.456C8.592 6.41333 8.66133 6.392 8.736 6.392ZM10.831 11.608C10.831 11.72 10.791 11.8133 10.711 11.888C10.631 11.9627 10.5377 12 10.431 12C10.3137 12 10.2177 11.9627 10.143 11.888C10.0737 11.8133 10.039 11.72 10.039 11.608V6.784C10.039 6.67733 10.0763 6.58667 10.151 6.512C10.2257 6.43733 10.3217 6.4 10.439 6.4C10.5457 6.4 10.6363 6.43733 10.711 6.512C10.791 6.58667 10.831 6.67733 10.831 6.784V11.608ZM13.8522 12.08C13.4629 12.08 13.1189 12.0267 12.8202 11.92C12.5215 11.808 12.2362 11.6293 11.9642 11.384C11.8522 11.288 11.7962 11.1787 11.7962 11.056C11.7962 10.96 11.8335 10.8747 11.9082 10.8C11.9829 10.72 12.0709 10.68 12.1722 10.68C12.2629 10.68 12.3402 10.7093 12.4042 10.768C12.6175 10.9653 12.8362 11.112 13.0602 11.208C13.2895 11.2987 13.5482 11.344 13.8362 11.344C14.1722 11.344 14.4549 11.2667 14.6842 11.112C14.9189 10.9573 15.0362 10.7627 15.0362 10.528C15.0309 10.2507 14.9135 10.0373 14.6842 9.888C14.4602 9.73333 14.1162 9.60533 13.6522 9.504C13.1029 9.392 12.6789 9.208 12.3802 8.952C12.0869 8.696 11.9402 8.34133 11.9402 7.888C11.9402 7.57333 12.0229 7.29867 12.1882 7.064C12.3535 6.824 12.5829 6.64 12.8762 6.512C13.1695 6.384 13.5002 6.32 13.8682 6.32C14.1989 6.32 14.5109 6.37333 14.8042 6.48C15.0975 6.58667 15.3349 6.728 15.5162 6.904C15.6389 7.01067 15.7002 7.12533 15.7002 7.248C15.7002 7.344 15.6629 7.42933 15.5882 7.504C15.5189 7.57867 15.4335 7.616 15.3322 7.616C15.2575 7.616 15.1962 7.59467 15.1482 7.552C15.0095 7.41333 14.8175 7.296 14.5722 7.2C14.3269 7.104 14.0922 7.056 13.8682 7.056C13.5109 7.056 13.2255 7.13067 13.0122 7.28C12.8042 7.424 12.7002 7.616 12.7002 7.856C12.7002 8.11733 12.8042 8.31733 13.0122 8.456C13.2255 8.59467 13.5402 8.712 13.9562 8.808C14.3722 8.89867 14.7109 9.00533 14.9722 9.128C15.2389 9.25067 15.4442 9.42133 15.5882 9.64C15.7322 9.85867 15.8042 10.144 15.8042 10.496C15.8042 10.8053 15.7162 11.08 15.5402 11.32C15.3695 11.56 15.1349 11.7467 14.8362 11.88C14.5375 12.0133 14.2095 12.08 13.8522 12.08ZM17.6044 11.608C17.6044 11.72 17.5644 11.8133 17.4844 11.888C17.4044 11.9627 17.3111 12 17.2044 12C17.0871 12 16.9911 11.9627 16.9164 11.888C16.8471 11.8133 16.8124 11.72 16.8124 11.608V6.784C16.8124 6.67733 16.8498 6.58667 16.9244 6.512C16.9991 6.43733 17.0951 6.4 17.2124 6.4C17.3191 6.4 17.4098 6.43733 17.4844 6.512C17.5644 6.58667 17.6044 6.67733 17.6044 6.784V11.608ZM22.5616 6.4C22.6736 6.4 22.7643 6.43467 22.8336 6.504C22.9083 6.568 22.9456 6.656 22.9456 6.768C22.9456 6.88 22.9083 6.968 22.8336 7.032C22.7643 7.096 22.6736 7.128 22.5616 7.128H21.1376V11.616C21.1376 11.7227 21.0976 11.8133 21.0176 11.888C20.943 11.9627 20.847 12 20.7296 12C20.6123 12 20.5136 11.9627 20.4336 11.888C20.359 11.8133 20.3216 11.7227 20.3216 11.616V7.128H18.9056C18.7936 7.128 18.7003 7.096 18.6256 7.032C18.5563 6.96267 18.5216 6.872 18.5216 6.76C18.5216 6.65333 18.5563 6.568 18.6256 6.504C18.7003 6.43467 18.7936 6.4 18.9056 6.4H22.5616Z" fill="white"/>
</svg>
