<svg xmlns="http://www.w3.org/2000/svg" fill="none" viewBox="0 0 60 54">
  <defs/>
  <path fill="#0BB0B1" d="M30 0C13.43 0 0 13.142 0 29.352 0 39.685 5.458 48.77 13.706 54c3.121-5.673 9.249-9.527 16.294-9.527S43.173 48.329 46.294 54C54.542 48.77 60 39.685 60 29.352 60 13.142 46.568 0 30 0zm-4.336 38.645C19.161 36.806 14.4 30.949 14.4 23.995c0-.274.027-.54.042-.81h11.222v15.46zm-8.07-23.848A15.658 15.658 0 0130 8.734c5.075 0 9.558 2.39 12.407 6.063H17.593zm16.645 23.876V23.184h11.319c.013.27.042.537.042.81-.002 6.99-4.808 12.871-11.36 14.68z"/>
</svg>
