<svg width="66" height="16" viewBox="0 0 66 16" fill="none" xmlns="http://www.w3.org/2000/svg">
<path d="M12.9505 3L5.13132 10.8912L2.05685 7.7839L1 8.83458L5.13132 13L14 4.05812L12.9505 3Z" fill="#0BB0B1" stroke="#0BB0B1"/>
<path d="M25.732 3.9C26.174 3.9 26.5943 4.03433 26.993 4.303C27.3917 4.563 27.7123 4.91833 27.955 5.369C28.1977 5.811 28.319 6.29633 28.319 6.825C28.319 7.345 28.1977 7.83033 27.955 8.281C27.7123 8.73167 27.3917 9.09133 26.993 9.36C26.5943 9.62 26.174 9.75 25.732 9.75H23.47V12.207C23.47 12.441 23.4007 12.6317 23.262 12.779C23.1233 12.9263 22.9413 13 22.716 13C22.4993 13 22.3217 12.9263 22.183 12.779C22.0443 12.623 21.975 12.4323 21.975 12.207V4.693C21.975 4.46767 22.0487 4.28133 22.196 4.134C22.352 3.978 22.5427 3.9 22.768 3.9H25.732ZM25.732 8.268C25.8967 8.268 26.057 8.19867 26.213 8.06C26.3777 7.92133 26.5077 7.74367 26.603 7.527C26.707 7.30167 26.759 7.06767 26.759 6.825C26.759 6.58233 26.707 6.35267 26.603 6.136C26.5077 5.91067 26.3777 5.733 26.213 5.603C26.057 5.46433 25.8967 5.395 25.732 5.395H23.47V8.268H25.732ZM35.2435 5.915C35.4689 5.915 35.6552 5.98867 35.8025 6.136C35.9499 6.28333 36.0235 6.474 36.0235 6.708V12.207C36.0235 12.4323 35.9499 12.623 35.8025 12.779C35.6552 12.9263 35.4689 13 35.2435 13C35.0182 13 34.8319 12.9263 34.6845 12.779C34.5459 12.6317 34.4722 12.4453 34.4635 12.22C34.2469 12.4713 33.9522 12.688 33.5795 12.87C33.2155 13.0433 32.8299 13.13 32.4225 13.13C31.8245 13.13 31.2829 12.9783 30.7975 12.675C30.3122 12.363 29.9265 11.934 29.6405 11.388C29.3632 10.842 29.2245 10.2223 29.2245 9.529C29.2245 8.83567 29.3632 8.216 29.6405 7.67C29.9179 7.11533 30.2949 6.68633 30.7715 6.383C31.2569 6.071 31.7899 5.915 32.3705 5.915C32.7865 5.915 33.1765 5.993 33.5405 6.149C33.9045 6.29633 34.2122 6.487 34.4635 6.721V6.708C34.4635 6.48267 34.5372 6.29633 34.6845 6.149C34.8319 5.993 35.0182 5.915 35.2435 5.915ZM32.6175 11.7C33.1809 11.7 33.6402 11.4963 33.9955 11.089C34.3509 10.673 34.5285 10.153 34.5285 9.529C34.5285 8.905 34.3509 8.385 33.9955 7.969C33.6402 7.553 33.1809 7.345 32.6175 7.345C32.0629 7.345 31.6079 7.553 31.2525 7.969C30.8972 8.385 30.7195 8.905 30.7195 9.529C30.7195 10.153 30.8929 10.673 31.2395 11.089C31.5949 11.4963 32.0542 11.7 32.6175 11.7ZM37.3111 11.921C37.2331 11.817 37.1941 11.687 37.1941 11.531C37.1941 11.3057 37.3068 11.115 37.5321 10.959C37.6535 10.881 37.7791 10.842 37.9091 10.842C38.0911 10.842 38.2645 10.9243 38.4291 11.089C38.6891 11.3577 38.9578 11.557 39.2351 11.687C39.5211 11.817 39.8635 11.882 40.2621 11.882C40.9381 11.856 41.2761 11.6003 41.2761 11.115C41.2761 10.8637 41.1591 10.673 40.9251 10.543C40.6998 10.413 40.3445 10.283 39.8591 10.153C39.3565 10.0143 38.9448 9.87567 38.6241 9.737C38.3121 9.59833 38.0391 9.39033 37.8051 9.113C37.5798 8.827 37.4671 8.44567 37.4671 7.969C37.4671 7.553 37.5841 7.19333 37.8181 6.89C38.0608 6.578 38.3728 6.33967 38.7541 6.175C39.1441 6.00167 39.5558 5.915 39.9891 5.915C40.4311 5.915 40.8731 5.99733 41.3151 6.162C41.7571 6.32667 42.1038 6.56933 42.3551 6.89C42.4678 7.02867 42.5241 7.18467 42.5241 7.358C42.5241 7.55733 42.4418 7.722 42.2771 7.852C42.1558 7.94733 42.0171 7.995 41.8611 7.995C41.6705 7.995 41.5145 7.93433 41.3931 7.813C41.2371 7.62233 41.0335 7.47067 40.7821 7.358C40.5395 7.24533 40.2621 7.189 39.9501 7.189C39.2915 7.189 38.9621 7.42733 38.9621 7.904C38.9621 8.09467 39.0228 8.25067 39.1441 8.372C39.2655 8.48467 39.4171 8.57567 39.5991 8.645C39.7898 8.70567 40.0541 8.78367 40.3921 8.879C40.8601 9.009 41.2501 9.14333 41.5621 9.282C41.8741 9.42067 42.1385 9.633 42.3551 9.919C42.5718 10.205 42.6801 10.582 42.6801 11.05C42.6801 11.4747 42.5545 11.8473 42.3031 12.168C42.0518 12.48 41.7268 12.7183 41.3281 12.883C40.9381 13.0477 40.5351 13.13 40.1191 13.13C39.5471 13.13 39.0141 13.0347 38.5201 12.844C38.0261 12.6533 37.6231 12.3457 37.3111 11.921ZM43.5826 11.921C43.5046 11.817 43.4656 11.687 43.4656 11.531C43.4656 11.3057 43.5783 11.115 43.8036 10.959C43.925 10.881 44.0506 10.842 44.1806 10.842C44.3626 10.842 44.536 10.9243 44.7006 11.089C44.9606 11.3577 45.2293 11.557 45.5066 11.687C45.7926 11.817 46.135 11.882 46.5336 11.882C47.2096 11.856 47.5476 11.6003 47.5476 11.115C47.5476 10.8637 47.4306 10.673 47.1966 10.543C46.9713 10.413 46.616 10.283 46.1306 10.153C45.628 10.0143 45.2163 9.87567 44.8956 9.737C44.5836 9.59833 44.3106 9.39033 44.0766 9.113C43.8513 8.827 43.7386 8.44567 43.7386 7.969C43.7386 7.553 43.8556 7.19333 44.0896 6.89C44.3323 6.578 44.6443 6.33967 45.0256 6.175C45.4156 6.00167 45.8273 5.915 46.2606 5.915C46.7026 5.915 47.1446 5.99733 47.5866 6.162C48.0286 6.32667 48.3753 6.56933 48.6266 6.89C48.7393 7.02867 48.7956 7.18467 48.7956 7.358C48.7956 7.55733 48.7133 7.722 48.5486 7.852C48.4273 7.94733 48.2886 7.995 48.1326 7.995C47.942 7.995 47.786 7.93433 47.6646 7.813C47.5086 7.62233 47.305 7.47067 47.0536 7.358C46.811 7.24533 46.5336 7.189 46.2216 7.189C45.563 7.189 45.2336 7.42733 45.2336 7.904C45.2336 8.09467 45.2943 8.25067 45.4156 8.372C45.537 8.48467 45.6886 8.57567 45.8706 8.645C46.0613 8.70567 46.3256 8.78367 46.6636 8.879C47.1316 9.009 47.5216 9.14333 47.8336 9.282C48.1456 9.42067 48.41 9.633 48.6266 9.919C48.8433 10.205 48.9516 10.582 48.9516 11.05C48.9516 11.4747 48.826 11.8473 48.5746 12.168C48.3233 12.48 47.9983 12.7183 47.5996 12.883C47.2096 13.0477 46.8066 13.13 46.3906 13.13C45.8186 13.13 45.2856 13.0347 44.7916 12.844C44.2976 12.6533 43.8946 12.3457 43.5826 11.921ZM56.4971 9.36C56.4884 9.568 56.4061 9.737 56.2501 9.867C56.0941 9.997 55.9121 10.062 55.7041 10.062H51.4141C51.5181 10.5733 51.7564 10.9763 52.1291 11.271C52.5018 11.557 52.9221 11.7 53.3901 11.7C53.7454 11.7 54.0228 11.6697 54.2221 11.609C54.4214 11.5397 54.5774 11.4703 54.6901 11.401C54.8114 11.323 54.8938 11.271 54.9371 11.245C55.0931 11.167 55.2404 11.128 55.3791 11.128C55.5611 11.128 55.7171 11.193 55.8471 11.323C55.9771 11.453 56.0421 11.6047 56.0421 11.778C56.0421 12.012 55.9208 12.2243 55.6781 12.415C55.4354 12.6143 55.1104 12.7833 54.7031 12.922C54.2958 13.0607 53.8841 13.13 53.4681 13.13C52.7401 13.13 52.1031 12.9783 51.5571 12.675C51.0198 12.3717 50.6038 11.9557 50.3091 11.427C50.0144 10.8897 49.8671 10.2873 49.8671 9.62C49.8671 8.87467 50.0231 8.22033 50.3351 7.657C50.6471 7.09367 51.0588 6.66467 51.5701 6.37C52.0814 6.06667 52.6274 5.915 53.2081 5.915C53.7801 5.915 54.3174 6.071 54.8201 6.383C55.3314 6.695 55.7388 7.11533 56.0421 7.644C56.3454 8.17267 56.4971 8.74467 56.4971 9.36ZM53.2081 7.345C52.2028 7.345 51.6091 7.81733 51.4271 8.762H54.8331V8.671C54.7984 8.307 54.6208 7.995 54.3001 7.735C53.9794 7.475 53.6154 7.345 53.2081 7.345ZM63.4271 3.38C63.6525 3.38 63.8388 3.45367 63.9861 3.601C64.1335 3.74833 64.2071 3.939 64.2071 4.173V12.207C64.2071 12.4323 64.1335 12.623 63.9861 12.779C63.8388 12.9263 63.6525 13 63.4271 13C63.2018 13 63.0155 12.9263 62.8681 12.779C62.7295 12.6317 62.6558 12.4453 62.6471 12.22C62.4305 12.4713 62.1358 12.688 61.7631 12.87C61.3991 13.0433 61.0135 13.13 60.6061 13.13C60.0081 13.13 59.4665 12.9783 58.9811 12.675C58.4958 12.363 58.1101 11.934 57.8241 11.388C57.5468 10.842 57.4081 10.2223 57.4081 9.529C57.4081 8.83567 57.5468 8.216 57.8241 7.67C58.1015 7.11533 58.4785 6.68633 58.9551 6.383C59.4405 6.071 59.9735 5.915 60.5541 5.915C60.9701 5.915 61.3601 5.993 61.7241 6.149C62.0881 6.29633 62.3958 6.487 62.6471 6.721V4.173C62.6471 3.94767 62.7208 3.76133 62.8681 3.614C63.0155 3.458 63.2018 3.38 63.4271 3.38ZM60.8011 11.7C61.3645 11.7 61.8238 11.4963 62.1791 11.089C62.5345 10.673 62.7121 10.153 62.7121 9.529C62.7121 8.905 62.5345 8.385 62.1791 7.969C61.8238 7.553 61.3645 7.345 60.8011 7.345C60.2465 7.345 59.7915 7.553 59.4361 7.969C59.0808 8.385 58.9031 8.905 58.9031 9.529C58.9031 10.153 59.0765 10.673 59.4231 11.089C59.7785 11.4963 60.2378 11.7 60.8011 11.7Z" fill="#0BB0B1"/>
</svg>
