<svg xmlns="http://www.w3.org/2000/svg" fill="none" viewBox="0 0 30 28">
  <defs/>
  <path fill="#FF6465" d="M14.999 19.559c-.839 0-1.542.703-1.542 1.541 0 .839.703 1.542 1.542 1.542.808 0 1.542-.703 1.504-1.505A1.505 1.505 0 0015 19.56z"/>
  <path fill="#FF6465" d="M29.27 25.023c.968-1.671.974-3.663.012-5.328L19.625 2.97a5.247 5.247 0 00-4.62-2.683 5.266 5.266 0 00-4.618 2.677L.717 19.707a5.307 5.307 0 00.018 5.359 5.278 5.278 0 004.607 2.646h19.29c1.93 0 3.664-1.006 4.638-2.69zm-2.097-1.209a2.914 2.914 0 01-2.547 1.474H5.336a2.874 2.874 0 01-2.516-1.443 2.918 2.918 0 01-.006-2.942l9.67-16.737a2.862 2.862 0 012.522-1.461c1.054 0 1.998.548 2.522 1.467l9.664 16.737c.518.9.512 1.986-.019 2.905z"/>
  <path fill="#FF6465" d="M14.616 8.735c-.734.21-1.19.876-1.19 1.684.037.487.068.98.105 1.467.104 1.857.21 3.676.314 5.532a1.13 1.13 0 001.153 1.085c.63 0 1.123-.487 1.154-1.122 0-.382 0-.734.037-1.122.067-1.19.141-2.38.21-3.571.036-.77.104-1.542.141-2.313 0-.277-.037-.524-.142-.77a1.546 1.546 0 00-1.782-.87z"/>
</svg>
