<svg width="27" height="18" viewBox="0 0 27 18" fill="none" xmlns="http://www.w3.org/2000/svg">
<rect width="27" height="18" rx="6" fill="white"/>
<path d="M5.976 12.08C5.66133 12.08 5.37067 12.0053 5.104 11.856C4.84267 11.7067 4.63467 11.5013 4.48 11.24C4.432 11.1653 4.408 11.0933 4.408 11.024C4.408 10.9227 4.448 10.8373 4.528 10.768C4.608 10.6933 4.69067 10.656 4.776 10.656C4.89333 10.656 5.01333 10.7227 5.136 10.856C5.344 11.1653 5.624 11.32 5.976 11.32C6.26933 11.32 6.51733 11.2213 6.72 11.024C6.92267 10.8267 7.024 10.584 7.024 10.296V6.784C7.024 6.67733 7.064 6.58667 7.144 6.512C7.224 6.43733 7.31733 6.4 7.424 6.4C7.54133 6.4 7.63467 6.43733 7.704 6.512C7.77867 6.58133 7.816 6.672 7.816 6.784V10.296C7.816 10.6213 7.736 10.92 7.576 11.192C7.416 11.464 7.19467 11.68 6.912 11.84C6.63467 12 6.32267 12.08 5.976 12.08ZM14.2286 9.2C14.2286 9.73867 14.1112 10.2267 13.8766 10.664C13.6472 11.1013 13.3272 11.448 12.9166 11.704C12.5059 11.9547 12.0419 12.08 11.5246 12.08C11.0072 12.08 10.5432 11.9547 10.1326 11.704C9.7219 11.448 9.39923 11.1013 9.16456 10.664C8.93523 10.2267 8.82056 9.73867 8.82056 9.2C8.82056 8.66133 8.93523 8.17333 9.16456 7.736C9.39923 7.29867 9.7219 6.95467 10.1326 6.704C10.5432 6.448 11.0072 6.32 11.5246 6.32C12.0419 6.32 12.5059 6.448 12.9166 6.704C13.3272 6.95467 13.6472 7.29867 13.8766 7.736C14.1112 8.17333 14.2286 8.66133 14.2286 9.2ZM13.4046 9.2C13.4046 8.8 13.3246 8.44 13.1646 8.12C13.0046 7.79467 12.7806 7.54133 12.4926 7.36C12.2099 7.17333 11.8872 7.08 11.5246 7.08C11.1619 7.08 10.8366 7.17067 10.5486 7.352C10.2659 7.53333 10.0446 7.78667 9.88456 8.112C9.72456 8.432 9.64456 8.79467 9.64456 9.2C9.64456 9.6 9.72456 9.96267 9.88456 10.288C10.0446 10.608 10.2659 10.8613 10.5486 11.048C10.8366 11.2293 11.1619 11.32 11.5246 11.32C11.8872 11.32 12.2099 11.2293 12.4926 11.048C12.7806 10.8613 13.0046 10.608 13.1646 10.288C13.3246 9.96267 13.4046 9.6 13.4046 9.2ZM16.0263 11.608C16.0263 11.72 15.9863 11.8133 15.9063 11.888C15.8263 11.9627 15.733 12 15.6263 12C15.509 12 15.413 11.9627 15.3383 11.888C15.269 11.8133 15.2343 11.72 15.2343 11.608V6.784C15.2343 6.67733 15.2716 6.58667 15.3463 6.512C15.421 6.43733 15.517 6.4 15.6343 6.4C15.741 6.4 15.8316 6.43733 15.9063 6.512C15.9863 6.58667 16.0263 6.67733 16.0263 6.784V11.608ZM21.5355 6.4C21.6368 6.4 21.7195 6.43467 21.7835 6.504C21.8475 6.568 21.8795 6.65067 21.8795 6.752V11.608C21.8795 11.72 21.8422 11.8133 21.7675 11.888C21.6982 11.9627 21.6075 12 21.4955 12C21.4368 12 21.3782 11.992 21.3195 11.976C21.2662 11.9547 21.2235 11.9253 21.1915 11.888L18.0475 7.792V11.648C18.0475 11.7493 18.0128 11.8347 17.9435 11.904C17.8795 11.968 17.7968 12 17.6955 12C17.5942 12 17.5115 11.968 17.4475 11.904C17.3835 11.8347 17.3515 11.7493 17.3515 11.648V6.784C17.3515 6.672 17.3862 6.58133 17.4555 6.512C17.5302 6.43733 17.6208 6.4 17.7275 6.4C17.7915 6.4 17.8528 6.41333 17.9115 6.44C17.9702 6.46133 18.0155 6.49333 18.0475 6.536L21.1835 10.64V6.752C21.1835 6.65067 21.2155 6.568 21.2795 6.504C21.3488 6.43467 21.4342 6.4 21.5355 6.4Z" fill="#242730"/>
</svg>
