<svg width="34" height="18" viewBox="0 0 34 18" fill="none" xmlns="http://www.w3.org/2000/svg">
<rect width="34" height="18" rx="6" fill="white"/>
<path d="M7.752 11.256C7.864 11.256 7.95467 11.2907 8.024 11.36C8.09867 11.4293 8.136 11.52 8.136 11.632C8.136 11.7387 8.09867 11.8267 8.024 11.896C7.95467 11.9653 7.864 12 7.752 12H5.048C4.936 12 4.84267 11.9627 4.768 11.888C4.69867 11.8133 4.664 11.7227 4.664 11.616V6.784C4.664 6.67733 4.70133 6.58667 4.776 6.512C4.85067 6.43733 4.94667 6.4 5.064 6.4C5.17067 6.4 5.26133 6.43733 5.336 6.512C5.416 6.58667 5.456 6.67733 5.456 6.784V11.256H7.752ZM12.2304 11.264C12.3424 11.264 12.4331 11.3013 12.5024 11.376C12.5771 11.4507 12.6144 11.5387 12.6144 11.64C12.6144 11.7467 12.5771 11.8347 12.5024 11.904C12.4331 11.968 12.3424 12 12.2304 12H9.44644C9.33977 12 9.2491 11.9627 9.17444 11.888C9.09977 11.8133 9.06244 11.7227 9.06244 11.616V6.784C9.06244 6.67733 9.09977 6.58667 9.17444 6.512C9.2491 6.43733 9.33977 6.4 9.44644 6.4H12.2304C12.3424 6.4 12.4331 6.43467 12.5024 6.504C12.5771 6.57333 12.6144 6.664 12.6144 6.776C12.6144 6.88267 12.5771 6.97067 12.5024 7.04C12.4331 7.104 12.3424 7.136 12.2304 7.136H9.85444V8.768H11.8704C11.9824 8.768 12.0731 8.80267 12.1424 8.872C12.2171 8.94133 12.2544 9.02933 12.2544 9.136C12.2544 9.248 12.2171 9.336 12.1424 9.4C12.0731 9.464 11.9824 9.496 11.8704 9.496H9.85444V11.264H12.2304ZM17.9289 11.504C17.9449 11.552 17.9529 11.6027 17.9529 11.656C17.9529 11.7627 17.9156 11.8507 17.8409 11.92C17.7716 11.9893 17.6889 12.024 17.5929 12.024C17.5183 12.024 17.4489 12.0027 17.3849 11.96C17.3263 11.912 17.2783 11.848 17.2409 11.768L16.7449 10.592H14.2729L13.7849 11.776C13.7583 11.856 13.7129 11.9173 13.6489 11.96C13.5903 12.0027 13.5236 12.024 13.4489 12.024C13.3369 12.024 13.2516 11.9947 13.1929 11.936C13.1343 11.8773 13.1049 11.7973 13.1049 11.696C13.1049 11.6747 13.1103 11.632 13.1209 11.568L15.1609 6.624C15.1983 6.53867 15.2489 6.47467 15.3129 6.432C15.3823 6.384 15.4596 6.36533 15.5449 6.376C15.6249 6.376 15.6969 6.39733 15.7609 6.44C15.8249 6.48267 15.8703 6.544 15.8969 6.624L17.9289 11.504ZM14.5769 9.864H16.4409L15.5049 7.624L14.5769 9.864ZM23.0218 11.36C23.0751 11.3973 23.1178 11.4453 23.1498 11.504C23.1818 11.5573 23.1978 11.6133 23.1978 11.672C23.1978 11.784 23.1604 11.8667 23.0858 11.92C23.0164 11.9733 22.9311 12 22.8298 12C22.7284 12 22.6431 11.9787 22.5738 11.936C22.4138 11.8453 22.2831 11.6987 22.1818 11.496C22.0804 11.2933 22.0298 10.9947 22.0298 10.6C22.0298 10.3333 21.9498 10.136 21.7898 10.008C21.6298 9.88 21.4218 9.816 21.1658 9.816H19.5498V11.616C19.5498 11.728 19.5178 11.8213 19.4538 11.896C19.3898 11.9653 19.3071 12 19.2058 12C19.0831 12 18.9764 11.9627 18.8858 11.888C18.8004 11.8133 18.7578 11.7227 18.7578 11.616V6.784C18.7578 6.67733 18.7951 6.58667 18.8698 6.512C18.9444 6.43733 19.0351 6.4 19.1418 6.4H21.3898C21.6778 6.4 21.9418 6.472 22.1818 6.616C22.4218 6.75467 22.6138 6.94933 22.7578 7.2C22.9018 7.44533 22.9738 7.72267 22.9738 8.032C22.9738 8.33067 22.8938 8.61067 22.7338 8.872C22.5738 9.128 22.3684 9.32 22.1178 9.448C22.3151 9.54933 22.4698 9.69067 22.5818 9.872C22.6991 10.0533 22.7631 10.264 22.7738 10.504C22.7951 10.808 22.8191 11.016 22.8458 11.128C22.8724 11.2347 22.9311 11.312 23.0218 11.36ZM21.3738 9.152C21.5071 9.14133 21.6324 9.088 21.7498 8.992C21.8724 8.896 21.9711 8.768 22.0458 8.608C22.1204 8.44267 22.1578 8.25867 22.1578 8.056C22.1578 7.8 22.0778 7.584 21.9178 7.408C21.7631 7.22667 21.5738 7.136 21.3498 7.136H19.5498V9.152H21.3738ZM28.3793 6.4C28.4806 6.4 28.5633 6.43467 28.6273 6.504C28.6913 6.568 28.7233 6.65067 28.7233 6.752V11.608C28.7233 11.72 28.6859 11.8133 28.6113 11.888C28.5419 11.9627 28.4513 12 28.3393 12C28.2806 12 28.2219 11.992 28.1633 11.976C28.1099 11.9547 28.0673 11.9253 28.0353 11.888L24.8913 7.792V11.648C24.8913 11.7493 24.8566 11.8347 24.7873 11.904C24.7233 11.968 24.6406 12 24.5393 12C24.4379 12 24.3553 11.968 24.2913 11.904C24.2273 11.8347 24.1953 11.7493 24.1953 11.648V6.784C24.1953 6.672 24.2299 6.58133 24.2993 6.512C24.3739 6.43733 24.4646 6.4 24.5713 6.4C24.6353 6.4 24.6966 6.41333 24.7553 6.44C24.8139 6.46133 24.8593 6.49333 24.8913 6.536L28.0273 10.64V6.752C28.0273 6.65067 28.0593 6.568 28.1233 6.504C28.1926 6.43467 28.2779 6.4 28.3793 6.4Z" fill="#242730"/>
</svg>
