<svg width="24" height="16" viewBox="0 0 24 16" fill="none" xmlns="http://www.w3.org/2000/svg">
<path d="M12 0C11.132 0 10.2996 0.38901 9.68583 1.08145C9.07208 1.77389 8.72727 2.71305 8.72727 3.69231C8.72727 4.67157 9.07208 5.61072 9.68583 6.30316C10.2996 6.99561 11.132 7.38462 12 7.38462C12.868 7.38462 13.7004 6.99561 14.3142 6.30316C14.9279 5.61072 15.2727 4.67157 15.2727 3.69231C15.2727 2.71305 14.9279 1.77389 14.3142 1.08145C13.7004 0.38901 12.868 0 12 0ZM5.45455 2.67077C4.73123 2.67077 4.03754 2.99494 3.52607 3.57198C3.01461 4.14901 2.72727 4.93164 2.72727 5.74769C2.72727 6.15176 2.79782 6.55187 2.93487 6.92518C3.07193 7.29849 3.27282 7.63769 3.52607 7.92341C3.77932 8.20912 4.07998 8.43577 4.41086 8.5904C4.74175 8.74503 5.0964 8.82462 5.45455 8.82462C7.16706 8.82462 6.96193 6.54104 6.65136 4.85693C6.58216 4.48167 6.54545 4.0929 6.54545 3.69231C6.54545 3.25088 6.32661 2.79041 5.89248 2.71047C5.74985 2.68421 5.60368 2.67077 5.45455 2.67077ZM18.5455 2.67077C18.3963 2.67077 18.2502 2.68421 18.1075 2.71048C17.6734 2.79041 17.4545 3.25088 17.4545 3.69231C17.4545 4.0929 17.4178 4.48167 17.3486 4.85693C17.0381 6.54104 16.8329 8.82462 18.5455 8.82462C18.9036 8.82462 19.2582 8.74503 19.5891 8.5904C19.92 8.43577 20.2207 8.20912 20.4739 7.92341C20.7272 7.63769 20.9281 7.29849 21.0651 6.92518C21.2022 6.55187 21.2727 6.15176 21.2727 5.74769C21.2727 5.34363 21.2022 4.94351 21.0651 4.5702C20.9281 4.1969 20.7272 3.8577 20.4739 3.57198C20.2207 3.28626 19.92 3.05962 19.5891 2.90499C19.2582 2.75036 18.9036 2.67077 18.5455 2.67077ZM12 9.84615C9.81818 9.84615 5.45455 11.0769 5.45455 13.5385C5.45455 14.8979 6.55661 16 7.91608 16H16.0839C17.4434 16 18.5455 14.8979 18.5455 13.5385C18.5455 11.0769 14.1818 9.84615 12 9.84615ZM3.27273 13.5385C3.27273 12.524 2.40995 11.4102 1.5259 11.9079C0.644738 12.404 0 13.0815 0 13.9446V14.3636C0 15.2674 0.732625 16 1.63636 16C2.5401 16 3.27273 15.2674 3.27273 14.3636V13.5385ZM22.4741 11.9079C21.5901 11.4102 20.7273 12.524 20.7273 13.5385V14.3636C20.7273 15.2674 21.4599 16 22.3636 16C23.2674 16 24 15.2674 24 14.3636V13.9446C24 13.0815 23.3553 12.404 22.4741 11.9079Z" fill="white"/>
</svg>
