<svg width="144" height="33" viewBox="0 0 144 33" fill="none" xmlns="http://www.w3.org/2000/svg">
<g filter="url(#filter0_d)">
<path d="M84.8284 10.1474C85.6675 9.81502 86.6269 9.6481 87.7095 9.6481V14.2649C87.2401 14.2108 86.8528 14.1844 86.5462 14.1844C85.446 14.1844 84.5849 14.4817 83.9629 15.0747C83.3409 15.6692 83.0299 16.5785 83.0299 17.8012V24.5251H77.8898V9.6481H82.7864V11.6454C83.3101 10.9791 83.9908 10.4798 84.8284 10.1474Z" fill="#0BB0B1"/>
<path d="M84.8284 10.1474C85.6675 9.81502 86.6269 9.6481 87.7095 9.6481V14.2649C87.2401 14.2108 86.8528 14.1844 86.5462 14.1844C85.446 14.1844 84.5849 14.4817 83.9629 15.0747C83.3409 15.6692 83.0299 16.5785 83.0299 17.8012V24.5251H77.8898V9.6481H82.7864V11.6454C83.3101 10.9791 83.9908 10.4798 84.8284 10.1474Z" fill="url(#paint0_linear)"/>
<path d="M84.8284 10.1474C85.6675 9.81502 86.6269 9.6481 87.7095 9.6481V14.2649C87.2401 14.2108 86.8528 14.1844 86.5462 14.1844C85.446 14.1844 84.5849 14.4817 83.9629 15.0747C83.3409 15.6692 83.0299 16.5785 83.0299 17.8012V24.5251H77.8898V9.6481H82.7864V11.6454C83.3101 10.9791 83.9908 10.4798 84.8284 10.1474Z" fill="white"/>
<path d="M45.3457 9.64663H37.7044V4.84967H58.0758V9.64663H50.7015V24.5251H45.3457V9.64663Z" fill="#0BB0B1"/>
<path d="M45.3457 9.64663H37.7044V4.84967H58.0758V9.64663H50.7015V24.5251H45.3457V9.64663Z" fill="url(#paint1_linear)"/>
<path d="M45.3457 9.64663H37.7044V4.84967H58.0758V9.64663H50.7015V24.5251H45.3457V9.64663Z" fill="white"/>
<path d="M69.2935 11.6717C68.3194 10.3216 66.7865 9.64662 64.6946 9.64662C63.3964 9.64662 62.1964 9.93947 61.0977 10.5237C59.9975 11.1094 59.1232 11.9367 58.4733 13.0071C57.8235 14.079 57.4993 15.3075 57.4993 16.6927C57.4993 18.0969 57.8235 19.3342 58.4733 20.4046C59.1232 21.475 59.9975 22.3038 61.0977 22.888C62.1979 23.4737 63.3964 23.7651 64.6946 23.7651C66.606 23.7651 68.0583 23.1897 69.05 22.0373V22.5234C69.05 23.6934 68.7346 24.5763 68.1038 25.1694C67.473 25.7639 66.4813 26.0596 65.1288 26.0596C64.2457 26.0596 63.348 25.9205 62.437 25.6409C61.526 25.3612 60.7735 24.979 60.1779 24.4929L58.312 28.0833C59.1951 28.7129 60.2689 29.1903 61.5304 29.5139C62.792 29.8375 64.1445 30 65.588 30C68.3649 30 70.4934 29.3206 71.9721 27.9617C73.4508 26.6029 74.1901 24.5646 74.1901 21.8455V9.64076H69.2935V11.6717ZM68.1977 18.854C67.5933 19.4118 66.8319 19.6915 65.9122 19.6915C64.9924 19.6915 64.2252 19.4133 63.6135 18.854C63.0003 18.2961 62.6937 17.5757 62.6937 16.6942C62.6937 15.8127 62.9959 15.0966 63.6003 14.5475C64.2047 13.9984 64.9748 13.7246 65.9136 13.7246C66.851 13.7246 67.6182 13.9999 68.2123 14.5475C68.8079 15.0966 69.1057 15.8127 69.1057 16.6942C69.1042 17.5771 68.802 18.2961 68.1977 18.854Z" fill="#0BB0B1"/>
<path d="M69.2935 11.6717C68.3194 10.3216 66.7865 9.64662 64.6946 9.64662C63.3964 9.64662 62.1964 9.93947 61.0977 10.5237C59.9975 11.1094 59.1232 11.9367 58.4733 13.0071C57.8235 14.079 57.4993 15.3075 57.4993 16.6927C57.4993 18.0969 57.8235 19.3342 58.4733 20.4046C59.1232 21.475 59.9975 22.3038 61.0977 22.888C62.1979 23.4737 63.3964 23.7651 64.6946 23.7651C66.606 23.7651 68.0583 23.1897 69.05 22.0373V22.5234C69.05 23.6934 68.7346 24.5763 68.1038 25.1694C67.473 25.7639 66.4813 26.0596 65.1288 26.0596C64.2457 26.0596 63.348 25.9205 62.437 25.6409C61.526 25.3612 60.7735 24.979 60.1779 24.4929L58.312 28.0833C59.1951 28.7129 60.2689 29.1903 61.5304 29.5139C62.792 29.8375 64.1445 30 65.588 30C68.3649 30 70.4934 29.3206 71.9721 27.9617C73.4508 26.6029 74.1901 24.5646 74.1901 21.8455V9.64076H69.2935V11.6717ZM68.1977 18.854C67.5933 19.4118 66.8319 19.6915 65.9122 19.6915C64.9924 19.6915 64.2252 19.4133 63.6135 18.854C63.0003 18.2961 62.6937 17.5757 62.6937 16.6942C62.6937 15.8127 62.9959 15.0966 63.6003 14.5475C64.2047 13.9984 64.9748 13.7246 65.9136 13.7246C66.851 13.7246 67.6182 13.9999 68.2123 14.5475C68.8079 15.0966 69.1057 15.8127 69.1057 16.6942C69.1042 17.5771 68.802 18.2961 68.1977 18.854Z" fill="url(#paint2_linear)"/>
<path d="M69.2935 11.6717C68.3194 10.3216 66.7865 9.64662 64.6946 9.64662C63.3964 9.64662 62.1964 9.93947 61.0977 10.5237C59.9975 11.1094 59.1232 11.9367 58.4733 13.0071C57.8235 14.079 57.4993 15.3075 57.4993 16.6927C57.4993 18.0969 57.8235 19.3342 58.4733 20.4046C59.1232 21.475 59.9975 22.3038 61.0977 22.888C62.1979 23.4737 63.3964 23.7651 64.6946 23.7651C66.606 23.7651 68.0583 23.1897 69.05 22.0373V22.5234C69.05 23.6934 68.7346 24.5763 68.1038 25.1694C67.473 25.7639 66.4813 26.0596 65.1288 26.0596C64.2457 26.0596 63.348 25.9205 62.437 25.6409C61.526 25.3612 60.7735 24.979 60.1779 24.4929L58.312 28.0833C59.1951 28.7129 60.2689 29.1903 61.5304 29.5139C62.792 29.8375 64.1445 30 65.588 30C68.3649 30 70.4934 29.3206 71.9721 27.9617C73.4508 26.6029 74.1901 24.5646 74.1901 21.8455V9.64076H69.2935V11.6717ZM68.1977 18.854C67.5933 19.4118 66.8319 19.6915 65.9122 19.6915C64.9924 19.6915 64.2252 19.4133 63.6135 18.854C63.0003 18.2961 62.6937 17.5757 62.6937 16.6942C62.6937 15.8127 62.9959 15.0966 63.6003 14.5475C64.2047 13.9984 64.9748 13.7246 65.9136 13.7246C66.851 13.7246 67.6182 13.9999 68.2123 14.5475C68.8079 15.0966 69.1057 15.8127 69.1057 16.6942C69.1042 17.5771 68.802 18.2961 68.1977 18.854Z" fill="white"/>
<path d="M102.272 11.3071C100.991 10.2001 99.134 9.64663 96.7003 9.64663C95.5283 9.64663 94.3606 9.79453 93.1973 10.0918C92.034 10.389 91.0468 10.8078 90.2355 11.3481L91.9665 14.8316C92.4711 14.4363 93.0843 14.1258 93.8061 13.9003C94.5278 13.6748 95.2393 13.5636 95.9434 13.5636C97.9267 13.5636 98.9638 14.3382 99.0548 15.8859H96.1312C93.9132 15.8859 92.2717 16.2681 91.2081 17.0339C90.1446 17.7997 89.6121 18.8745 89.6121 20.2611C89.6121 21.1251 89.8233 21.8953 90.2473 22.5703C90.6712 23.2453 91.2976 23.7813 92.1264 24.1766C92.9552 24.572 93.9381 24.7711 95.075 24.7711C97.2211 24.7711 98.6631 24.0609 99.4024 22.6377V24.528H104.191V16.4013C104.192 14.1112 103.552 12.4156 102.272 11.3071ZM99.0533 19.8263C98.8553 20.3841 98.5296 20.8073 98.0793 21.0958C97.6289 21.3842 97.1052 21.5277 96.5111 21.5277C95.917 21.5277 95.4461 21.393 95.1043 21.1221C94.761 20.8527 94.5909 20.4925 94.5909 20.0415C94.5909 19.0517 95.339 18.5567 96.8368 18.5567H99.0548L99.0533 19.8263Z" fill="#0BB0B1"/>
<path d="M102.272 11.3071C100.991 10.2001 99.134 9.64663 96.7003 9.64663C95.5283 9.64663 94.3606 9.79453 93.1973 10.0918C92.034 10.389 91.0468 10.8078 90.2355 11.3481L91.9665 14.8316C92.4711 14.4363 93.0843 14.1258 93.8061 13.9003C94.5278 13.6748 95.2393 13.5636 95.9434 13.5636C97.9267 13.5636 98.9638 14.3382 99.0548 15.8859H96.1312C93.9132 15.8859 92.2717 16.2681 91.2081 17.0339C90.1446 17.7997 89.6121 18.8745 89.6121 20.2611C89.6121 21.1251 89.8233 21.8953 90.2473 22.5703C90.6712 23.2453 91.2976 23.7813 92.1264 24.1766C92.9552 24.572 93.9381 24.7711 95.075 24.7711C97.2211 24.7711 98.6631 24.0609 99.4024 22.6377V24.528H104.191V16.4013C104.192 14.1112 103.552 12.4156 102.272 11.3071ZM99.0533 19.8263C98.8553 20.3841 98.5296 20.8073 98.0793 21.0958C97.6289 21.3842 97.1052 21.5277 96.5111 21.5277C95.917 21.5277 95.4461 21.393 95.1043 21.1221C94.761 20.8527 94.5909 20.4925 94.5909 20.0415C94.5909 19.0517 95.339 18.5567 96.8368 18.5567H99.0548L99.0533 19.8263Z" fill="url(#paint3_linear)"/>
<path d="M102.272 11.3071C100.991 10.2001 99.134 9.64663 96.7003 9.64663C95.5283 9.64663 94.3606 9.79453 93.1973 10.0918C92.034 10.389 91.0468 10.8078 90.2355 11.3481L91.9665 14.8316C92.4711 14.4363 93.0843 14.1258 93.8061 13.9003C94.5278 13.6748 95.2393 13.5636 95.9434 13.5636C97.9267 13.5636 98.9638 14.3382 99.0548 15.8859H96.1312C93.9132 15.8859 92.2717 16.2681 91.2081 17.0339C90.1446 17.7997 89.6121 18.8745 89.6121 20.2611C89.6121 21.1251 89.8233 21.8953 90.2473 22.5703C90.6712 23.2453 91.2976 23.7813 92.1264 24.1766C92.9552 24.572 93.9381 24.7711 95.075 24.7711C97.2211 24.7711 98.6631 24.0609 99.4024 22.6377V24.528H104.191V16.4013C104.192 14.1112 103.552 12.4156 102.272 11.3071ZM99.0533 19.8263C98.8553 20.3841 98.5296 20.8073 98.0793 21.0958C97.6289 21.3842 97.1052 21.5277 96.5111 21.5277C95.917 21.5277 95.4461 21.393 95.1043 21.1221C94.761 20.8527 94.5909 20.4925 94.5909 20.0415C94.5909 19.0517 95.339 18.5567 96.8368 18.5567H99.0548L99.0533 19.8263Z" fill="white"/>
<path d="M118.835 11.1592C117.879 10.1518 116.526 9.64663 114.777 9.64663C113.443 9.64663 112.225 9.95266 111.126 10.5647C110.026 11.1768 109.156 12.0539 108.517 13.1975C107.876 14.3411 107.556 15.6677 107.556 17.1803C107.556 18.6929 107.876 20.0239 108.517 21.1763C109.156 22.3287 110.026 23.2146 111.126 23.8354C112.226 24.4563 113.443 24.7667 114.777 24.7667C116.689 24.7667 118.122 24.2 119.079 23.0652V24.5236H123.975V4.84967H118.835V11.1592ZM118.05 19.7589C117.472 20.3797 116.743 20.6902 115.859 20.6902C114.956 20.6902 114.217 20.3797 113.641 19.7589C113.063 19.138 112.775 18.2785 112.775 17.1803C112.775 16.0997 113.064 15.2548 113.641 14.6427C114.217 14.0307 114.956 13.7246 115.859 13.7246C116.759 13.7246 117.496 14.0307 118.063 14.6427C118.631 15.2548 118.916 16.1011 118.916 17.1803C118.916 18.2785 118.628 19.138 118.05 19.7589Z" fill="#0BB0B1"/>
<path d="M118.835 11.1592C117.879 10.1518 116.526 9.64663 114.777 9.64663C113.443 9.64663 112.225 9.95266 111.126 10.5647C110.026 11.1768 109.156 12.0539 108.517 13.1975C107.876 14.3411 107.556 15.6677 107.556 17.1803C107.556 18.6929 107.876 20.0239 108.517 21.1763C109.156 22.3287 110.026 23.2146 111.126 23.8354C112.226 24.4563 113.443 24.7667 114.777 24.7667C116.689 24.7667 118.122 24.2 119.079 23.0652V24.5236H123.975V4.84967H118.835V11.1592ZM118.05 19.7589C117.472 20.3797 116.743 20.6902 115.859 20.6902C114.956 20.6902 114.217 20.3797 113.641 19.7589C113.063 19.138 112.775 18.2785 112.775 17.1803C112.775 16.0997 113.064 15.2548 113.641 14.6427C114.217 14.0307 114.956 13.7246 115.859 13.7246C116.759 13.7246 117.496 14.0307 118.063 14.6427C118.631 15.2548 118.916 16.1011 118.916 17.1803C118.916 18.2785 118.628 19.138 118.05 19.7589Z" fill="url(#paint4_linear)"/>
<path d="M118.835 11.1592C117.879 10.1518 116.526 9.64663 114.777 9.64663C113.443 9.64663 112.225 9.95266 111.126 10.5647C110.026 11.1768 109.156 12.0539 108.517 13.1975C107.876 14.3411 107.556 15.6677 107.556 17.1803C107.556 18.6929 107.876 20.0239 108.517 21.1763C109.156 22.3287 110.026 23.2146 111.126 23.8354C112.226 24.4563 113.443 24.7667 114.777 24.7667C116.689 24.7667 118.122 24.2 119.079 23.0652V24.5236H123.975V4.84967H118.835V11.1592ZM118.05 19.7589C117.472 20.3797 116.743 20.6902 115.859 20.6902C114.956 20.6902 114.217 20.3797 113.641 19.7589C113.063 19.138 112.775 18.2785 112.775 17.1803C112.775 16.0997 113.064 15.2548 113.641 14.6427C114.217 14.0307 114.956 13.7246 115.859 13.7246C116.759 13.7246 117.496 14.0307 118.063 14.6427C118.631 15.2548 118.916 16.1011 118.916 17.1803C118.916 18.2785 118.628 19.138 118.05 19.7589Z" fill="white"/>
<path d="M143 17.2345C143 15.6692 142.652 14.3147 141.958 13.1711C141.265 12.0275 140.321 11.1548 139.132 10.5516C137.942 9.94827 136.616 9.64663 135.155 9.64663C133.622 9.64663 132.243 9.97024 131.016 10.6189C129.79 11.2676 128.829 12.1623 128.135 13.3058C127.442 14.4494 127.094 15.7409 127.094 17.1803C127.094 18.6387 127.45 19.9434 128.162 21.0958C128.873 22.2482 129.88 23.1487 131.178 23.7959C132.476 24.4446 133.981 24.7682 135.695 24.7682C138.435 24.7682 140.518 23.976 141.944 22.3917L139.239 19.5832C138.715 20.0327 138.197 20.3578 137.684 20.5555C137.17 20.7531 136.562 20.8527 135.857 20.8527C134.92 20.8527 134.14 20.6506 133.518 20.245C132.896 19.8394 132.476 19.2596 132.259 18.504H142.916C142.974 17.6928 143 17.2711 143 17.2345ZM132.18 15.8039C132.324 15.0293 132.662 14.4187 133.193 13.9677C133.726 13.5182 134.388 13.2927 135.181 13.2927C135.975 13.2927 136.638 13.5182 137.169 13.9677C137.7 14.4172 138.039 15.0293 138.184 15.8039H132.18Z" fill="#0BB0B1"/>
<path d="M143 17.2345C143 15.6692 142.652 14.3147 141.958 13.1711C141.265 12.0275 140.321 11.1548 139.132 10.5516C137.942 9.94827 136.616 9.64663 135.155 9.64663C133.622 9.64663 132.243 9.97024 131.016 10.6189C129.79 11.2676 128.829 12.1623 128.135 13.3058C127.442 14.4494 127.094 15.7409 127.094 17.1803C127.094 18.6387 127.45 19.9434 128.162 21.0958C128.873 22.2482 129.88 23.1487 131.178 23.7959C132.476 24.4446 133.981 24.7682 135.695 24.7682C138.435 24.7682 140.518 23.976 141.944 22.3917L139.239 19.5832C138.715 20.0327 138.197 20.3578 137.684 20.5555C137.17 20.7531 136.562 20.8527 135.857 20.8527C134.92 20.8527 134.14 20.6506 133.518 20.245C132.896 19.8394 132.476 19.2596 132.259 18.504H142.916C142.974 17.6928 143 17.2711 143 17.2345ZM132.18 15.8039C132.324 15.0293 132.662 14.4187 133.193 13.9677C133.726 13.5182 134.388 13.2927 135.181 13.2927C135.975 13.2927 136.638 13.5182 137.169 13.9677C137.7 14.4172 138.039 15.0293 138.184 15.8039H132.18Z" fill="url(#paint5_linear)"/>
<path d="M143 17.2345C143 15.6692 142.652 14.3147 141.958 13.1711C141.265 12.0275 140.321 11.1548 139.132 10.5516C137.942 9.94827 136.616 9.64663 135.155 9.64663C133.622 9.64663 132.243 9.97024 131.016 10.6189C129.79 11.2676 128.829 12.1623 128.135 13.3058C127.442 14.4494 127.094 15.7409 127.094 17.1803C127.094 18.6387 127.45 19.9434 128.162 21.0958C128.873 22.2482 129.88 23.1487 131.178 23.7959C132.476 24.4446 133.981 24.7682 135.695 24.7682C138.435 24.7682 140.518 23.976 141.944 22.3917L139.239 19.5832C138.715 20.0327 138.197 20.3578 137.684 20.5555C137.17 20.7531 136.562 20.8527 135.857 20.8527C134.92 20.8527 134.14 20.6506 133.518 20.245C132.896 19.8394 132.476 19.2596 132.259 18.504H142.916C142.974 17.6928 143 17.2711 143 17.2345ZM132.18 15.8039C132.324 15.0293 132.662 14.4187 133.193 13.9677C133.726 13.5182 134.388 13.2927 135.181 13.2927C135.975 13.2927 136.638 13.5182 137.169 13.9677C137.7 14.4172 138.039 15.0293 138.184 15.8039H132.18Z" fill="white"/>
<path d="M17.3285 0C8.31124 0 1 7.29794 1 16.2988C1 22.0373 3.97056 27.0817 8.4594 29.9854C10.1596 26.8357 13.4925 24.695 17.3285 24.695C21.1646 24.695 24.4975 26.8357 26.1977 29.9854C30.6865 27.0803 33.6571 22.0358 33.6571 16.2988C33.6585 7.29794 26.3473 0 17.3285 0ZM14.9697 21.4589C11.43 20.4383 8.83934 17.1862 8.83934 13.3249C8.83934 13.1726 8.85401 13.0247 8.86281 12.8754H14.9712V21.4589H14.9697ZM10.5762 8.21604C12.1268 6.17631 14.5663 4.84967 17.3285 4.84967C20.0908 4.84967 22.5318 6.17631 24.0809 8.21604H10.5762ZM19.636 21.475V12.8739H25.7957C25.8031 13.0232 25.8192 13.1711 25.8192 13.3234C25.8192 17.2052 23.2036 20.4705 19.636 21.475Z" fill="#0BB0B1"/>
<path d="M17.3285 0C8.31124 0 1 7.29794 1 16.2988C1 22.0373 3.97056 27.0817 8.4594 29.9854C10.1596 26.8357 13.4925 24.695 17.3285 24.695C21.1646 24.695 24.4975 26.8357 26.1977 29.9854C30.6865 27.0803 33.6571 22.0358 33.6571 16.2988C33.6585 7.29794 26.3473 0 17.3285 0ZM14.9697 21.4589C11.43 20.4383 8.83934 17.1862 8.83934 13.3249C8.83934 13.1726 8.85401 13.0247 8.86281 12.8754H14.9712V21.4589H14.9697ZM10.5762 8.21604C12.1268 6.17631 14.5663 4.84967 17.3285 4.84967C20.0908 4.84967 22.5318 6.17631 24.0809 8.21604H10.5762ZM19.636 21.475V12.8739H25.7957C25.8031 13.0232 25.8192 13.1711 25.8192 13.3234C25.8192 17.2052 23.2036 20.4705 19.636 21.475Z" fill="url(#paint6_linear)"/>
<path d="M17.3285 0C8.31124 0 1 7.29794 1 16.2988C1 22.0373 3.97056 27.0817 8.4594 29.9854C10.1596 26.8357 13.4925 24.695 17.3285 24.695C21.1646 24.695 24.4975 26.8357 26.1977 29.9854C30.6865 27.0803 33.6571 22.0358 33.6571 16.2988C33.6585 7.29794 26.3473 0 17.3285 0ZM14.9697 21.4589C11.43 20.4383 8.83934 17.1862 8.83934 13.3249C8.83934 13.1726 8.85401 13.0247 8.86281 12.8754H14.9712V21.4589H14.9697ZM10.5762 8.21604C12.1268 6.17631 14.5663 4.84967 17.3285 4.84967C20.0908 4.84967 22.5318 6.17631 24.0809 8.21604H10.5762ZM19.636 21.475V12.8739H25.7957C25.8031 13.0232 25.8192 13.1711 25.8192 13.3234C25.8192 17.2052 23.2036 20.4705 19.636 21.475Z" fill="white"/>
</g>
<defs>
<filter id="filter0_d" x="0" y="0" width="144" height="33" filterUnits="userSpaceOnUse" color-interpolation-filters="sRGB">
<feFlood flood-opacity="0" result="BackgroundImageFix"/>
<feColorMatrix in="SourceAlpha" type="matrix" values="0 0 0 0 0 0 0 0 0 0 0 0 0 0 0 0 0 0 127 0"/>
<feOffset dy="2"/>
<feGaussianBlur stdDeviation="0.5"/>
<feColorMatrix type="matrix" values="0 0 0 0 0 0 0 0 0 0 0 0 0 0 0 0 0 0 0.25 0"/>
<feBlend mode="normal" in2="BackgroundImageFix" result="effect1_dropShadow"/>
<feBlend mode="normal" in="SourceGraphic" in2="effect1_dropShadow" result="shape"/>
</filter>
<linearGradient id="paint0_linear" x1="210.821" y1="-10" x2="182.928" y2="104.017" gradientUnits="userSpaceOnUse">
<stop stop-color="#C4FAC4"/>
<stop offset="1" stop-color="#C4FAC4" stop-opacity="0"/>
</linearGradient>
<linearGradient id="paint1_linear" x1="210.821" y1="-10" x2="182.928" y2="104.017" gradientUnits="userSpaceOnUse">
<stop stop-color="#C4FAC4"/>
<stop offset="1" stop-color="#C4FAC4" stop-opacity="0"/>
</linearGradient>
<linearGradient id="paint2_linear" x1="210.821" y1="-10" x2="182.928" y2="104.017" gradientUnits="userSpaceOnUse">
<stop stop-color="#C4FAC4"/>
<stop offset="1" stop-color="#C4FAC4" stop-opacity="0"/>
</linearGradient>
<linearGradient id="paint3_linear" x1="210.821" y1="-10" x2="182.928" y2="104.017" gradientUnits="userSpaceOnUse">
<stop stop-color="#C4FAC4"/>
<stop offset="1" stop-color="#C4FAC4" stop-opacity="0"/>
</linearGradient>
<linearGradient id="paint4_linear" x1="210.821" y1="-10" x2="182.928" y2="104.017" gradientUnits="userSpaceOnUse">
<stop stop-color="#C4FAC4"/>
<stop offset="1" stop-color="#C4FAC4" stop-opacity="0"/>
</linearGradient>
<linearGradient id="paint5_linear" x1="210.821" y1="-10" x2="182.928" y2="104.017" gradientUnits="userSpaceOnUse">
<stop stop-color="#C4FAC4"/>
<stop offset="1" stop-color="#C4FAC4" stop-opacity="0"/>
</linearGradient>
<linearGradient id="paint6_linear" x1="210.821" y1="-10" x2="182.928" y2="104.017" gradientUnits="userSpaceOnUse">
<stop stop-color="#C4FAC4"/>
<stop offset="1" stop-color="#C4FAC4" stop-opacity="0"/>
</linearGradient>
</defs>
</svg>
