<svg xmlns="http://www.w3.org/2000/svg" fill="none" viewBox="0 0 78 79">
  <defs/>
  <g filter="url(#filter0_d)">
    <path fill="#0BB0B1" d="M74.827 10.39a2.864 2.864 0 00-4.05-.005L36.414 44.657 24.017 31.192a2.865 2.865 0 00-4.215 3.88L34.22 50.729a2.86 2.86 0 002.108.924c.757 0 1.485-.3 2.022-.835L74.82 14.44a2.864 2.864 0 00.006-4.051z"/>
    <path fill="url(#paint0_linear)" d="M74.827 10.39a2.864 2.864 0 00-4.05-.005L36.414 44.657 24.017 31.192a2.865 2.865 0 00-4.215 3.88L34.22 50.729a2.86 2.86 0 002.108.924c.757 0 1.485-.3 2.022-.835L74.82 14.44a2.864 2.864 0 00.006-4.051z"/>
    <path fill="#0BB0B1" d="M74.136 35.136A2.864 2.864 0 0071.27 38c0 17.795-14.476 32.271-32.271 32.271C21.206 70.271 6.729 55.795 6.729 38 6.729 20.206 21.206 5.729 39 5.729A2.864 2.864 0 1039 0C18.047 0 1 17.047 1 38s17.047 38 38 38 38-17.047 38-38a2.864 2.864 0 00-2.864-2.864z"/>
    <path fill="url(#paint1_linear)" d="M74.136 35.136A2.864 2.864 0 0071.27 38c0 17.795-14.476 32.271-32.271 32.271C21.206 70.271 6.729 55.795 6.729 38 6.729 20.206 21.206 5.729 39 5.729A2.864 2.864 0 1039 0C18.047 0 1 17.047 1 38s17.047 38 38 38 38-17.047 38-38a2.864 2.864 0 00-2.864-2.864z"/>
  </g>
  <defs>
    <linearGradient id="paint0_linear" x1="83.65" x2="-4.357" y1="-14.25" y2="64.981" gradientUnits="userSpaceOnUse">
      <stop stop-color="#C4FAC4"/>
      <stop offset="1" stop-color="#C4FAC4" stop-opacity="0"/>
    </linearGradient>
    <linearGradient id="paint1_linear" x1="83.65" x2="-4.357" y1="-14.25" y2="64.981" gradientUnits="userSpaceOnUse">
      <stop stop-color="#C4FAC4"/>
      <stop offset="1" stop-color="#C4FAC4" stop-opacity="0"/>
    </linearGradient>
    <filter id="filter0_d" width="78" height="79" x="0" y="0" color-interpolation-filters="sRGB" filterUnits="userSpaceOnUse">
      <feFlood flood-opacity="0" result="BackgroundImageFix"/>
      <feColorMatrix in="SourceAlpha" values="0 0 0 0 0 0 0 0 0 0 0 0 0 0 0 0 0 0 127 0"/>
      <feOffset dy="2"/>
      <feGaussianBlur stdDeviation=".5"/>
      <feColorMatrix values="0 0 0 0 0 0 0 0 0 0 0 0 0 0 0 0 0 0 0.25 0"/>
      <feBlend in2="BackgroundImageFix" result="effect1_dropShadow"/>
      <feBlend in="SourceGraphic" in2="effect1_dropShadow" result="shape"/>
    </filter>
  </defs>
</svg>
