<svg xmlns="http://www.w3.org/2000/svg" fill="none" viewBox="0 0 40 37">
  <defs/>
  <path fill="#FF6465" d="M19.999 25.695a2.078 2.078 0 00-2.056 2.056c0 1.118.938 2.056 2.056 2.056 1.077 0 2.056-.938 2.006-2.007A2.007 2.007 0 0020 25.695z"/>
  <path fill="#FF6465" d="M39.027 32.98c1.29-2.227 1.299-4.883.016-7.103l-12.877-22.3C24.892 1.332 22.59 0 20.008 0a7.021 7.021 0 00-6.159 3.569L.956 25.893C-.327 28.138-.32 30.81.98 33.038a7.037 7.037 0 006.142 3.528h25.72c2.574 0 4.884-1.34 6.184-3.585zm-2.796-1.61a3.886 3.886 0 01-3.396 1.964H7.115A3.833 3.833 0 013.76 31.41a3.89 3.89 0 01-.008-3.922L16.645 5.172a3.816 3.816 0 013.363-1.949c1.406 0 2.664.732 3.363 1.957l12.885 22.316c.69 1.2.682 2.648-.025 3.873z"/>
  <path fill="#FF6465" d="M19.49 11.265c-.98.28-1.588 1.168-1.588 2.245.05.65.09 1.307.14 1.957l.42 7.376c.049.838.698 1.447 1.537 1.447s1.497-.65 1.538-1.497c0-.51 0-.978.05-1.496.09-1.587.188-3.174.279-4.761.049-1.028.14-2.056.189-3.084 0-.37-.05-.699-.19-1.027a2.06 2.06 0 00-2.376-1.16z"/>
</svg>
