<svg xmlns="http://www.w3.org/2000/svg" width="15" height="15" fill="none" viewBox="0 0 15 15">
    <path fill="#F9B77A" d="M10.826 4.454l3.27.471c.928.134 1.3 1.273.63 1.928l-2.364 2.31c-.266.26-.387.634-.324 1.001l.563 3.257c.16.923-.81 1.629-1.64 1.194L8.036 13.08c-.33-.173-.724-.173-1.053.001l-2.923 1.542c-.829.437-1.8-.267-1.642-1.19l.554-3.258c.063-.367-.06-.741-.327-1.001L.276 6.87c-.672-.653-.302-1.793.625-1.929l3.27-.479c.367-.053.685-.285.85-.62L6.48.878C6.894.037 8.092.035 8.508.874l1.466 2.962c.165.334.484.565.852.618z"/>
</svg>
